<svg xmlns="http://www.w3.org/2000/svg" xmlns:xlink="http://www.w3.org/1999/xlink" width="100" zoomAndPan="magnify" viewBox="0 0 75 74.999997" height="100" preserveAspectRatio="xMidYMid meet" version="1.0"><defs><clipPath id="6c6fd5f006"><path d="M 0 0.28125 L 75 0.28125 L 75 75 L 0 75 Z M 0 0.28125 " clip-rule="nonzero"/></clipPath></defs><path fill="#0071bc" d="M 37.535156 43.570312 C 37.152344 43.5625 36.773438 43.515625 36.398438 43.433594 C 36.023438 43.351562 35.660156 43.234375 35.308594 43.082031 C 34.957031 42.929688 34.621094 42.742188 34.304688 42.523438 C 33.988281 42.304688 33.695312 42.058594 33.429688 41.785156 C 33.160156 41.507812 32.921875 41.210938 32.710938 40.886719 C 32.5 40.566406 32.320312 40.226562 32.175781 39.871094 C 32.03125 39.511719 31.921875 39.144531 31.847656 38.765625 C 31.773438 38.390625 31.738281 38.007812 31.738281 37.621094 C 31.738281 37.238281 31.773438 36.855469 31.847656 36.476562 C 31.921875 36.097656 32.03125 35.730469 32.175781 35.375 C 32.320312 35.019531 32.5 34.679688 32.710938 34.355469 C 32.921875 34.035156 33.160156 33.734375 33.429688 33.460938 C 33.695312 33.183594 33.988281 32.9375 34.304688 32.71875 C 34.621094 32.5 34.957031 32.316406 35.308594 32.160156 C 35.660156 32.007812 36.023438 31.890625 36.398438 31.808594 C 36.773438 31.726562 37.152344 31.679688 37.535156 31.671875 C 40.804688 31.671875 43.464844 34.339844 43.464844 37.625 C 43.464844 40.902344 40.804688 43.570312 37.535156 43.570312 Z M 37.535156 31.984375 C 37.164062 31.976562 36.792969 32.007812 36.425781 32.074219 C 36.054688 32.136719 35.699219 32.242188 35.351562 32.378906 C 35 32.515625 34.671875 32.6875 34.355469 32.890625 C 34.042969 33.09375 33.753906 33.328125 33.484375 33.589844 C 33.21875 33.855469 32.980469 34.140625 32.769531 34.449219 C 32.558594 34.761719 32.378906 35.089844 32.234375 35.4375 C 32.089844 35.78125 31.980469 36.140625 31.90625 36.507812 C 31.832031 36.875 31.796875 37.246094 31.796875 37.621094 C 31.796875 37.996094 31.832031 38.367188 31.90625 38.738281 C 31.980469 39.105469 32.089844 39.460938 32.234375 39.808594 C 32.378906 40.152344 32.558594 40.480469 32.769531 40.792969 C 32.980469 41.101562 33.21875 41.390625 33.484375 41.652344 C 33.753906 41.914062 34.042969 42.148438 34.355469 42.351562 C 34.671875 42.554688 35 42.726562 35.351562 42.867188 C 35.699219 43.003906 36.054688 43.105469 36.425781 43.171875 C 36.792969 43.238281 37.164062 43.265625 37.535156 43.257812 C 40.632812 43.257812 43.152344 40.730469 43.152344 37.621094 C 43.152344 34.511719 40.632812 31.984375 37.539062 31.984375 Z M 37.535156 31.984375 " fill-opacity="1" fill-rule="nonzero"/><path fill="#0071bc" d="M 37.429688 28.605469 L 37.742188 28.605469 L 37.742188 35.078125 L 37.429688 35.078125 Z M 37.429688 28.605469 " fill-opacity="1" fill-rule="nonzero"/><path fill="#0071bc" d="M 11.28125 33.082031 L 11.324219 32.84375 L 14.652344 33.433594 L 14.609375 33.671875 Z M 11.28125 33.082031 " fill-opacity="1" fill-rule="nonzero"/><path fill="#0071bc" d="M 60.511719 41.796875 L 60.554688 41.558594 L 63.882812 42.148438 L 63.84375 42.386719 Z M 60.511719 41.796875 " fill-opacity="1" fill-rule="nonzero"/><path fill="#0071bc" d="M 13.546875 25.980469 L 13.652344 25.761719 L 16.691406 27.25 L 16.585938 27.46875 Z M 13.546875 25.980469 " fill-opacity="1" fill-rule="nonzero"/><path fill="#0071bc" d="M 58.476562 47.980469 L 58.582031 47.761719 L 61.621094 49.246094 L 61.515625 49.46875 Z M 58.476562 47.980469 " fill-opacity="1" fill-rule="nonzero"/><path fill="#0071bc" d="M 17.671875 19.78125 L 17.835938 19.601562 L 20.347656 21.871094 L 20.183594 22.050781 Z M 17.671875 19.78125 " fill-opacity="1" fill-rule="nonzero"/><path fill="#0071bc" d="M 54.824219 53.359375 L 54.984375 53.175781 L 57.496094 55.449219 L 57.335938 55.628906 Z M 54.824219 53.359375 " fill-opacity="1" fill-rule="nonzero"/><path fill="#0071bc" d="M 23.339844 14.964844 L 23.546875 14.835938 L 25.339844 17.710938 L 25.132812 17.839844 Z M 23.339844 14.964844 " fill-opacity="1" fill-rule="nonzero"/><path fill="#0071bc" d="M 49.832031 57.519531 L 50.039062 57.390625 L 51.828125 60.265625 L 51.625 60.394531 Z M 49.832031 57.519531 " fill-opacity="1" fill-rule="nonzero"/><path fill="#0071bc" d="M 30.113281 11.898438 L 30.347656 11.832031 L 31.277344 15.09375 L 31.046875 15.160156 Z M 30.113281 11.898438 " fill-opacity="1" fill-rule="nonzero"/><path fill="#0071bc" d="M 43.894531 60.136719 L 44.125 60.070312 L 45.058594 63.332031 L 44.824219 63.398438 Z M 43.894531 60.136719 " fill-opacity="1" fill-rule="nonzero"/><path fill="#0071bc" d="M 37.464844 10.832031 L 37.707031 10.832031 L 37.707031 14.222656 L 37.464844 14.222656 Z M 37.464844 10.832031 " fill-opacity="1" fill-rule="nonzero"/><path fill="#0071bc" d="M 37.460938 61.011719 L 37.707031 61.011719 L 37.707031 64.40625 L 37.460938 64.40625 Z M 37.460938 61.011719 " fill-opacity="1" fill-rule="nonzero"/><path fill="#0071bc" d="M 43.890625 15.09375 L 44.824219 11.832031 L 45.054688 11.902344 L 44.125 15.160156 Z M 43.890625 15.09375 " fill-opacity="1" fill-rule="nonzero"/><path fill="#0071bc" d="M 30.109375 63.328125 L 31.042969 60.066406 L 31.277344 60.136719 L 30.34375 63.398438 Z M 30.109375 63.328125 " fill-opacity="1" fill-rule="nonzero"/><path fill="#0071bc" d="M 49.832031 17.710938 L 51.625 14.835938 L 51.828125 14.964844 L 50.039062 17.839844 Z M 49.832031 17.710938 " fill-opacity="1" fill-rule="nonzero"/><path fill="#0071bc" d="M 23.339844 60.265625 L 25.128906 57.390625 L 25.335938 57.519531 L 23.546875 60.394531 Z M 23.339844 60.265625 " fill-opacity="1" fill-rule="nonzero"/><path fill="#0071bc" d="M 54.824219 21.871094 L 57.335938 19.601562 L 57.496094 19.78125 L 54.984375 22.050781 Z M 54.824219 21.871094 " fill-opacity="1" fill-rule="nonzero"/><path fill="#0071bc" d="M 17.671875 55.449219 L 20.183594 53.175781 L 20.347656 53.359375 L 17.835938 55.628906 Z M 17.671875 55.449219 " fill-opacity="1" fill-rule="nonzero"/><path fill="#0071bc" d="M 58.480469 27.25 L 61.519531 25.761719 L 61.625 25.980469 L 58.585938 27.46875 Z M 58.480469 27.25 " fill-opacity="1" fill-rule="nonzero"/><path fill="#0071bc" d="M 13.546875 49.246094 L 16.585938 47.761719 L 16.691406 47.980469 L 13.652344 49.46875 Z M 13.546875 49.246094 " fill-opacity="1" fill-rule="nonzero"/><path fill="#0071bc" d="M 60.515625 33.433594 L 63.847656 32.84375 L 63.886719 33.082031 L 60.558594 33.671875 Z M 60.515625 33.433594 " fill-opacity="1" fill-rule="nonzero"/><path fill="#0071bc" d="M 11.285156 42.148438 L 14.613281 41.558594 L 14.65625 41.796875 L 11.328125 42.386719 Z M 11.285156 42.148438 " fill-opacity="1" fill-rule="nonzero"/><path fill="#0071bc" d="M 60.746094 40.183594 L 60.773438 39.941406 L 64.136719 40.296875 L 64.109375 40.539062 Z M 60.746094 40.183594 " fill-opacity="1" fill-rule="nonzero"/><path fill="#0071bc" d="M 11.03125 34.9375 L 11.054688 34.695312 L 14.417969 35.046875 L 14.394531 35.289062 Z M 11.03125 34.9375 " fill-opacity="1" fill-rule="nonzero"/><path fill="#0071bc" d="M 59.144531 46.492188 L 59.238281 46.265625 L 62.371094 47.535156 L 62.28125 47.761719 Z M 59.144531 46.492188 " fill-opacity="1" fill-rule="nonzero"/><path fill="#0071bc" d="M 12.796875 27.691406 L 12.886719 27.46875 L 16.019531 28.738281 L 15.929688 28.964844 Z M 12.796875 27.691406 " fill-opacity="1" fill-rule="nonzero"/><path fill="#0071bc" d="M 55.875 52.113281 L 56.023438 51.921875 L 58.6875 54.011719 L 58.539062 54.203125 Z M 55.875 52.113281 " fill-opacity="1" fill-rule="nonzero"/><path fill="#0071bc" d="M 16.480469 21.21875 L 16.632812 21.027344 L 19.292969 23.117188 L 19.144531 23.308594 Z M 16.480469 21.21875 " fill-opacity="1" fill-rule="nonzero"/><path fill="#0071bc" d="M 51.1875 56.613281 L 51.382812 56.46875 L 53.367188 59.214844 L 53.171875 59.355469 Z M 51.1875 56.613281 " fill-opacity="1" fill-rule="nonzero"/><path fill="#0071bc" d="M 21.800781 16.015625 L 22 15.871094 L 23.984375 18.617188 L 23.789062 18.761719 Z M 21.800781 16.015625 " fill-opacity="1" fill-rule="nonzero"/><path fill="#0071bc" d="M 45.441406 59.640625 L 45.671875 59.554688 L 46.828125 62.746094 L 46.597656 62.828125 Z M 45.441406 59.640625 " fill-opacity="1" fill-rule="nonzero"/><path fill="#0071bc" d="M 28.300781 12.582031 L 28.527344 12.5 L 29.683594 15.6875 L 29.457031 15.769531 Z M 28.300781 12.582031 " fill-opacity="1" fill-rule="nonzero"/><path fill="#0071bc" d="M 39.089844 60.960938 L 39.332031 60.945312 L 39.570312 64.328125 L 39.328125 64.347656 Z M 39.089844 60.960938 " fill-opacity="1" fill-rule="nonzero"/><path fill="#0071bc" d="M 35.605469 10.902344 L 35.847656 10.886719 L 36.082031 14.269531 L 35.839844 14.285156 Z M 35.605469 10.902344 " fill-opacity="1" fill-rule="nonzero"/><path fill="#0071bc" d="M 31.914062 63.789062 L 32.617188 60.472656 L 32.855469 60.523438 L 32.152344 63.839844 Z M 31.914062 63.789062 " fill-opacity="1" fill-rule="nonzero"/><path fill="#0071bc" d="M 42.3125 14.707031 L 43.015625 11.390625 L 43.25 11.441406 L 42.546875 14.757812 Z M 42.3125 14.707031 " fill-opacity="1" fill-rule="nonzero"/><path fill="#0071bc" d="M 24.949219 61.207031 L 26.535156 58.210938 L 26.75 58.328125 L 25.164062 61.324219 Z M 24.949219 61.207031 " fill-opacity="1" fill-rule="nonzero"/><path fill="#0071bc" d="M 48.417969 16.902344 L 50.003906 13.90625 L 50.21875 14.023438 L 48.632812 17.015625 Z M 48.417969 16.902344 " fill-opacity="1" fill-rule="nonzero"/><path fill="#0071bc" d="M 18.960938 56.796875 L 21.308594 54.359375 L 21.484375 54.527344 L 19.132812 56.96875 Z M 18.960938 56.796875 " fill-opacity="1" fill-rule="nonzero"/><path fill="#0071bc" d="M 53.6875 20.703125 L 56.035156 18.261719 L 56.210938 18.429688 L 53.863281 20.871094 Z M 53.6875 20.703125 " fill-opacity="1" fill-rule="nonzero"/><path fill="#0071bc" d="M 14.414062 50.902344 L 17.339844 49.207031 L 17.460938 49.417969 L 14.535156 51.113281 Z M 14.414062 50.902344 " fill-opacity="1" fill-rule="nonzero"/><path fill="#0071bc" d="M 57.707031 25.8125 L 60.636719 24.117188 L 60.757812 24.328125 L 57.828125 26.023438 Z M 57.707031 25.8125 " fill-opacity="1" fill-rule="nonzero"/><path fill="#0071bc" d="M 11.664062 43.976562 L 14.941406 43.15625 L 15 43.394531 L 11.722656 44.214844 Z M 11.664062 43.976562 " fill-opacity="1" fill-rule="nonzero"/><path fill="#0071bc" d="M 60.171875 31.835938 L 63.449219 31.015625 L 63.507812 31.253906 L 60.230469 32.074219 Z M 60.171875 31.835938 " fill-opacity="1" fill-rule="nonzero"/><path fill="#0071bc" d="M 10.910156 36.800781 L 10.917969 36.558594 L 14.296875 36.675781 L 14.289062 36.921875 Z M 10.910156 36.800781 " fill-opacity="1" fill-rule="nonzero"/><path fill="#0071bc" d="M 60.871094 38.554688 L 60.878906 38.3125 L 64.257812 38.429688 L 64.246094 38.671875 Z M 60.871094 38.554688 " fill-opacity="1" fill-rule="nonzero"/><path fill="#0071bc" d="M 12.167969 29.453125 L 12.242188 29.222656 L 15.457031 30.269531 L 15.382812 30.5 Z M 12.167969 29.453125 " fill-opacity="1" fill-rule="nonzero"/><path fill="#0071bc" d="M 59.710938 44.960938 L 59.785156 44.730469 L 63 45.777344 L 62.925781 46.007812 Z M 59.710938 44.960938 " fill-opacity="1" fill-rule="nonzero"/><path fill="#0071bc" d="M 15.394531 22.738281 L 15.527344 22.535156 L 18.332031 24.433594 L 18.195312 24.632812 Z M 15.394531 22.738281 " fill-opacity="1" fill-rule="nonzero"/><path fill="#0071bc" d="M 56.835938 50.796875 L 56.972656 50.59375 L 59.777344 52.492188 L 59.640625 52.695312 Z M 56.835938 50.796875 " fill-opacity="1" fill-rule="nonzero"/><path fill="#0071bc" d="M 20.339844 17.171875 L 20.523438 17.015625 L 22.699219 19.617188 L 22.511719 19.773438 Z M 20.339844 17.171875 " fill-opacity="1" fill-rule="nonzero"/><path fill="#0071bc" d="M 52.472656 55.613281 L 52.660156 55.457031 L 54.832031 58.054688 L 54.644531 58.210938 Z M 52.472656 55.613281 " fill-opacity="1" fill-rule="nonzero"/><path fill="#0071bc" d="M 26.621094 13.195312 L 26.84375 13.09375 L 28.21875 16.195312 L 27.996094 16.292969 Z M 26.621094 13.195312 " fill-opacity="1" fill-rule="nonzero"/><path fill="#0071bc" d="M 46.953125 59.035156 L 47.175781 58.9375 L 48.550781 62.035156 L 48.328125 62.136719 Z M 46.953125 59.035156 " fill-opacity="1" fill-rule="nonzero"/><path fill="#0071bc" d="M 33.753906 11.105469 L 33.992188 11.070312 L 34.464844 14.433594 L 34.222656 14.464844 Z M 33.753906 11.105469 " fill-opacity="1" fill-rule="nonzero"/><path fill="#0071bc" d="M 40.710938 60.796875 L 40.949219 60.765625 L 41.421875 64.125 L 41.179688 64.160156 Z M 40.710938 60.796875 " fill-opacity="1" fill-rule="nonzero"/><path fill="#0071bc" d="M 40.707031 14.433594 L 41.175781 11.074219 L 41.417969 11.105469 L 40.949219 14.46875 Z M 40.707031 14.433594 " fill-opacity="1" fill-rule="nonzero"/><path fill="#0071bc" d="M 33.769531 64.199219 L 34.238281 60.839844 L 34.480469 60.875 L 34.007812 64.234375 Z M 33.769531 64.199219 " fill-opacity="1" fill-rule="nonzero"/><path fill="#0071bc" d="M 46.953125 16.195312 L 48.328125 13.09375 L 48.550781 13.195312 L 47.175781 16.292969 Z M 46.953125 16.195312 " fill-opacity="1" fill-rule="nonzero"/><path fill="#0071bc" d="M 26.617188 62.035156 L 27.992188 58.9375 L 28.214844 59.035156 L 26.839844 62.132812 Z M 26.617188 62.035156 " fill-opacity="1" fill-rule="nonzero"/><path fill="#0071bc" d="M 52.472656 19.617188 L 54.644531 17.015625 L 54.832031 17.175781 L 52.660156 19.773438 Z M 52.472656 19.617188 " fill-opacity="1" fill-rule="nonzero"/><path fill="#0071bc" d="M 20.339844 58.054688 L 22.511719 55.457031 L 22.695312 55.613281 L 20.523438 58.210938 Z M 20.339844 58.054688 " fill-opacity="1" fill-rule="nonzero"/><path fill="#0071bc" d="M 56.839844 24.433594 L 59.640625 22.535156 L 59.777344 22.738281 L 56.976562 24.636719 Z M 56.839844 24.433594 " fill-opacity="1" fill-rule="nonzero"/><path fill="#0071bc" d="M 15.394531 52.492188 L 18.195312 50.59375 L 18.332031 50.796875 L 15.53125 52.695312 Z M 15.394531 52.492188 " fill-opacity="1" fill-rule="nonzero"/><path fill="#0071bc" d="M 59.714844 30.269531 L 62.929688 29.222656 L 63.003906 29.453125 L 59.789062 30.5 Z M 59.714844 30.269531 " fill-opacity="1" fill-rule="nonzero"/><path fill="#0071bc" d="M 12.167969 45.777344 L 15.382812 44.726562 L 15.457031 44.960938 L 12.242188 46.007812 Z M 12.167969 45.777344 " fill-opacity="1" fill-rule="nonzero"/><path fill="#0071bc" d="M 60.875 36.675781 L 64.253906 36.558594 L 64.261719 36.800781 L 60.882812 36.921875 Z M 60.875 36.675781 " fill-opacity="1" fill-rule="nonzero"/><path fill="#0071bc" d="M 10.914062 38.429688 L 14.289062 38.308594 L 14.300781 38.554688 L 10.921875 38.671875 Z M 10.914062 38.429688 " fill-opacity="1" fill-rule="nonzero"/><path fill="#0071bc" d="M 60.167969 43.394531 L 60.226562 43.15625 L 63.503906 43.976562 L 63.445312 44.214844 Z M 60.167969 43.394531 " fill-opacity="1" fill-rule="nonzero"/><path fill="#0071bc" d="M 11.660156 31.253906 L 11.71875 31.015625 L 15 31.835938 L 14.941406 32.074219 Z M 11.660156 31.253906 " fill-opacity="1" fill-rule="nonzero"/><path fill="#0071bc" d="M 57.957031 49.125 L 58.078125 48.910156 L 61.019531 50.609375 L 60.898438 50.820312 Z M 57.957031 49.125 " fill-opacity="1" fill-rule="nonzero"/><path fill="#0071bc" d="M 14.414062 24.328125 L 14.535156 24.117188 L 17.460938 25.8125 L 17.339844 26.023438 Z M 14.414062 24.328125 " fill-opacity="1" fill-rule="nonzero"/><path fill="#0071bc" d="M 53.6875 54.527344 L 53.859375 54.359375 L 56.210938 56.796875 L 56.035156 56.96875 Z M 53.6875 54.527344 " fill-opacity="1" fill-rule="nonzero"/><path fill="#0071bc" d="M 18.960938 18.429688 L 19.136719 18.261719 L 21.484375 20.703125 L 21.308594 20.871094 Z M 18.960938 18.429688 " fill-opacity="1" fill-rule="nonzero"/><path fill="#0071bc" d="M 48.417969 58.328125 L 48.632812 58.214844 L 50.222656 61.210938 L 50.007812 61.324219 Z M 48.417969 58.328125 " fill-opacity="1" fill-rule="nonzero"/><path fill="#0071bc" d="M 24.949219 14.019531 L 25.164062 13.90625 L 26.75 16.902344 L 26.539062 17.015625 Z M 24.949219 14.019531 " fill-opacity="1" fill-rule="nonzero"/><path fill="#0071bc" d="M 42.3125 60.523438 L 42.550781 60.472656 L 43.253906 63.792969 L 43.015625 63.84375 Z M 42.3125 60.523438 " fill-opacity="1" fill-rule="nonzero"/><path fill="#0071bc" d="M 31.917969 11.4375 L 32.15625 11.386719 L 32.859375 14.707031 L 32.621094 14.757812 Z M 31.917969 11.4375 " fill-opacity="1" fill-rule="nonzero"/><path fill="#0071bc" d="M 35.796875 64.222656 L 36.035156 60.839844 L 36.277344 60.855469 L 36.039062 64.242188 Z M 35.796875 64.222656 " fill-opacity="1" fill-rule="nonzero"/><path fill="#0071bc" d="M 39.089844 14.269531 L 39.324219 10.886719 L 39.566406 10.902344 L 39.332031 14.289062 Z M 39.089844 14.269531 " fill-opacity="1" fill-rule="nonzero"/><path fill="#0071bc" d="M 28.34375 62.742188 L 29.5 59.554688 L 29.726562 59.640625 L 28.570312 62.828125 Z M 28.34375 62.742188 " fill-opacity="1" fill-rule="nonzero"/><path fill="#0071bc" d="M 45.441406 15.589844 L 46.597656 12.402344 L 46.824219 12.488281 L 45.667969 15.675781 Z M 45.441406 15.589844 " fill-opacity="1" fill-rule="nonzero"/><path fill="#0071bc" d="M 21.800781 59.214844 L 23.789062 56.46875 L 23.984375 56.613281 L 21.996094 59.355469 Z M 21.800781 59.214844 " fill-opacity="1" fill-rule="nonzero"/><path fill="#0071bc" d="M 51.183594 18.617188 L 53.171875 15.871094 L 53.367188 16.015625 L 51.382812 18.761719 Z M 51.183594 18.617188 " fill-opacity="1" fill-rule="nonzero"/><path fill="#0071bc" d="M 16.480469 54.011719 L 19.144531 51.921875 L 19.292969 52.113281 L 16.632812 54.203125 Z M 16.480469 54.011719 " fill-opacity="1" fill-rule="nonzero"/><path fill="#0071bc" d="M 55.875 23.117188 L 58.539062 21.027344 L 58.6875 21.21875 L 56.023438 23.308594 Z M 55.875 23.117188 " fill-opacity="1" fill-rule="nonzero"/><path fill="#0071bc" d="M 12.796875 47.535156 L 15.933594 46.265625 L 16.023438 46.492188 L 12.890625 47.761719 Z M 12.796875 47.535156 " fill-opacity="1" fill-rule="nonzero"/><path fill="#0071bc" d="M 59.148438 28.738281 L 62.285156 27.46875 L 62.375 27.695312 L 59.242188 28.964844 Z M 59.148438 28.738281 " fill-opacity="1" fill-rule="nonzero"/><path fill="#0071bc" d="M 11.035156 40.292969 L 14.394531 39.941406 L 14.421875 40.183594 L 11.058594 40.535156 Z M 11.035156 40.292969 " fill-opacity="1" fill-rule="nonzero"/><path fill="#0071bc" d="M 60.753906 35.050781 L 64.113281 34.695312 L 64.140625 34.9375 L 60.777344 35.292969 Z M 60.753906 35.050781 " fill-opacity="1" fill-rule="nonzero"/><path fill="#0071bc" d="M 11.28125 33.082031 L 11.324219 32.84375 L 14.652344 33.433594 L 14.609375 33.671875 Z M 11.28125 33.082031 " fill-opacity="1" fill-rule="nonzero"/><path fill="#0071bc" d="M 60.511719 41.796875 L 60.554688 41.558594 L 63.882812 42.148438 L 63.84375 42.386719 Z M 60.511719 41.796875 " fill-opacity="1" fill-rule="nonzero"/><path fill="#0071bc" d="M 13.546875 25.980469 L 13.652344 25.761719 L 16.691406 27.25 L 16.585938 27.46875 Z M 13.546875 25.980469 " fill-opacity="1" fill-rule="nonzero"/><path fill="#0071bc" d="M 58.476562 47.980469 L 58.582031 47.761719 L 61.621094 49.246094 L 61.515625 49.46875 Z M 58.476562 47.980469 " fill-opacity="1" fill-rule="nonzero"/><path fill="#0071bc" d="M 17.671875 19.78125 L 17.835938 19.601562 L 20.347656 21.871094 L 20.183594 22.050781 Z M 17.671875 19.78125 " fill-opacity="1" fill-rule="nonzero"/><path fill="#0071bc" d="M 54.824219 53.359375 L 54.984375 53.175781 L 57.496094 55.449219 L 57.335938 55.628906 Z M 54.824219 53.359375 " fill-opacity="1" fill-rule="nonzero"/><path fill="#0071bc" d="M 23.339844 14.964844 L 23.546875 14.835938 L 25.339844 17.710938 L 25.132812 17.839844 Z M 23.339844 14.964844 " fill-opacity="1" fill-rule="nonzero"/><path fill="#0071bc" d="M 49.832031 57.519531 L 50.039062 57.390625 L 51.828125 60.265625 L 51.625 60.394531 Z M 49.832031 57.519531 " fill-opacity="1" fill-rule="nonzero"/><path fill="#0071bc" d="M 30.113281 11.898438 L 30.347656 11.832031 L 31.277344 15.09375 L 31.046875 15.160156 Z M 30.113281 11.898438 " fill-opacity="1" fill-rule="nonzero"/><path fill="#0071bc" d="M 43.894531 60.136719 L 44.125 60.070312 L 45.058594 63.332031 L 44.824219 63.398438 Z M 43.894531 60.136719 " fill-opacity="1" fill-rule="nonzero"/><path fill="#0071bc" d="M 37.464844 10.832031 L 37.707031 10.832031 L 37.707031 14.222656 L 37.464844 14.222656 Z M 37.464844 10.832031 " fill-opacity="1" fill-rule="nonzero"/><path fill="#0071bc" d="M 37.460938 61.011719 L 37.707031 61.011719 L 37.707031 64.40625 L 37.460938 64.40625 Z M 37.460938 61.011719 " fill-opacity="1" fill-rule="nonzero"/><path fill="#0071bc" d="M 37.429688 40.191406 L 37.742188 40.191406 L 37.742188 46.664062 L 37.429688 46.664062 Z M 37.429688 40.191406 " fill-opacity="1" fill-rule="nonzero"/><path fill="#0071bc" d="M 40.132812 37.480469 L 46.582031 37.480469 L 46.582031 37.792969 L 40.132812 37.792969 Z M 40.132812 37.480469 " fill-opacity="1" fill-rule="nonzero"/><path fill="#0071bc" d="M 28.589844 37.476562 L 35.035156 37.476562 L 35.035156 37.792969 L 28.589844 37.792969 Z M 28.589844 37.476562 " fill-opacity="1" fill-rule="nonzero"/><path fill="#0071bc" d="M 37.535156 59.601562 C 36.191406 59.601562 34.855469 59.480469 33.53125 59.234375 L 33.519531 59.273438 L 33.515625 59.273438 L 30.898438 58.617188 L 30.898438 58.613281 L 30.863281 58.605469 L 31.523438 55.976562 L 32.863281 56.3125 C 35.359375 56.9375 37.875 57.054688 40.417969 56.671875 L 40.800781 56.617188 L 41.183594 56.542969 C 42.898438 56.210938 44.539062 55.652344 46.101562 54.867188 L 46.132812 54.855469 L 47.339844 54.246094 L 47.34375 54.246094 L 48.554688 56.667969 L 48.554688 56.671875 L 48.519531 56.6875 L 48.519531 56.691406 L 47.34375 57.28125 L 46.136719 57.886719 L 46.117188 57.851562 C 44.835938 58.402344 43.511719 58.820312 42.152344 59.117188 L 42.15625 59.15625 L 41.257812 59.292969 L 40.371094 59.464844 L 40.367188 59.464844 L 40.359375 59.425781 C 39.421875 59.542969 38.480469 59.601562 37.535156 59.601562 Z M 27.84375 57.382812 L 26.671875 56.710938 C 26.417969 56.566406 26.160156 56.410156 25.90625 56.253906 L 24.761719 55.53125 L 24.761719 55.527344 L 26.199219 53.230469 L 26.203125 53.230469 L 27.347656 53.953125 C 27.566406 54.09375 27.789062 54.226562 28.011719 54.355469 L 29.183594 55.027344 L 29.183594 55.03125 Z M 53.257812 52.980469 L 51.210938 51.214844 L 51.210938 51.210938 L 52.09375 50.183594 C 52.261719 49.988281 52.429688 49.785156 52.589844 49.582031 L 53.425781 48.519531 L 53.429688 48.519531 L 55.542969 50.203125 L 55.542969 50.207031 L 54.707031 51.269531 C 54.523438 51.5 54.332031 51.730469 54.140625 51.957031 L 53.261719 52.984375 Z M 20.429688 51.410156 L 20.425781 51.410156 L 20.40625 51.378906 L 20.402344 51.378906 L 19.648438 50.300781 L 18.867188 49.195312 L 18.867188 49.191406 L 18.898438 49.167969 C 18.167969 47.980469 17.554688 46.730469 17.058594 45.425781 L 17.019531 45.4375 L 16.75 44.566406 L 16.445312 43.707031 L 16.484375 43.691406 C 15.917969 41.707031 15.636719 39.683594 15.636719 37.621094 C 15.636719 37.375 15.640625 37.128906 15.648438 36.886719 L 15.609375 36.882812 L 15.609375 36.878906 L 15.863281 34.179688 L 15.867188 34.179688 L 15.871094 34.148438 L 18.558594 34.40625 L 18.429688 35.757812 L 18.429688 35.789062 C 18.371094 36.394531 18.34375 37.011719 18.34375 37.625 C 18.339844 39.574219 18.625 41.476562 19.199219 43.339844 L 19.316406 43.710938 L 19.445312 44.078125 C 20.03125 45.730469 20.828125 47.273438 21.835938 48.707031 L 21.859375 48.742188 L 22.632812 49.839844 L 22.632812 49.84375 Z M 57.199219 47.394531 L 54.710938 46.34375 L 55.234375 45.09375 L 55.25 45.0625 C 56.242188 42.683594 56.734375 40.203125 56.730469 37.625 L 56.730469 36.265625 L 59.433594 36.265625 L 59.433594 37.625 C 59.433594 40.097656 59.03125 42.503906 58.222656 44.84375 L 58.261719 44.859375 L 58.261719 44.863281 L 57.738281 46.113281 C 57.734375 46.121094 57.730469 46.125 57.730469 46.132812 L 57.214844 47.363281 Z M 56.613281 35.046875 L 56.339844 33.71875 C 56.335938 33.707031 56.335938 33.695312 56.332031 33.6875 C 55.8125 31.160156 54.820312 28.835938 53.359375 26.710938 L 53.140625 26.390625 L 52.90625 26.078125 C 51.859375 24.671875 50.640625 23.433594 49.257812 22.363281 L 48.160156 21.511719 L 49.804688 19.363281 L 49.808594 19.363281 L 49.835938 19.386719 L 49.839844 19.386719 L 50.898438 20.207031 L 51.949219 21.019531 L 51.925781 21.050781 C 52.972656 21.96875 53.925781 22.980469 54.785156 24.078125 L 54.820312 24.058594 L 54.824219 24.058594 L 55.339844 24.808594 L 55.882812 25.535156 L 55.882812 25.539062 L 55.851562 25.5625 C 57.117188 27.496094 58.058594 29.582031 58.664062 31.8125 L 58.707031 31.804688 L 59.257812 34.460938 L 59.261719 34.496094 L 59.261719 34.5 Z M 19.136719 31.945312 L 16.621094 30.964844 L 17.105469 29.699219 C 17.210938 29.421875 17.324219 29.144531 17.441406 28.875 L 17.980469 27.628906 L 20.460938 28.710938 L 19.921875 29.953125 C 19.816406 30.191406 19.71875 30.4375 19.625 30.675781 L 19.140625 31.941406 Z M 23.269531 24.664062 L 23.265625 24.664062 L 21.394531 22.710938 L 21.394531 22.707031 L 21.417969 22.683594 L 21.417969 22.679688 L 22.382812 21.753906 L 23.34375 20.828125 L 23.371094 20.859375 C 24.433594 19.953125 25.570312 19.160156 26.78125 18.472656 L 26.761719 18.4375 L 26.761719 18.433594 L 27.582031 18.035156 L 28.378906 17.605469 L 28.382812 17.605469 L 28.402344 17.640625 C 30.496094 16.671875 32.691406 16.054688 34.980469 15.789062 L 34.980469 15.75 L 37.675781 15.601562 L 37.675781 15.605469 L 37.710938 15.601562 L 37.851562 18.308594 L 37.851562 18.3125 L 36.472656 18.382812 C 33.90625 18.519531 31.46875 19.152344 29.15625 20.28125 L 28.808594 20.453125 L 28.464844 20.636719 C 26.925781 21.464844 25.523438 22.488281 24.261719 23.703125 L 24.214844 23.75 Z M 43.75 19.335938 L 42.445312 18.992188 C 42.195312 18.925781 41.941406 18.863281 41.691406 18.808594 L 40.375 18.515625 L 40.953125 15.867188 L 40.957031 15.867188 L 42.273438 16.160156 C 42.558594 16.222656 42.851562 16.292969 43.132812 16.367188 L 44.441406 16.714844 Z M 43.75 19.335938 " fill-opacity="1" fill-rule="nonzero"/><path fill="#0071bc" d="M 37.535156 55.621094 C 36.949219 55.621094 36.363281 55.59375 35.78125 55.535156 C 35.195312 55.476562 34.613281 55.390625 34.039062 55.277344 C 33.460938 55.160156 32.894531 55.019531 32.332031 54.847656 C 31.769531 54.675781 31.21875 54.476562 30.675781 54.25 C 30.132812 54.027344 29.601562 53.773438 29.082031 53.496094 C 28.566406 53.21875 28.0625 52.914062 27.574219 52.589844 C 27.085938 52.261719 26.613281 51.910156 26.160156 51.535156 C 25.707031 51.164062 25.273438 50.765625 24.855469 50.351562 C 24.441406 49.933594 24.046875 49.496094 23.675781 49.042969 C 23.300781 48.585938 22.953125 48.113281 22.628906 47.621094 C 22.300781 47.132812 22 46.628906 21.722656 46.105469 C 21.445312 45.585938 21.195312 45.054688 20.96875 44.511719 C 20.746094 43.964844 20.546875 43.410156 20.378906 42.847656 C 20.207031 42.28125 20.0625 41.710938 19.949219 41.132812 C 19.835938 40.554688 19.75 39.972656 19.691406 39.386719 C 19.632812 38.800781 19.605469 38.210938 19.605469 37.621094 C 19.605469 37.03125 19.632812 36.445312 19.691406 35.859375 C 19.75 35.269531 19.835938 34.6875 19.949219 34.109375 C 20.0625 33.53125 20.207031 32.960938 20.378906 32.398438 C 20.546875 31.832031 20.746094 31.277344 20.96875 30.734375 C 21.195312 30.1875 21.445312 29.65625 21.722656 29.136719 C 22 28.617188 22.300781 28.113281 22.628906 27.621094 C 22.953125 27.132812 23.300781 26.660156 23.675781 26.203125 C 24.046875 25.746094 24.441406 25.3125 24.855469 24.894531 C 25.273438 24.476562 25.707031 24.082031 26.160156 23.707031 C 26.613281 23.335938 27.085938 22.984375 27.574219 22.65625 C 28.0625 22.328125 28.566406 22.027344 29.082031 21.746094 C 29.601562 21.46875 30.132812 21.21875 30.675781 20.992188 C 31.21875 20.765625 31.769531 20.570312 32.332031 20.398438 C 32.894531 20.226562 33.460938 20.082031 34.039062 19.96875 C 34.613281 19.851562 35.195312 19.765625 35.78125 19.710938 C 36.363281 19.652344 36.949219 19.621094 37.535156 19.621094 C 38.125 19.621094 38.710938 19.652344 39.292969 19.710938 C 39.878906 19.765625 40.460938 19.851562 41.035156 19.96875 C 41.613281 20.082031 42.179688 20.226562 42.742188 20.398438 C 43.304688 20.570312 43.855469 20.765625 44.398438 20.992188 C 44.941406 21.21875 45.472656 21.46875 45.992188 21.746094 C 46.507812 22.027344 47.011719 22.328125 47.5 22.65625 C 47.988281 22.984375 48.460938 23.335938 48.914062 23.707031 C 49.367188 24.082031 49.800781 24.476562 50.21875 24.894531 C 50.632812 25.3125 51.027344 25.746094 51.398438 26.203125 C 51.769531 26.660156 52.121094 27.132812 52.445312 27.621094 C 52.773438 28.113281 53.074219 28.617188 53.351562 29.136719 C 53.628906 29.65625 53.878906 30.1875 54.105469 30.734375 C 54.328125 31.277344 54.527344 31.832031 54.695312 32.398438 C 54.867188 32.960938 55.011719 33.53125 55.125 34.109375 C 55.238281 34.6875 55.324219 35.269531 55.382812 35.859375 C 55.441406 36.445312 55.46875 37.03125 55.46875 37.621094 C 55.46875 38.210938 55.441406 38.800781 55.382812 39.386719 C 55.324219 39.972656 55.238281 40.554688 55.125 41.132812 C 55.011719 41.710938 54.867188 42.28125 54.695312 42.847656 C 54.527344 43.410156 54.328125 43.964844 54.105469 44.511719 C 53.878906 45.054688 53.628906 45.585938 53.351562 46.105469 C 53.074219 46.628906 52.773438 47.132812 52.445312 47.621094 C 52.121094 48.113281 51.769531 48.585938 51.398438 49.042969 C 51.027344 49.496094 50.632812 49.933594 50.21875 50.351562 C 49.800781 50.765625 49.367188 51.164062 48.914062 51.535156 C 48.460938 51.910156 47.988281 52.261719 47.5 52.589844 C 47.011719 52.914062 46.507812 53.21875 45.992188 53.496094 C 45.472656 53.773438 44.941406 54.027344 44.398438 54.25 C 43.855469 54.476562 43.304688 54.675781 42.742188 54.847656 C 42.179688 55.019531 41.613281 55.160156 41.035156 55.277344 C 40.460938 55.390625 39.878906 55.476562 39.292969 55.535156 C 38.710938 55.59375 38.125 55.621094 37.535156 55.621094 Z M 37.535156 20.570312 C 33 20.570312 28.734375 22.34375 25.523438 25.5625 C 22.316406 28.785156 20.546875 33.066406 20.546875 37.621094 C 20.546875 47.023438 28.167969 54.671875 37.535156 54.671875 C 46.902344 54.671875 54.523438 47.023438 54.523438 37.621094 C 54.523438 33.066406 52.753906 28.785156 49.546875 25.5625 C 46.339844 22.34375 42.074219 20.570312 37.539062 20.570312 Z M 37.535156 20.570312 " fill-opacity="1" fill-rule="nonzero"/><path fill="#0071bc" d="M 52.476562 31.289062 C 51.886719 29.894531 51.117188 28.605469 50.171875 27.425781 C 49.226562 26.246094 48.136719 25.21875 46.902344 24.34375 C 45.671875 23.46875 44.34375 22.78125 42.917969 22.277344 C 41.496094 21.773438 40.03125 21.476562 38.523438 21.386719 C 37.015625 21.292969 35.527344 21.410156 34.050781 21.734375 C 32.578125 22.058594 31.175781 22.582031 29.847656 23.300781 C 28.519531 24.019531 27.3125 24.90625 26.230469 25.960938 C 25.148438 27.015625 24.230469 28.199219 23.476562 29.511719 C 23.898438 29.289062 24.332031 29.082031 24.777344 28.890625 C 24.960938 28.8125 25.148438 28.738281 25.339844 28.664062 C 28.089844 24.894531 32.535156 22.445312 37.535156 22.445312 C 45.875 22.445312 52.65625 29.253906 52.65625 37.621094 C 52.65625 42.824219 50.035156 47.421875 46.054688 50.15625 L 46.027344 50.222656 C 45.769531 50.832031 45.476562 51.421875 45.148438 51.996094 C 46.035156 51.523438 46.871094 50.96875 47.652344 50.339844 C 48.4375 49.710938 49.15625 49.015625 49.8125 48.253906 C 50.46875 47.488281 51.046875 46.671875 51.550781 45.800781 C 52.054688 44.929688 52.476562 44.019531 52.8125 43.070312 C 53.148438 42.121094 53.394531 41.148438 53.550781 40.152344 C 53.707031 39.15625 53.769531 38.15625 53.742188 37.148438 C 53.714844 36.140625 53.59375 35.144531 53.378906 34.160156 C 53.167969 33.175781 52.863281 32.21875 52.476562 31.289062 Z M 22.417969 37.621094 C 22.414062 35.035156 23.035156 32.605469 24.273438 30.339844 C 23.683594 30.640625 23.117188 30.976562 22.570312 31.351562 C 22.269531 32.082031 22.019531 32.828125 21.824219 33.597656 C 21.632812 34.363281 21.492188 35.140625 21.410156 35.925781 C 21.332031 36.710938 21.304688 37.5 21.339844 38.292969 C 21.371094 39.082031 21.460938 39.863281 21.609375 40.640625 C 21.753906 41.417969 21.957031 42.179688 22.214844 42.929688 C 22.46875 43.675781 22.78125 44.402344 23.144531 45.105469 C 23.503906 45.804688 23.917969 46.476562 24.375 47.121094 C 24.835938 47.761719 25.339844 48.367188 25.886719 48.9375 C 26.4375 49.503906 27.023438 50.03125 27.648438 50.511719 C 28.269531 50.996094 28.925781 51.429688 29.613281 51.816406 C 30.300781 52.203125 31.011719 52.539062 31.75 52.820312 C 32.484375 53.105469 33.238281 53.332031 34.003906 53.503906 C 34.773438 53.675781 35.550781 53.792969 36.335938 53.851562 C 37.125 53.910156 37.910156 53.910156 38.695312 53.855469 C 39.480469 53.800781 40.257812 53.6875 41.027344 53.515625 C 41.796875 53.347656 42.550781 53.121094 43.289062 52.84375 C 43.679688 52.308594 44.035156 51.75 44.351562 51.167969 C 42.210938 52.257812 39.9375 52.800781 37.539062 52.796875 C 29.199219 52.796875 22.417969 45.988281 22.417969 37.621094 Z M 22.417969 37.621094 " fill-opacity="1" fill-rule="nonzero"/><path fill="#0071bc" d="M 37.539062 49.75 C 36.742188 49.75 35.957031 49.675781 35.179688 49.519531 C 34.402344 49.363281 33.644531 49.132812 32.914062 48.828125 C 32.179688 48.523438 31.484375 48.148438 30.824219 47.707031 C 30.164062 47.265625 29.554688 46.761719 28.992188 46.199219 C 28.433594 45.636719 27.929688 45.023438 27.488281 44.359375 C 27.050781 43.699219 26.675781 43 26.375 42.265625 C 26.070312 41.527344 25.839844 40.769531 25.6875 39.988281 C 25.53125 39.207031 25.453125 38.417969 25.453125 37.621094 C 25.453125 36.824219 25.53125 36.035156 25.6875 35.257812 C 25.839844 34.476562 26.070312 33.714844 26.375 32.980469 C 26.675781 32.246094 27.050781 31.546875 27.488281 30.882812 C 27.929688 30.222656 28.433594 29.609375 28.992188 29.046875 C 29.554688 28.480469 30.164062 27.980469 30.824219 27.535156 C 31.484375 27.09375 32.179688 26.722656 32.914062 26.417969 C 33.644531 26.113281 34.402344 25.882812 35.179688 25.726562 C 35.957031 25.570312 36.742188 25.492188 37.539062 25.492188 C 38.332031 25.492188 39.117188 25.570312 39.894531 25.722656 C 40.675781 25.878906 41.429688 26.109375 42.164062 26.414062 C 42.898438 26.71875 43.59375 27.089844 44.253906 27.535156 C 44.914062 27.976562 45.523438 28.480469 46.085938 29.042969 C 46.644531 29.605469 47.148438 30.21875 47.585938 30.882812 C 48.027344 31.542969 48.402344 32.242188 48.703125 32.980469 C 49.007812 33.714844 49.234375 34.472656 49.390625 35.253906 C 49.542969 36.035156 49.621094 36.824219 49.621094 37.621094 C 49.621094 38.417969 49.542969 39.207031 49.390625 39.988281 C 49.234375 40.769531 49.007812 41.53125 48.703125 42.265625 C 48.398438 43 48.027344 43.699219 47.585938 44.363281 C 47.148438 45.027344 46.644531 45.640625 46.085938 46.203125 C 45.523438 46.765625 44.914062 47.269531 44.253906 47.710938 C 43.59375 48.152344 42.894531 48.527344 42.164062 48.832031 C 41.429688 49.136719 40.671875 49.363281 39.894531 49.519531 C 39.117188 49.675781 38.332031 49.753906 37.535156 49.75 Z M 37.539062 26.132812 C 31.226562 26.132812 26.089844 31.285156 26.089844 37.621094 C 26.089844 43.957031 31.222656 49.113281 37.535156 49.113281 C 38.289062 49.113281 39.03125 49.039062 39.769531 48.890625 C 40.507812 48.746094 41.222656 48.527344 41.917969 48.238281 C 42.613281 47.949219 43.273438 47.597656 43.898438 47.175781 C 44.523438 46.757812 45.101562 46.28125 45.632812 45.746094 C 46.164062 45.214844 46.636719 44.632812 47.054688 44.007812 C 47.472656 43.378906 47.824219 42.71875 48.113281 42.019531 C 48.402344 41.324219 48.617188 40.605469 48.765625 39.863281 C 48.910156 39.125 48.984375 38.378906 48.984375 37.621094 C 48.984375 36.867188 48.910156 36.121094 48.765625 35.378906 C 48.617188 34.640625 48.402344 33.921875 48.113281 33.226562 C 47.824219 32.527344 47.472656 31.867188 47.054688 31.238281 C 46.636719 30.609375 46.164062 30.03125 45.632812 29.496094 C 45.101562 28.964844 44.523438 28.488281 43.898438 28.066406 C 43.273438 27.648438 42.613281 27.296875 41.917969 27.007812 C 41.222656 26.71875 40.507812 26.5 39.769531 26.351562 C 39.035156 26.203125 38.289062 26.132812 37.539062 26.132812 Z M 37.539062 26.132812 " fill-opacity="1" fill-rule="nonzero"/><path fill="#0071bc" d="M 65.304688 50.335938 C 66.121094 48.539062 66.757812 46.679688 67.214844 44.757812 C 67.671875 42.835938 67.941406 40.890625 68.023438 38.917969 C 68.105469 36.945312 68 34.980469 67.707031 33.027344 C 67.414062 31.074219 66.9375 29.167969 66.277344 27.308594 C 64.902344 23.445312 62.792969 19.945312 60.007812 16.898438 C 57.21875 13.855469 53.921875 11.449219 50.203125 9.75 C 47.171875 8.363281 43.996094 7.5 40.679688 7.15625 C 37.363281 6.8125 34.082031 7.003906 30.828125 7.738281 C 31.679688 8.039062 32.515625 8.378906 33.34375 8.753906 C 33.691406 8.914062 34.03125 9.078125 34.371094 9.246094 C 43.078125 8.277344 52.121094 11.335938 58.492188 18.296875 C 69.109375 29.894531 68.34375 47.996094 56.789062 58.65625 C 49.609375 65.277344 39.925781 67.488281 31.078125 65.429688 L 30.953125 65.472656 C 29.785156 65.894531 28.597656 66.238281 27.386719 66.511719 C 30.691406 67.679688 34.097656 68.257812 37.601562 68.25 C 41.109375 68.242188 44.511719 67.648438 47.8125 66.46875 C 51.660156 65.089844 55.148438 62.972656 58.179688 60.175781 C 61.214844 57.378906 63.613281 54.070312 65.304688 50.335938 Z M 18.285156 16.589844 C 21.851562 13.289062 25.992188 11.058594 30.703125 9.898438 C 29.539062 9.460938 28.347656 9.101562 27.136719 8.820312 C 23.339844 10.199219 19.890625 12.300781 16.890625 15.070312 C 16.441406 15.488281 16 15.917969 15.574219 16.363281 C 15.148438 16.808594 14.734375 17.265625 14.335938 17.734375 C 13.9375 18.203125 13.554688 18.683594 13.183594 19.175781 C 12.8125 19.667969 12.457031 20.171875 12.117188 20.6875 C 11.777344 21.199219 11.453125 21.722656 11.148438 22.257812 C 10.839844 22.792969 10.546875 23.335938 10.269531 23.886719 C 9.996094 24.4375 9.738281 24.996094 9.496094 25.5625 C 9.253906 26.132812 9.027344 26.703125 8.820312 27.285156 C 8.613281 27.867188 8.425781 28.453125 8.253906 29.046875 C 8.082031 29.636719 7.925781 30.234375 7.789062 30.835938 C 7.652344 31.4375 7.535156 32.042969 7.4375 32.652344 C 7.335938 33.261719 7.253906 33.871094 7.191406 34.484375 C 7.128906 35.097656 7.085938 35.714844 7.058594 36.328125 C 7.03125 36.945312 7.027344 37.5625 7.035156 38.179688 C 7.046875 38.796875 7.078125 39.414062 7.125 40.027344 C 7.175781 40.640625 7.242188 41.253906 7.324219 41.867188 C 7.410156 42.476562 7.515625 43.085938 7.636719 43.691406 C 7.757812 44.292969 7.898438 44.894531 8.054688 45.492188 C 8.210938 46.085938 8.386719 46.679688 8.582031 47.265625 C 8.773438 47.851562 8.984375 48.429688 9.214844 49 C 9.441406 49.574219 9.6875 50.140625 9.949219 50.699219 C 10.210938 51.257812 10.488281 51.804688 10.785156 52.347656 C 11.082031 52.886719 11.390625 53.417969 11.71875 53.941406 C 12.046875 54.464844 12.386719 54.976562 12.746094 55.476562 C 13.105469 55.976562 13.476562 56.46875 13.863281 56.949219 C 14.253906 57.425781 14.652344 57.894531 15.070312 58.347656 C 15.484375 58.800781 15.914062 59.242188 16.355469 59.671875 C 16.796875 60.101562 17.253906 60.515625 17.71875 60.917969 C 18.1875 61.316406 18.664062 61.703125 19.15625 62.074219 C 19.644531 62.449219 20.148438 62.804688 20.660156 63.144531 C 21.171875 63.488281 21.691406 63.8125 22.222656 64.125 C 22.753906 64.433594 23.296875 64.726562 23.84375 65.003906 C 25.082031 64.867188 26.304688 64.648438 27.511719 64.351562 C 23.277344 62.761719 19.636719 60.292969 16.582031 56.949219 C 5.96875 45.351562 6.730469 27.246094 18.285156 16.589844 Z M 18.285156 16.589844 " fill-opacity="1" fill-rule="nonzero"/><g clip-path="url(#6c6fd5f006)"><path fill="#0071bc" d="M 7.101562 59.542969 C 5.757812 57.664062 4.597656 55.679688 3.617188 53.589844 L 3.550781 53.617188 L 3.546875 53.617188 L 1.847656 49.308594 L 1.847656 49.304688 L 1.828125 49.246094 L 6.121094 47.542969 L 6.125 47.546875 L 6.992188 49.753906 C 8.617188 53.847656 10.960938 57.476562 14.023438 60.640625 L 14.488281 61.117188 L 14.96875 61.574219 C 17.136719 63.636719 19.542969 65.367188 22.183594 66.765625 L 22.234375 66.792969 L 24.277344 67.867188 L 24.277344 67.871094 L 22.132812 71.972656 L 22.128906 71.972656 L 22.074219 71.945312 L 22.070312 71.945312 L 20.085938 70.894531 L 18.042969 69.820312 L 18.042969 69.816406 L 18.074219 69.753906 C 16.039062 68.511719 14.140625 67.089844 12.375 65.484375 L 12.328125 65.53125 L 12.324219 65.53125 L 11.242188 64.414062 L 10.117188 63.347656 L 10.117188 63.34375 L 10.164062 63.292969 C 9.0625 62.105469 8.042969 60.855469 7.101562 59.542969 Z M 0.511719 43.816406 L 0.277344 41.515625 C 0.222656 41.015625 0.183594 40.507812 0.152344 39.996094 L 0.0078125 37.683594 L 0.0117188 37.683594 L 4.617188 37.394531 L 4.621094 37.398438 L 4.765625 39.710938 C 4.792969 40.15625 4.828125 40.601562 4.875 41.042969 L 5.109375 43.34375 L 5.105469 43.347656 L 0.515625 43.820312 Z M 31.925781 74.859375 L 32.332031 70.242188 L 32.335938 70.242188 L 34.636719 70.445312 C 35.074219 70.484375 35.519531 70.515625 35.960938 70.535156 L 38.265625 70.644531 L 38.269531 70.648438 L 38.046875 75.277344 L 38.042969 75.28125 L 35.738281 75.167969 C 35.234375 75.144531 34.726562 75.109375 34.226562 75.066406 L 31.925781 74.863281 Z M 1.394531 27.53125 L 1.390625 27.527344 L 1.410156 27.472656 L 1.40625 27.46875 L 2.144531 25.339844 L 2.898438 23.148438 L 2.902344 23.148438 L 2.964844 23.167969 C 3.882812 20.964844 4.996094 18.867188 6.308594 16.875 L 6.253906 16.832031 L 6.253906 16.828125 L 7.191406 15.585938 L 8.074219 14.308594 L 8.078125 14.308594 L 8.136719 14.347656 C 10.316406 11.582031 12.835938 9.171875 15.691406 7.117188 C 16.027344 6.875 16.375 6.636719 16.71875 6.402344 L 16.683594 6.34375 L 16.683594 6.339844 L 20.671875 4.003906 L 20.675781 4.003906 L 20.726562 3.972656 L 20.730469 3.972656 L 23.050781 7.980469 L 23.050781 7.984375 L 21.054688 9.152344 L 21.050781 9.152344 L 21.007812 9.179688 C 20.113281 9.703125 19.230469 10.277344 18.382812 10.886719 C 15.6875 12.828125 13.335938 15.125 11.332031 17.777344 L 10.929688 18.3125 L 10.554688 18.859375 C 8.851562 21.320312 7.507812 23.96875 6.53125 26.800781 L 6.507812 26.867188 L 5.757812 29.042969 L 5.753906 29.046875 Z M 43.585938 74.789062 L 42.558594 70.269531 L 42.5625 70.269531 L 44.8125 69.753906 L 44.855469 69.742188 L 44.867188 69.742188 C 49.109375 68.761719 53.066406 66.964844 56.636719 64.394531 L 58.507812 63.046875 L 58.511719 63.046875 L 61.203125 66.808594 L 61.203125 66.816406 L 59.328125 68.164062 C 55.90625 70.636719 52.175781 72.472656 48.132812 73.671875 L 48.148438 73.742188 L 48.148438 73.746094 L 45.898438 74.261719 C 45.882812 74.265625 45.871094 74.265625 45.859375 74.269531 L 43.648438 74.78125 L 43.644531 74.777344 Z M 60.082031 61.660156 L 60.082031 61.65625 L 61.648438 59.953125 C 61.660156 59.9375 61.675781 59.925781 61.6875 59.910156 C 64.664062 56.667969 66.890625 52.96875 68.371094 48.820312 L 68.597656 48.191406 L 68.796875 47.558594 C 69.691406 44.695312 70.191406 41.765625 70.296875 38.765625 L 70.375 36.390625 L 74.988281 36.546875 L 74.992188 36.546875 L 74.992188 36.613281 L 74.914062 38.910156 L 74.839844 41.179688 L 74.835938 41.183594 L 74.765625 41.179688 C 74.539062 43.558594 74.09375 45.890625 73.429688 48.183594 L 73.492188 48.207031 L 73.496094 48.210938 L 72.96875 49.679688 L 72.503906 51.160156 L 72.5 51.164062 L 72.4375 51.144531 C 71.023438 54.839844 69.078125 58.222656 66.59375 61.296875 L 66.644531 61.34375 L 66.644531 61.347656 L 63.519531 64.757812 L 63.515625 64.757812 L 63.472656 64.800781 L 63.46875 64.800781 Z M 27.03125 6.339844 L 25.875 1.855469 L 25.875 1.851562 L 28.109375 1.269531 C 28.597656 1.140625 29.09375 1.023438 29.585938 0.917969 L 31.84375 0.429688 L 31.847656 0.429688 L 32.820312 4.960938 L 30.566406 5.453125 C 30.132812 5.546875 29.699219 5.648438 29.269531 5.757812 L 27.035156 6.339844 Z M 41.214844 4.84375 L 41.214844 4.839844 L 42.054688 0.28125 L 42.058594 0.28125 L 42.117188 0.292969 L 42.121094 0.289062 L 44.363281 0.710938 L 46.597656 1.125 L 46.597656 1.128906 L 46.585938 1.195312 C 48.894531 1.773438 51.125 2.566406 53.285156 3.570312 L 53.316406 3.507812 L 53.320312 3.507812 L 54.6875 4.25 L 56.078125 4.933594 L 56.078125 4.9375 L 56.046875 5 C 59.472656 6.957031 62.511719 9.398438 65.164062 12.328125 L 65.21875 12.285156 L 65.222656 12.285156 L 68.113281 15.898438 L 68.113281 15.902344 L 68.148438 15.949219 L 68.148438 15.953125 L 64.546875 18.847656 L 64.542969 18.847656 L 63.066406 16.996094 C 60.320312 13.554688 57.015625 10.785156 53.148438 8.691406 L 52.566406 8.371094 L 51.972656 8.078125 C 49.289062 6.761719 46.476562 5.824219 43.539062 5.273438 L 43.429688 5.253906 Z M 68.996094 28.085938 L 68.175781 25.921875 C 68.015625 25.507812 67.851562 25.089844 67.675781 24.683594 L 66.765625 22.554688 L 66.769531 22.554688 L 71.007812 20.726562 L 71.011719 20.726562 L 71.921875 22.855469 C 72.121094 23.320312 72.3125 23.792969 72.492188 24.265625 L 73.316406 26.429688 L 73.316406 26.433594 L 69.003906 28.085938 Z M 68.996094 28.085938 " fill-opacity="1" fill-rule="nonzero"/></g><path fill="#0071bc" d="M 37.535156 43.570312 C 37.152344 43.5625 36.773438 43.515625 36.398438 43.433594 C 36.023438 43.351562 35.660156 43.234375 35.308594 43.082031 C 34.957031 42.929688 34.621094 42.742188 34.304688 42.523438 C 33.988281 42.304688 33.695312 42.058594 33.429688 41.785156 C 33.160156 41.507812 32.921875 41.210938 32.710938 40.886719 C 32.5 40.566406 32.320312 40.226562 32.175781 39.871094 C 32.03125 39.511719 31.921875 39.144531 31.847656 38.765625 C 31.773438 38.390625 31.738281 38.007812 31.738281 37.621094 C 31.738281 37.238281 31.773438 36.855469 31.847656 36.476562 C 31.921875 36.097656 32.03125 35.730469 32.175781 35.375 C 32.320312 35.019531 32.5 34.679688 32.710938 34.355469 C 32.921875 34.035156 33.160156 33.734375 33.429688 33.460938 C 33.695312 33.183594 33.988281 32.9375 34.304688 32.71875 C 34.621094 32.5 34.957031 32.316406 35.308594 32.160156 C 35.660156 32.007812 36.023438 31.890625 36.398438 31.808594 C 36.773438 31.726562 37.152344 31.679688 37.535156 31.671875 C 40.804688 31.671875 43.464844 34.339844 43.464844 37.625 C 43.464844 40.902344 40.804688 43.570312 37.535156 43.570312 Z M 37.535156 31.984375 C 37.164062 31.976562 36.792969 32.007812 36.425781 32.074219 C 36.054688 32.136719 35.699219 32.242188 35.351562 32.378906 C 35 32.515625 34.671875 32.6875 34.355469 32.890625 C 34.042969 33.09375 33.753906 33.328125 33.484375 33.589844 C 33.21875 33.855469 32.980469 34.140625 32.769531 34.449219 C 32.558594 34.761719 32.378906 35.089844 32.234375 35.4375 C 32.089844 35.78125 31.980469 36.140625 31.90625 36.507812 C 31.832031 36.875 31.796875 37.246094 31.796875 37.621094 C 31.796875 37.996094 31.832031 38.367188 31.90625 38.738281 C 31.980469 39.105469 32.089844 39.460938 32.234375 39.808594 C 32.378906 40.152344 32.558594 40.480469 32.769531 40.792969 C 32.980469 41.101562 33.21875 41.390625 33.484375 41.652344 C 33.753906 41.914062 34.042969 42.148438 34.355469 42.351562 C 34.671875 42.554688 35 42.726562 35.351562 42.867188 C 35.699219 43.003906 36.054688 43.105469 36.425781 43.171875 C 36.792969 43.238281 37.164062 43.265625 37.535156 43.257812 C 40.632812 43.257812 43.152344 40.730469 43.152344 37.621094 C 43.152344 34.511719 40.632812 31.984375 37.539062 31.984375 Z M 37.535156 31.984375 " fill-opacity="1" fill-rule="nonzero"/></svg>