<svg xmlns="http://www.w3.org/2000/svg" xmlns:xlink="http://www.w3.org/1999/xlink" width="100" zoomAndPan="magnify" viewBox="0 0 75 74.999997" height="100" preserveAspectRatio="xMidYMid meet" version="1.0"><path fill="#d4e1f4" d="M 24.265625 35.878906 C 24.367188 34.875 24.546875 33.886719 24.8125 32.914062 C 25.082031 31.941406 25.425781 30.996094 25.851562 30.082031 C 26.277344 29.167969 26.777344 28.292969 27.347656 27.460938 C 27.921875 26.632812 28.558594 25.855469 29.261719 25.132812 C 29.96875 24.410156 30.726562 23.75 31.542969 23.152344 C 32.355469 22.558594 33.214844 22.035156 34.121094 21.585938 C 35.023438 21.136719 35.957031 20.765625 36.921875 20.472656 C 37.890625 20.183594 38.875 19.972656 39.875 19.847656 C 39.726562 19.828125 39.574219 19.8125 39.421875 19.796875 C 38.796875 19.734375 38.171875 19.707031 37.542969 19.710938 C 36.914062 19.714844 36.285156 19.753906 35.660156 19.824219 C 35.035156 19.894531 34.417969 20 33.804688 20.136719 C 33.191406 20.269531 32.585938 20.4375 31.988281 20.636719 C 31.390625 20.835938 30.808594 21.066406 30.234375 21.328125 C 29.664062 21.589844 29.105469 21.878906 28.566406 22.199219 C 28.023438 22.519531 27.5 22.867188 26.996094 23.242188 C 26.492188 23.613281 26.007812 24.015625 25.542969 24.441406 C 25.082031 24.867188 24.640625 25.316406 24.226562 25.785156 C 23.8125 26.257812 23.421875 26.75 23.058594 27.261719 C 22.691406 27.777344 22.355469 28.304688 22.050781 28.855469 C 21.742188 29.402344 21.460938 29.964844 21.214844 30.542969 C 20.964844 31.121094 20.746094 31.707031 20.558594 32.308594 C 20.371094 32.910156 20.21875 33.515625 20.09375 34.132812 C 19.972656 34.75 19.882812 35.371094 19.824219 36 C 19.765625 36.625 19.742188 37.25 19.75 37.878906 C 19.757812 38.507812 19.800781 39.136719 19.875 39.761719 C 19.949219 40.382812 20.054688 41.003906 20.195312 41.617188 C 20.332031 42.230469 20.503906 42.832031 20.707031 43.429688 C 20.910156 44.023438 21.144531 44.605469 21.410156 45.175781 C 21.671875 45.746094 21.964844 46.300781 22.289062 46.839844 C 22.613281 47.382812 22.960938 47.902344 23.339844 48.40625 C 23.714844 48.910156 24.121094 49.390625 24.546875 49.851562 C 24.976562 50.3125 25.425781 50.746094 25.902344 51.160156 C 26.375 51.574219 26.871094 51.960938 27.382812 52.320312 C 27.898438 52.683594 28.429688 53.015625 28.980469 53.320312 C 29.53125 53.625 30.09375 53.902344 30.675781 54.144531 C 31.253906 54.390625 31.84375 54.605469 32.445312 54.789062 C 33.046875 54.972656 33.65625 55.125 34.273438 55.246094 C 34.890625 55.363281 35.511719 55.449219 36.136719 55.503906 C 36.765625 55.558594 37.390625 55.578125 38.019531 55.566406 C 38.648438 55.554688 39.277344 55.511719 39.898438 55.433594 C 39.324219 55.359375 38.757812 55.261719 38.195312 55.136719 C 37.628906 55.011719 37.074219 54.855469 36.523438 54.675781 C 35.976562 54.496094 35.4375 54.292969 34.90625 54.058594 C 34.378906 53.828125 33.863281 53.570312 33.359375 53.289062 C 32.851562 53.003906 32.363281 52.699219 31.890625 52.371094 C 31.414062 52.042969 30.957031 51.691406 30.515625 51.316406 C 30.074219 50.941406 29.652344 50.550781 29.25 50.132812 C 28.847656 49.71875 28.46875 49.289062 28.105469 48.835938 C 27.746094 48.386719 27.40625 47.917969 27.089844 47.433594 C 26.777344 46.949219 26.484375 46.453125 26.21875 45.941406 C 25.949219 45.425781 25.707031 44.902344 25.492188 44.367188 C 25.273438 43.832031 25.082031 43.289062 24.917969 42.734375 C 24.753906 42.179688 24.617188 41.621094 24.507812 41.050781 C 24.398438 40.484375 24.316406 39.914062 24.261719 39.339844 C 24.207031 38.765625 24.179688 38.1875 24.179688 37.609375 C 24.179688 37.03125 24.210938 36.457031 24.265625 35.878906 Z M 24.265625 35.878906 " fill-opacity="1" fill-rule="nonzero"/><path fill="#0071bc" d="M 70.109375 32.90625 C 69.558594 32.90625 69.023438 33 68.507812 33.1875 C 67.988281 33.371094 67.515625 33.640625 67.09375 33.992188 C 66.667969 34.34375 66.316406 34.753906 66.035156 35.230469 C 65.753906 35.703125 65.5625 36.210938 65.457031 36.75 L 55.726562 36.75 L 55.726562 38.53125 L 65.457031 38.53125 C 65.570312 39.121094 65.789062 39.671875 66.113281 40.179688 C 66.433594 40.6875 66.839844 41.117188 67.328125 41.472656 C 67.816406 41.824219 68.351562 42.078125 68.933594 42.226562 C 69.515625 42.375 70.105469 42.414062 70.703125 42.339844 C 71.300781 42.261719 71.863281 42.078125 72.390625 41.789062 C 72.917969 41.5 73.375 41.121094 73.757812 40.660156 C 74.140625 40.195312 74.425781 39.675781 74.613281 39.101562 C 74.796875 38.53125 74.871094 37.945312 74.835938 37.34375 C 74.796875 36.742188 74.648438 36.167969 74.394531 35.625 C 74.136719 35.078125 73.789062 34.601562 73.351562 34.1875 C 72.910156 33.777344 72.414062 33.460938 71.851562 33.238281 C 71.292969 33.015625 70.710938 32.90625 70.109375 32.90625 Z M 72.199219 39.730469 C 71.921875 40.007812 71.601562 40.222656 71.242188 40.371094 C 70.878906 40.519531 70.5 40.59375 70.109375 40.59375 C 69.71875 40.59375 69.339844 40.519531 68.980469 40.371094 C 68.617188 40.21875 68.296875 40.007812 68.019531 39.730469 C 67.742188 39.453125 67.53125 39.132812 67.378906 38.769531 C 67.230469 38.410156 67.15625 38.03125 67.15625 37.640625 C 67.15625 37.25 67.230469 36.871094 67.378906 36.507812 C 67.53125 36.148438 67.742188 35.828125 68.019531 35.550781 C 68.296875 35.273438 68.617188 35.0625 68.980469 34.910156 C 69.339844 34.761719 69.71875 34.6875 70.109375 34.683594 C 70.5 34.683594 70.878906 34.761719 71.242188 34.910156 C 71.601562 35.058594 71.921875 35.273438 72.199219 35.550781 C 72.476562 35.828125 72.6875 36.148438 72.839844 36.507812 C 72.988281 36.871094 73.0625 37.25 73.0625 37.640625 C 73.0625 38.03125 72.988281 38.410156 72.839844 38.769531 C 72.691406 39.132812 72.476562 39.453125 72.199219 39.730469 Z M 72.199219 39.730469 " fill-opacity="1" fill-rule="nonzero"/><path fill="#0071bc" d="M 68.15625 47.707031 C 67.605469 47.707031 67.070312 47.800781 66.554688 47.988281 C 66.035156 48.171875 65.566406 48.441406 65.140625 48.792969 C 64.714844 49.140625 64.363281 49.554688 64.082031 50.027344 C 63.800781 50.5 63.609375 51.007812 63.503906 51.546875 C 63.113281 51.539062 62.734375 51.453125 62.371094 51.296875 C 62.011719 51.136719 61.691406 50.917969 61.417969 50.632812 C 61.140625 50.351562 60.929688 50.027344 60.78125 49.664062 C 60.632812 49.296875 60.558594 48.917969 60.558594 48.523438 C 60.554688 48.207031 60.527344 47.894531 60.464844 47.585938 C 60.402344 47.277344 60.3125 46.976562 60.191406 46.683594 C 60.070312 46.394531 59.921875 46.117188 59.746094 45.855469 C 59.570312 45.59375 59.371094 45.347656 59.148438 45.125 C 58.925781 44.902344 58.683594 44.703125 58.421875 44.527344 C 58.15625 44.351562 57.882812 44.203125 57.589844 44.082031 C 57.296875 43.960938 56.996094 43.871094 56.6875 43.808594 C 56.378906 43.746094 56.066406 43.714844 55.75 43.714844 L 54.246094 43.714844 L 54.246094 45.496094 L 55.75 45.496094 C 56.152344 45.496094 56.539062 45.570312 56.910156 45.726562 C 57.28125 45.878906 57.605469 46.097656 57.890625 46.382812 C 58.175781 46.667969 58.394531 46.996094 58.546875 47.363281 C 58.699219 47.734375 58.777344 48.121094 58.777344 48.523438 C 58.777344 48.835938 58.808594 49.144531 58.871094 49.449219 C 58.929688 49.757812 59.019531 50.054688 59.136719 50.34375 C 59.257812 50.632812 59.402344 50.90625 59.574219 51.167969 C 59.746094 51.425781 59.941406 51.667969 60.160156 51.890625 C 60.378906 52.113281 60.617188 52.3125 60.875 52.488281 C 61.132812 52.664062 61.40625 52.816406 61.691406 52.9375 C 61.976562 53.0625 62.273438 53.15625 62.578125 53.222656 C 62.882812 53.285156 63.191406 53.320312 63.503906 53.328125 C 63.617188 53.917969 63.835938 54.46875 64.15625 54.976562 C 64.480469 55.484375 64.886719 55.917969 65.371094 56.269531 C 65.859375 56.625 66.394531 56.878906 66.976562 57.027344 C 67.5625 57.175781 68.152344 57.214844 68.75 57.140625 C 69.347656 57.0625 69.910156 56.882812 70.4375 56.589844 C 70.964844 56.300781 71.417969 55.925781 71.804688 55.460938 C 72.1875 54.996094 72.472656 54.476562 72.660156 53.90625 C 72.84375 53.332031 72.917969 52.746094 72.882812 52.144531 C 72.84375 51.542969 72.695312 50.972656 72.441406 50.425781 C 72.183594 49.882812 71.835938 49.402344 71.398438 48.992188 C 70.957031 48.578125 70.457031 48.261719 69.898438 48.039062 C 69.339844 47.816406 68.757812 47.707031 68.15625 47.707031 Z M 70.246094 54.53125 C 69.96875 54.808594 69.648438 55.023438 69.289062 55.171875 C 68.925781 55.320312 68.546875 55.394531 68.15625 55.394531 C 67.765625 55.394531 67.386719 55.320312 67.027344 55.171875 C 66.664062 55.019531 66.34375 54.808594 66.066406 54.53125 C 65.792969 54.253906 65.578125 53.933594 65.429688 53.570312 C 65.277344 53.210938 65.203125 52.832031 65.203125 52.441406 C 65.203125 52.050781 65.277344 51.671875 65.429688 51.3125 C 65.578125 50.949219 65.792969 50.628906 66.066406 50.351562 C 66.34375 50.074219 66.664062 49.863281 67.027344 49.710938 C 67.386719 49.5625 67.765625 49.488281 68.15625 49.488281 C 68.546875 49.488281 68.925781 49.5625 69.289062 49.710938 C 69.648438 49.859375 69.96875 50.074219 70.246094 50.351562 C 70.523438 50.628906 70.734375 50.949219 70.886719 51.308594 C 71.035156 51.671875 71.109375 52.050781 71.109375 52.441406 C 71.109375 52.832031 71.035156 53.210938 70.886719 53.570312 C 70.734375 53.933594 70.523438 54.253906 70.246094 54.53125 Z M 70.246094 54.53125 " fill-opacity="1" fill-rule="nonzero"/><path fill="#0071bc" d="M 54.097656 29.785156 L 54.097656 31.566406 L 55.75 31.566406 C 56.066406 31.5625 56.378906 31.53125 56.6875 31.472656 C 56.996094 31.410156 57.296875 31.316406 57.589844 31.195312 C 57.878906 31.074219 58.15625 30.925781 58.417969 30.753906 C 58.683594 30.578125 58.925781 30.378906 59.148438 30.15625 C 59.371094 29.929688 59.570312 29.6875 59.746094 29.425781 C 59.921875 29.164062 60.070312 28.886719 60.191406 28.59375 C 60.308594 28.304688 60.402344 28.003906 60.464844 27.695312 C 60.523438 27.386719 60.554688 27.074219 60.558594 26.757812 C 60.558594 26.363281 60.632812 25.984375 60.78125 25.617188 C 60.929688 25.253906 61.140625 24.929688 61.417969 24.644531 C 61.691406 24.363281 62.011719 24.144531 62.371094 23.984375 C 62.734375 23.828125 63.113281 23.742188 63.503906 23.734375 C 63.578125 24.117188 63.699219 24.484375 63.863281 24.839844 C 64.027344 25.191406 64.234375 25.519531 64.480469 25.824219 C 64.726562 26.125 65.003906 26.394531 65.316406 26.628906 C 65.628906 26.863281 65.964844 27.054688 66.324219 27.207031 C 66.683594 27.355469 67.058594 27.460938 67.445312 27.519531 C 67.828125 27.578125 68.214844 27.589844 68.605469 27.550781 C 68.992188 27.515625 69.371094 27.429688 69.738281 27.300781 C 70.105469 27.167969 70.453125 26.996094 70.777344 26.78125 C 71.101562 26.5625 71.394531 26.3125 71.660156 26.023438 C 71.921875 25.734375 72.144531 25.417969 72.328125 25.074219 C 72.511719 24.730469 72.652344 24.367188 72.746094 23.988281 C 72.839844 23.609375 72.890625 23.226562 72.886719 22.835938 C 72.886719 22.445312 72.839844 22.0625 72.746094 21.683594 C 72.648438 21.304688 72.511719 20.945312 72.324219 20.601562 C 72.140625 20.257812 71.917969 19.941406 71.65625 19.652344 C 71.390625 19.363281 71.097656 19.109375 70.773438 18.894531 C 70.449219 18.679688 70.101562 18.507812 69.734375 18.375 C 69.367188 18.246094 68.988281 18.164062 68.597656 18.125 C 68.210938 18.089844 67.824219 18.101562 67.4375 18.160156 C 67.050781 18.21875 66.679688 18.324219 66.320312 18.476562 C 65.960938 18.628906 65.625 18.820312 65.3125 19.054688 C 65 19.289062 64.722656 19.558594 64.476562 19.859375 C 64.230469 20.164062 64.023438 20.492188 63.859375 20.847656 C 63.695312 21.199219 63.578125 21.570312 63.503906 21.953125 C 63.191406 21.957031 62.882812 21.992188 62.578125 22.058594 C 62.273438 22.125 61.976562 22.21875 61.691406 22.34375 C 61.402344 22.464844 61.132812 22.613281 60.875 22.789062 C 60.617188 22.96875 60.378906 23.167969 60.160156 23.390625 C 59.941406 23.613281 59.746094 23.851562 59.574219 24.113281 C 59.402344 24.375 59.257812 24.648438 59.136719 24.9375 C 59.019531 25.226562 58.929688 25.523438 58.871094 25.828125 C 58.808594 26.136719 58.777344 26.445312 58.777344 26.757812 C 58.777344 27.160156 58.699219 27.542969 58.546875 27.914062 C 58.394531 28.285156 58.175781 28.613281 57.890625 28.898438 C 57.605469 29.179688 57.28125 29.398438 56.910156 29.554688 C 56.539062 29.707031 56.152344 29.785156 55.75 29.785156 Z M 66.066406 20.75 C 66.34375 20.472656 66.664062 20.257812 67.023438 20.109375 C 67.386719 19.957031 67.765625 19.882812 68.15625 19.882812 C 68.546875 19.882812 68.925781 19.957031 69.285156 20.109375 C 69.648438 20.257812 69.96875 20.472656 70.246094 20.75 C 70.523438 21.027344 70.738281 21.347656 70.886719 21.707031 C 71.035156 22.070312 71.113281 22.445312 71.113281 22.839844 C 71.113281 23.230469 71.035156 23.609375 70.886719 23.96875 C 70.738281 24.332031 70.523438 24.652344 70.246094 24.929688 C 69.96875 25.207031 69.648438 25.421875 69.285156 25.570312 C 68.925781 25.71875 68.546875 25.796875 68.15625 25.796875 C 67.765625 25.796875 67.386719 25.71875 67.023438 25.570312 C 66.664062 25.421875 66.34375 25.207031 66.066406 24.929688 C 65.785156 24.652344 65.574219 24.332031 65.421875 23.972656 C 65.269531 23.609375 65.195312 23.230469 65.195312 22.839844 C 65.195312 22.445312 65.269531 22.070312 65.421875 21.707031 C 65.574219 21.34375 65.785156 21.027344 66.066406 20.75 Z M 66.066406 20.75 " fill-opacity="1" fill-rule="nonzero"/><path fill="#0071bc" d="M 8.535156 40.988281 C 9.222656 40.304688 9.65625 39.484375 9.835938 38.53125 L 19.570312 38.53125 L 19.570312 36.75 L 9.835938 36.75 C 9.671875 35.890625 9.296875 35.132812 8.710938 34.480469 C 8.128906 33.828125 7.417969 33.371094 6.578125 33.113281 C 5.742188 32.855469 4.894531 32.835938 4.046875 33.046875 C 3.195312 33.257812 2.460938 33.671875 1.839844 34.292969 C 1.621094 34.511719 1.421875 34.75 1.25 35.011719 C 1.078125 35.269531 0.933594 35.542969 0.8125 35.828125 C 0.695312 36.117188 0.605469 36.410156 0.542969 36.714844 C 0.484375 37.023438 0.453125 37.328125 0.453125 37.640625 C 0.453125 37.949219 0.484375 38.257812 0.542969 38.5625 C 0.605469 38.867188 0.695312 39.164062 0.8125 39.453125 C 0.933594 39.738281 1.078125 40.011719 1.25 40.269531 C 1.421875 40.527344 1.621094 40.769531 1.839844 40.988281 C 2.058594 41.207031 2.296875 41.402344 2.554688 41.578125 C 2.816406 41.75 3.085938 41.894531 3.375 42.015625 C 3.664062 42.132812 3.957031 42.222656 4.261719 42.285156 C 4.566406 42.34375 4.875 42.375 5.1875 42.375 C 5.496094 42.375 5.804688 42.34375 6.109375 42.285156 C 6.414062 42.222656 6.710938 42.132812 7 42.015625 C 7.285156 41.894531 7.558594 41.75 7.816406 41.578125 C 8.074219 41.402344 8.316406 41.207031 8.535156 40.988281 Z M 3.097656 35.550781 C 3.375 35.273438 3.691406 35.058594 4.054688 34.910156 C 4.417969 34.757812 4.792969 34.683594 5.1875 34.683594 C 5.578125 34.683594 5.957031 34.757812 6.316406 34.910156 C 6.679688 35.058594 7 35.273438 7.277344 35.550781 C 7.554688 35.828125 7.765625 36.144531 7.917969 36.507812 C 8.066406 36.871094 8.140625 37.246094 8.140625 37.640625 C 8.140625 38.03125 8.066406 38.410156 7.917969 38.769531 C 7.765625 39.132812 7.554688 39.453125 7.277344 39.730469 C 7 40.007812 6.679688 40.222656 6.316406 40.371094 C 5.957031 40.519531 5.578125 40.597656 5.1875 40.597656 C 4.792969 40.597656 4.417969 40.519531 4.054688 40.371094 C 3.691406 40.21875 3.375 40.007812 3.097656 39.730469 C 2.816406 39.453125 2.601562 39.132812 2.453125 38.773438 C 2.300781 38.410156 2.226562 38.03125 2.226562 37.640625 C 2.226562 37.246094 2.300781 36.871094 2.453125 36.507812 C 2.605469 36.148438 2.820312 35.828125 3.097656 35.550781 Z M 3.097656 35.550781 " fill-opacity="1" fill-rule="nonzero"/><path fill="#0071bc" d="M 7.140625 27.574219 C 7.691406 27.574219 8.226562 27.480469 8.742188 27.292969 C 9.261719 27.109375 9.730469 26.839844 10.15625 26.488281 C 10.582031 26.136719 10.933594 25.726562 11.214844 25.253906 C 11.496094 24.78125 11.6875 24.273438 11.789062 23.730469 C 12.183594 23.742188 12.5625 23.828125 12.925781 23.984375 C 13.285156 24.144531 13.605469 24.363281 13.878906 24.644531 C 14.15625 24.929688 14.367188 25.253906 14.515625 25.617188 C 14.664062 25.984375 14.738281 26.363281 14.738281 26.757812 C 14.738281 27.074219 14.769531 27.386719 14.832031 27.695312 C 14.894531 28.003906 14.984375 28.304688 15.105469 28.597656 C 15.226562 28.886719 15.375 29.164062 15.550781 29.425781 C 15.726562 29.6875 15.925781 29.929688 16.148438 30.15625 C 16.371094 30.378906 16.613281 30.578125 16.875 30.753906 C 17.136719 30.925781 17.414062 31.074219 17.707031 31.195312 C 18 31.316406 18.296875 31.410156 18.609375 31.472656 C 18.917969 31.53125 19.230469 31.5625 19.546875 31.566406 L 21.050781 31.566406 L 21.050781 29.785156 L 19.546875 29.785156 C 19.144531 29.785156 18.757812 29.707031 18.386719 29.554688 C 18.015625 29.398438 17.6875 29.179688 17.40625 28.898438 C 17.121094 28.613281 16.902344 28.285156 16.75 27.914062 C 16.59375 27.542969 16.519531 27.160156 16.519531 26.757812 C 16.515625 26.445312 16.488281 26.136719 16.425781 25.828125 C 16.367188 25.523438 16.277344 25.226562 16.15625 24.9375 C 16.039062 24.648438 15.894531 24.375 15.722656 24.113281 C 15.550781 23.851562 15.355469 23.613281 15.136719 23.390625 C 14.917969 23.167969 14.679688 22.96875 14.421875 22.792969 C 14.164062 22.613281 13.890625 22.464844 13.605469 22.34375 C 13.320312 22.21875 13.023438 22.125 12.71875 22.058594 C 12.414062 21.992188 12.105469 21.957031 11.792969 21.953125 C 11.679688 21.363281 11.460938 20.8125 11.140625 20.304688 C 10.816406 19.792969 10.410156 19.363281 9.925781 19.007812 C 9.4375 18.65625 8.902344 18.402344 8.320312 18.253906 C 7.734375 18.101562 7.144531 18.066406 6.546875 18.140625 C 5.949219 18.21875 5.386719 18.398438 4.859375 18.691406 C 4.332031 18.980469 3.875 19.355469 3.492188 19.820312 C 3.109375 20.285156 2.824219 20.800781 2.636719 21.375 C 2.453125 21.949219 2.378906 22.535156 2.414062 23.136719 C 2.453125 23.738281 2.601562 24.308594 2.855469 24.855469 C 3.113281 25.398438 3.460938 25.878906 3.898438 26.289062 C 4.339844 26.703125 4.835938 27.019531 5.398438 27.242188 C 5.957031 27.460938 6.539062 27.574219 7.140625 27.574219 Z M 5.050781 20.75 C 5.328125 20.472656 5.648438 20.257812 6.007812 20.109375 C 6.371094 19.957031 6.75 19.882812 7.140625 19.882812 C 7.53125 19.882812 7.910156 19.957031 8.273438 20.109375 C 8.632812 20.257812 8.953125 20.472656 9.230469 20.75 C 9.507812 21.027344 9.722656 21.347656 9.871094 21.707031 C 10.023438 22.070312 10.097656 22.445312 10.097656 22.839844 C 10.097656 23.230469 10.023438 23.609375 9.871094 23.96875 C 9.722656 24.332031 9.507812 24.652344 9.230469 24.929688 C 8.953125 25.207031 8.632812 25.421875 8.273438 25.570312 C 7.910156 25.71875 7.53125 25.796875 7.140625 25.796875 C 6.75 25.796875 6.371094 25.71875 6.007812 25.570312 C 5.648438 25.421875 5.328125 25.207031 5.050781 24.929688 C 4.773438 24.652344 4.558594 24.332031 4.40625 23.972656 C 4.253906 23.609375 4.179688 23.230469 4.179688 22.839844 C 4.179688 22.445312 4.253906 22.070312 4.40625 21.707031 C 4.558594 21.34375 4.773438 21.027344 5.050781 20.75 Z M 5.050781 20.75 " fill-opacity="1" fill-rule="nonzero"/><path fill="#0071bc" d="M 11.792969 53.328125 C 12.105469 53.324219 12.414062 53.289062 12.71875 53.222656 C 13.023438 53.15625 13.320312 53.0625 13.605469 52.9375 C 13.890625 52.816406 14.164062 52.664062 14.421875 52.488281 C 14.679688 52.3125 14.917969 52.113281 15.136719 51.890625 C 15.355469 51.667969 15.550781 51.425781 15.722656 51.167969 C 15.894531 50.90625 16.039062 50.632812 16.15625 50.34375 C 16.277344 50.054688 16.367188 49.757812 16.425781 49.449219 C 16.488281 49.144531 16.515625 48.835938 16.519531 48.523438 C 16.519531 48.121094 16.59375 47.734375 16.75 47.363281 C 16.902344 46.996094 17.121094 46.667969 17.40625 46.382812 C 17.6875 46.097656 18.015625 45.878906 18.386719 45.726562 C 18.757812 45.570312 19.144531 45.496094 19.546875 45.496094 L 21.199219 45.496094 L 21.199219 43.714844 L 19.546875 43.714844 C 19.230469 43.714844 18.917969 43.746094 18.609375 43.808594 C 18.296875 43.871094 18 43.960938 17.707031 44.082031 C 17.414062 44.203125 17.140625 44.351562 16.875 44.527344 C 16.613281 44.703125 16.371094 44.902344 16.148438 45.125 C 15.925781 45.347656 15.726562 45.59375 15.550781 45.855469 C 15.375 46.117188 15.226562 46.394531 15.105469 46.683594 C 14.984375 46.976562 14.894531 47.277344 14.832031 47.585938 C 14.769531 47.894531 14.738281 48.207031 14.738281 48.523438 C 14.738281 48.917969 14.664062 49.296875 14.515625 49.664062 C 14.367188 50.027344 14.15625 50.351562 13.878906 50.632812 C 13.605469 50.917969 13.285156 51.136719 12.925781 51.292969 C 12.5625 51.453125 12.183594 51.535156 11.789062 51.546875 C 11.71875 51.164062 11.597656 50.796875 11.433594 50.441406 C 11.269531 50.089844 11.0625 49.761719 10.816406 49.457031 C 10.570312 49.152344 10.292969 48.886719 9.980469 48.652344 C 9.667969 48.417969 9.332031 48.226562 8.972656 48.074219 C 8.613281 47.925781 8.238281 47.820312 7.851562 47.761719 C 7.46875 47.703125 7.078125 47.691406 6.691406 47.730469 C 6.304688 47.765625 5.925781 47.847656 5.558594 47.980469 C 5.191406 48.109375 4.84375 48.285156 4.519531 48.5 C 4.195312 48.714844 3.898438 48.96875 3.636719 49.257812 C 3.375 49.546875 3.152344 49.863281 2.96875 50.207031 C 2.785156 50.550781 2.644531 50.914062 2.550781 51.292969 C 2.453125 51.667969 2.40625 52.054688 2.40625 52.445312 C 2.40625 52.835938 2.457031 53.21875 2.550781 53.597656 C 2.648438 53.976562 2.785156 54.335938 2.972656 54.679688 C 3.15625 55.023438 3.378906 55.339844 3.640625 55.628906 C 3.90625 55.917969 4.199219 56.167969 4.523438 56.386719 C 4.847656 56.601562 5.195312 56.773438 5.5625 56.902344 C 5.929688 57.035156 6.308594 57.117188 6.699219 57.152344 C 7.085938 57.191406 7.472656 57.179688 7.859375 57.121094 C 8.246094 57.0625 8.617188 56.957031 8.976562 56.804688 C 9.335938 56.652344 9.671875 56.460938 9.984375 56.226562 C 10.296875 55.992188 10.574219 55.722656 10.820312 55.421875 C 11.066406 55.117188 11.269531 54.789062 11.4375 54.433594 C 11.601562 54.082031 11.71875 53.710938 11.792969 53.328125 Z M 9.230469 54.53125 C 8.953125 54.808594 8.632812 55.023438 8.273438 55.171875 C 7.910156 55.320312 7.535156 55.394531 7.140625 55.394531 C 6.75 55.394531 6.371094 55.320312 6.011719 55.171875 C 5.648438 55.019531 5.328125 54.808594 5.054688 54.53125 C 4.777344 54.253906 4.5625 53.933594 4.414062 53.570312 C 4.261719 53.210938 4.1875 52.832031 4.1875 52.441406 C 4.1875 52.050781 4.261719 51.671875 4.414062 51.3125 C 4.5625 50.949219 4.777344 50.628906 5.054688 50.351562 C 5.328125 50.074219 5.648438 49.863281 6.011719 49.710938 C 6.371094 49.5625 6.75 49.488281 7.140625 49.488281 C 7.535156 49.488281 7.910156 49.5625 8.273438 49.710938 C 8.632812 49.859375 8.953125 50.074219 9.230469 50.351562 C 9.507812 50.628906 9.722656 50.949219 9.871094 51.308594 C 10.019531 51.671875 10.09375 52.050781 10.09375 52.441406 C 10.09375 52.832031 10.019531 53.210938 9.871094 53.570312 C 9.722656 53.933594 9.507812 54.253906 9.230469 54.53125 Z M 9.230469 54.53125 " fill-opacity="1" fill-rule="nonzero"/><path fill="#0071bc" d="M 36.757812 9.828125 L 36.757812 19.5625 L 38.539062 19.5625 L 38.539062 9.828125 C 39.398438 9.664062 40.15625 9.289062 40.808594 8.703125 C 41.460938 8.121094 41.917969 7.410156 42.171875 6.570312 C 42.429688 5.730469 42.453125 4.886719 42.242188 4.039062 C 42.03125 3.1875 41.617188 2.449219 40.996094 1.832031 C 40.777344 1.613281 40.535156 1.414062 40.277344 1.242188 C 40.019531 1.070312 39.746094 0.925781 39.460938 0.804688 C 39.171875 0.6875 38.875 0.597656 38.570312 0.535156 C 38.265625 0.476562 37.960938 0.445312 37.648438 0.445312 C 37.335938 0.445312 37.03125 0.476562 36.722656 0.535156 C 36.417969 0.597656 36.125 0.6875 35.835938 0.804688 C 35.550781 0.925781 35.277344 1.070312 35.019531 1.242188 C 34.757812 1.414062 34.519531 1.613281 34.300781 1.832031 C 34.082031 2.050781 33.882812 2.289062 33.710938 2.546875 C 33.539062 2.808594 33.394531 3.078125 33.273438 3.367188 C 33.15625 3.65625 33.066406 3.949219 33.003906 4.253906 C 32.945312 4.558594 32.914062 4.867188 32.914062 5.179688 C 32.914062 5.488281 32.945312 5.796875 33.003906 6.101562 C 33.066406 6.40625 33.15625 6.703125 33.273438 6.992188 C 33.394531 7.277344 33.539062 7.550781 33.710938 7.808594 C 33.882812 8.066406 34.082031 8.308594 34.300781 8.527344 C 34.984375 9.214844 35.804688 9.648438 36.757812 9.828125 Z M 35.558594 3.089844 C 35.835938 2.8125 36.15625 2.597656 36.519531 2.449219 C 36.878906 2.296875 37.257812 2.222656 37.648438 2.222656 C 38.039062 2.222656 38.417969 2.296875 38.78125 2.449219 C 39.140625 2.597656 39.460938 2.8125 39.738281 3.089844 C 40.015625 3.367188 40.230469 3.6875 40.378906 4.046875 C 40.53125 4.410156 40.605469 4.785156 40.605469 5.179688 C 40.605469 5.570312 40.53125 5.949219 40.378906 6.308594 C 40.230469 6.671875 40.015625 6.992188 39.738281 7.269531 C 39.460938 7.546875 39.140625 7.761719 38.78125 7.910156 C 38.417969 8.058594 38.039062 8.136719 37.648438 8.136719 C 37.257812 8.136719 36.878906 8.058594 36.519531 7.910156 C 36.15625 7.761719 35.835938 7.546875 35.558594 7.269531 C 35.28125 6.992188 35.066406 6.671875 34.914062 6.3125 C 34.765625 5.949219 34.6875 5.570312 34.6875 5.179688 C 34.6875 4.785156 34.765625 4.410156 34.914062 4.046875 C 35.066406 3.683594 35.28125 3.367188 35.558594 3.089844 Z M 35.558594 3.089844 " fill-opacity="1" fill-rule="nonzero"/><path fill="#0071bc" d="M 45.503906 19.539062 C 45.503906 19.136719 45.582031 18.75 45.734375 18.378906 C 45.886719 18.007812 46.105469 17.679688 46.390625 17.398438 C 46.675781 17.113281 47.003906 16.894531 47.371094 16.742188 C 47.742188 16.585938 48.128906 16.511719 48.53125 16.511719 C 48.84375 16.507812 49.152344 16.480469 49.457031 16.417969 C 49.765625 16.359375 50.0625 16.269531 50.351562 16.148438 C 50.640625 16.03125 50.914062 15.886719 51.175781 15.714844 C 51.433594 15.542969 51.675781 15.347656 51.898438 15.128906 C 52.121094 14.910156 52.320312 14.671875 52.496094 14.414062 C 52.671875 14.15625 52.824219 13.882812 52.945312 13.597656 C 53.070312 13.308594 53.164062 13.015625 53.230469 12.710938 C 53.292969 12.40625 53.332031 12.097656 53.335938 11.785156 C 53.71875 11.710938 54.085938 11.59375 54.441406 11.429688 C 54.792969 11.261719 55.121094 11.058594 55.425781 10.8125 C 55.730469 10.566406 55.996094 10.289062 56.230469 9.976562 C 56.464844 9.664062 56.660156 9.328125 56.808594 8.96875 C 56.960938 8.609375 57.066406 8.238281 57.125 7.851562 C 57.183594 7.46875 57.195312 7.082031 57.160156 6.691406 C 57.121094 6.304688 57.039062 5.925781 56.910156 5.558594 C 56.777344 5.191406 56.605469 4.84375 56.390625 4.519531 C 56.175781 4.195312 55.921875 3.902344 55.632812 3.636719 C 55.347656 3.375 55.03125 3.152344 54.6875 2.96875 C 54.34375 2.78125 53.980469 2.644531 53.605469 2.546875 C 53.226562 2.453125 52.839844 2.40625 52.453125 2.40625 C 52.0625 2.40625 51.675781 2.453125 51.300781 2.546875 C 50.921875 2.640625 50.558594 2.78125 50.214844 2.964844 C 49.871094 3.148438 49.554688 3.371094 49.265625 3.632812 C 48.976562 3.898438 48.726562 4.191406 48.511719 4.515625 C 48.292969 4.839844 48.121094 5.183594 47.988281 5.554688 C 47.859375 5.921875 47.777344 6.296875 47.738281 6.6875 C 47.703125 7.074219 47.710938 7.460938 47.769531 7.847656 C 47.828125 8.234375 47.933594 8.605469 48.085938 8.964844 C 48.234375 9.324219 48.429688 9.660156 48.660156 9.972656 C 48.894531 10.285156 49.164062 10.5625 49.464844 10.808594 C 49.769531 11.054688 50.097656 11.261719 50.453125 11.425781 C 50.804688 11.589844 51.171875 11.710938 51.554688 11.78125 C 51.546875 12.175781 51.460938 12.554688 51.304688 12.917969 C 51.144531 13.277344 50.925781 13.597656 50.640625 13.871094 C 50.359375 14.148438 50.035156 14.359375 49.671875 14.507812 C 49.304688 14.65625 48.925781 14.730469 48.53125 14.730469 C 48.214844 14.730469 47.902344 14.761719 47.59375 14.824219 C 47.285156 14.886719 46.984375 14.976562 46.691406 15.097656 C 46.402344 15.21875 46.125 15.367188 45.863281 15.542969 C 45.601562 15.71875 45.355469 15.917969 45.132812 16.140625 C 44.910156 16.363281 44.710938 16.605469 44.535156 16.867188 C 44.359375 17.128906 44.210938 17.40625 44.089844 17.699219 C 43.972656 17.992188 43.878906 18.289062 43.816406 18.601562 C 43.753906 18.910156 43.722656 19.222656 43.722656 19.539062 L 43.722656 21.042969 L 45.503906 21.042969 Z M 50.359375 5.042969 C 50.636719 4.765625 50.957031 4.550781 51.316406 4.402344 C 51.679688 4.25 52.058594 4.175781 52.449219 4.175781 C 52.839844 4.175781 53.21875 4.25 53.582031 4.402344 C 53.941406 4.550781 54.261719 4.765625 54.539062 5.042969 C 54.816406 5.320312 55.03125 5.640625 55.179688 6 C 55.332031 6.363281 55.40625 6.742188 55.40625 7.132812 C 55.40625 7.523438 55.332031 7.902344 55.179688 8.265625 C 55.03125 8.625 54.816406 8.945312 54.539062 9.222656 C 54.261719 9.5 53.941406 9.714844 53.582031 9.863281 C 53.21875 10.015625 52.839844 10.089844 52.449219 10.089844 C 52.058594 10.089844 51.679688 10.015625 51.316406 9.863281 C 50.957031 9.714844 50.636719 9.5 50.359375 9.222656 C 50.082031 8.945312 49.867188 8.625 49.714844 8.265625 C 49.566406 7.902344 49.488281 7.523438 49.488281 7.132812 C 49.488281 6.738281 49.566406 6.363281 49.714844 6 C 49.867188 5.636719 50.082031 5.320312 50.359375 5.042969 Z M 50.359375 5.042969 " fill-opacity="1" fill-rule="nonzero"/><path fill="#0071bc" d="M 21.960938 11.785156 C 21.964844 12.097656 22 12.40625 22.066406 12.710938 C 22.132812 13.015625 22.226562 13.3125 22.351562 13.597656 C 22.472656 13.882812 22.621094 14.15625 22.800781 14.414062 C 22.976562 14.671875 23.175781 14.910156 23.398438 15.128906 C 23.621094 15.347656 23.859375 15.542969 24.121094 15.714844 C 24.382812 15.886719 24.65625 16.03125 24.945312 16.148438 C 25.234375 16.269531 25.53125 16.359375 25.835938 16.417969 C 26.144531 16.480469 26.453125 16.507812 26.765625 16.511719 C 27.167969 16.511719 27.550781 16.585938 27.921875 16.742188 C 28.292969 16.894531 28.621094 17.113281 28.90625 17.398438 C 29.1875 17.679688 29.410156 18.007812 29.5625 18.378906 C 29.714844 18.75 29.792969 19.136719 29.792969 19.539062 L 29.792969 21.191406 L 31.574219 21.191406 L 31.574219 19.539062 C 31.570312 19.222656 31.539062 18.910156 31.480469 18.601562 C 31.417969 18.289062 31.324219 17.992188 31.203125 17.699219 C 31.082031 17.40625 30.933594 17.128906 30.761719 16.867188 C 30.585938 16.605469 30.386719 16.363281 30.164062 16.140625 C 29.9375 15.917969 29.695312 15.71875 29.433594 15.542969 C 29.171875 15.367188 28.894531 15.21875 28.605469 15.097656 C 28.3125 14.976562 28.011719 14.886719 27.703125 14.824219 C 27.394531 14.761719 27.082031 14.730469 26.765625 14.730469 C 26.371094 14.730469 25.992188 14.65625 25.625 14.507812 C 25.261719 14.359375 24.9375 14.144531 24.65625 13.871094 C 24.371094 13.597656 24.152344 13.277344 23.992188 12.917969 C 23.835938 12.554688 23.75 12.175781 23.742188 11.78125 C 24.125 11.710938 24.492188 11.589844 24.847656 11.425781 C 25.199219 11.261719 25.527344 11.054688 25.832031 10.808594 C 26.132812 10.5625 26.402344 10.285156 26.636719 9.972656 C 26.871094 9.660156 27.0625 9.324219 27.214844 8.964844 C 27.367188 8.601562 27.46875 8.230469 27.527344 7.84375 C 27.585938 7.457031 27.597656 7.070312 27.5625 6.683594 C 27.523438 6.292969 27.441406 5.917969 27.308594 5.546875 C 27.179688 5.179688 27.003906 4.835938 26.789062 4.507812 C 26.574219 4.183594 26.320312 3.890625 26.03125 3.628906 C 25.742188 3.367188 25.425781 3.144531 25.082031 2.957031 C 24.738281 2.773438 24.375 2.636719 24 2.539062 C 23.621094 2.445312 23.234375 2.398438 22.84375 2.398438 C 22.453125 2.398438 22.070312 2.445312 21.691406 2.542969 C 21.3125 2.636719 20.953125 2.777344 20.609375 2.960938 C 20.265625 3.144531 19.949219 3.371094 19.660156 3.632812 C 19.371094 3.894531 19.121094 4.1875 18.902344 4.515625 C 18.6875 4.839844 18.515625 5.1875 18.382812 5.554688 C 18.253906 5.921875 18.171875 6.300781 18.132812 6.6875 C 18.097656 7.078125 18.109375 7.464844 18.167969 7.851562 C 18.226562 8.234375 18.332031 8.609375 18.484375 8.96875 C 18.632812 9.328125 18.828125 9.664062 19.0625 9.976562 C 19.296875 10.289062 19.566406 10.566406 19.867188 10.8125 C 20.171875 11.058594 20.5 11.261719 20.855469 11.425781 C 21.207031 11.59375 21.578125 11.710938 21.960938 11.785156 Z M 20.757812 5.042969 C 21.035156 4.765625 21.355469 4.550781 21.714844 4.402344 C 22.078125 4.25 22.457031 4.175781 22.847656 4.175781 C 23.238281 4.175781 23.617188 4.25 23.976562 4.402344 C 24.339844 4.550781 24.660156 4.765625 24.9375 5.042969 C 25.214844 5.320312 25.429688 5.640625 25.578125 6 C 25.726562 6.363281 25.804688 6.742188 25.804688 7.132812 C 25.804688 7.523438 25.726562 7.902344 25.578125 8.265625 C 25.429688 8.625 25.214844 8.945312 24.9375 9.222656 C 24.660156 9.5 24.339844 9.714844 23.976562 9.863281 C 23.617188 10.015625 23.238281 10.089844 22.847656 10.089844 C 22.457031 10.089844 22.078125 10.015625 21.714844 9.863281 C 21.355469 9.714844 21.035156 9.5 20.757812 9.222656 C 20.480469 8.945312 20.265625 8.625 20.113281 8.265625 C 19.960938 7.902344 19.886719 7.523438 19.886719 7.132812 C 19.886719 6.738281 19.960938 6.363281 20.113281 6 C 20.265625 5.636719 20.480469 5.320312 20.757812 5.042969 Z M 20.757812 5.042969 " fill-opacity="1" fill-rule="nonzero"/><path fill="#0071bc" d="M 37.648438 74.835938 C 38.238281 74.835938 38.804688 74.730469 39.355469 74.515625 C 39.90625 74.304688 40.398438 74 40.832031 73.601562 C 41.269531 73.207031 41.617188 72.746094 41.882812 72.21875 C 42.144531 71.691406 42.304688 71.132812 42.359375 70.546875 C 42.417969 69.960938 42.363281 69.382812 42.203125 68.816406 C 42.042969 68.25 41.789062 67.730469 41.433594 67.261719 C 41.082031 66.789062 40.65625 66.398438 40.15625 66.085938 C 39.65625 65.773438 39.117188 65.5625 38.539062 65.449219 L 38.539062 55.71875 L 36.757812 55.71875 L 36.757812 65.449219 C 36.179688 65.5625 35.640625 65.773438 35.140625 66.085938 C 34.640625 66.398438 34.214844 66.789062 33.859375 67.257812 C 33.507812 67.730469 33.25 68.25 33.089844 68.816406 C 32.929688 69.382812 32.878906 69.960938 32.933594 70.546875 C 32.988281 71.132812 33.148438 71.691406 33.414062 72.21875 C 33.675781 72.746094 34.027344 73.207031 34.460938 73.605469 C 34.898438 74 35.390625 74.304688 35.941406 74.515625 C 36.488281 74.730469 37.058594 74.835938 37.648438 74.835938 Z M 35.558594 68.011719 C 35.835938 67.734375 36.15625 67.519531 36.519531 67.371094 C 36.878906 67.21875 37.257812 67.144531 37.648438 67.144531 C 38.039062 67.144531 38.417969 67.21875 38.78125 67.371094 C 39.140625 67.519531 39.460938 67.734375 39.738281 68.011719 C 40.015625 68.289062 40.230469 68.609375 40.378906 68.96875 C 40.53125 69.332031 40.605469 69.710938 40.605469 70.101562 C 40.605469 70.492188 40.53125 70.871094 40.378906 71.234375 C 40.230469 71.59375 40.015625 71.914062 39.738281 72.191406 C 39.460938 72.46875 39.140625 72.683594 38.78125 72.832031 C 38.417969 72.984375 38.039062 73.058594 37.648438 73.058594 C 37.257812 73.058594 36.878906 72.984375 36.519531 72.832031 C 36.15625 72.683594 35.835938 72.46875 35.558594 72.191406 C 35.28125 71.914062 35.066406 71.597656 34.914062 71.234375 C 34.765625 70.871094 34.6875 70.492188 34.6875 70.101562 C 34.6875 69.710938 34.765625 69.332031 34.914062 68.96875 C 35.066406 68.605469 35.28125 68.289062 35.558594 68.011719 Z M 35.558594 68.011719 " fill-opacity="1" fill-rule="nonzero"/><path fill="#0071bc" d="M 26.765625 60.546875 C 27.082031 60.546875 27.394531 60.515625 27.703125 60.457031 C 28.011719 60.394531 28.3125 60.300781 28.605469 60.183594 C 28.894531 60.0625 29.171875 59.914062 29.433594 59.738281 C 29.695312 59.5625 29.9375 59.363281 30.164062 59.140625 C 30.386719 58.917969 30.585938 58.675781 30.761719 58.410156 C 30.933594 58.148438 31.082031 57.871094 31.203125 57.582031 C 31.324219 57.289062 31.417969 56.988281 31.480469 56.679688 C 31.539062 56.371094 31.570312 56.058594 31.574219 55.742188 L 31.574219 54.238281 L 29.792969 54.238281 L 29.792969 55.742188 C 29.792969 56.144531 29.714844 56.53125 29.5625 56.902344 C 29.410156 57.273438 29.1875 57.597656 28.90625 57.882812 C 28.621094 58.167969 28.292969 58.386719 27.921875 58.539062 C 27.550781 58.691406 27.167969 58.769531 26.765625 58.769531 C 26.453125 58.769531 26.144531 58.800781 25.835938 58.863281 C 25.53125 58.921875 25.234375 59.011719 24.945312 59.128906 C 24.65625 59.25 24.382812 59.394531 24.121094 59.566406 C 23.859375 59.738281 23.621094 59.933594 23.398438 60.152344 C 23.175781 60.371094 22.976562 60.609375 22.800781 60.867188 C 22.625 61.125 22.472656 61.394531 22.351562 61.683594 C 22.226562 61.96875 22.132812 62.265625 22.066406 62.570312 C 22 62.875 21.964844 63.183594 21.960938 63.496094 C 21.578125 63.570312 21.210938 63.6875 20.855469 63.851562 C 20.503906 64.015625 20.175781 64.222656 19.871094 64.46875 C 19.566406 64.710938 19.300781 64.992188 19.066406 65.304688 C 18.832031 65.613281 18.636719 65.949219 18.488281 66.308594 C 18.335938 66.667969 18.230469 67.042969 18.171875 67.425781 C 18.113281 67.8125 18.101562 68.199219 18.140625 68.585938 C 18.175781 68.976562 18.257812 69.351562 18.390625 69.722656 C 18.519531 70.089844 18.691406 70.433594 18.90625 70.757812 C 19.121094 71.085938 19.375 71.378906 19.664062 71.640625 C 19.953125 71.902344 20.265625 72.125 20.609375 72.3125 C 20.953125 72.496094 21.316406 72.636719 21.695312 72.730469 C 22.070312 72.824219 22.457031 72.875 22.84375 72.875 C 23.234375 72.875 23.621094 72.828125 23.996094 72.730469 C 24.375 72.636719 24.738281 72.496094 25.082031 72.3125 C 25.425781 72.128906 25.742188 71.90625 26.027344 71.644531 C 26.316406 71.382812 26.570312 71.089844 26.785156 70.765625 C 27.003906 70.441406 27.175781 70.09375 27.304688 69.726562 C 27.4375 69.359375 27.519531 68.980469 27.558594 68.59375 C 27.59375 68.203125 27.582031 67.816406 27.523438 67.433594 C 27.464844 67.046875 27.363281 66.675781 27.210938 66.316406 C 27.058594 65.957031 26.867188 65.621094 26.632812 65.308594 C 26.402344 64.996094 26.132812 64.714844 25.828125 64.46875 C 25.527344 64.226562 25.199219 64.019531 24.84375 63.855469 C 24.492188 63.691406 24.125 63.570312 23.742188 63.496094 C 23.75 63.101562 23.835938 62.726562 23.992188 62.363281 C 24.152344 62.003906 24.371094 61.683594 24.65625 61.410156 C 24.9375 61.132812 25.261719 60.921875 25.625 60.773438 C 25.992188 60.625 26.371094 60.550781 26.765625 60.546875 Z M 24.9375 70.238281 C 24.660156 70.515625 24.339844 70.726562 23.980469 70.878906 C 23.617188 71.027344 23.238281 71.101562 22.847656 71.101562 C 22.457031 71.101562 22.078125 71.027344 21.71875 70.878906 C 21.355469 70.726562 21.035156 70.515625 20.757812 70.238281 C 20.480469 69.960938 20.269531 69.640625 20.117188 69.277344 C 19.96875 68.917969 19.894531 68.539062 19.894531 68.148438 C 19.894531 67.757812 19.96875 67.378906 20.117188 67.015625 C 20.269531 66.65625 20.480469 66.335938 20.757812 66.058594 C 21.035156 65.78125 21.355469 65.566406 21.71875 65.417969 C 22.078125 65.269531 22.457031 65.191406 22.847656 65.191406 C 23.238281 65.191406 23.617188 65.269531 23.980469 65.417969 C 24.339844 65.566406 24.660156 65.78125 24.9375 66.058594 C 25.214844 66.335938 25.425781 66.65625 25.578125 67.015625 C 25.726562 67.378906 25.800781 67.757812 25.800781 68.148438 C 25.800781 68.539062 25.726562 68.917969 25.578125 69.277344 C 25.425781 69.640625 25.214844 69.960938 24.9375 70.238281 Z M 24.9375 70.238281 " fill-opacity="1" fill-rule="nonzero"/><path fill="#0071bc" d="M 48.53125 60.546875 C 48.925781 60.550781 49.304688 60.625 49.671875 60.773438 C 50.035156 60.921875 50.359375 61.132812 50.640625 61.410156 C 50.925781 61.683594 51.144531 62.003906 51.300781 62.363281 C 51.460938 62.726562 51.542969 63.101562 51.554688 63.496094 C 51.171875 63.570312 50.804688 63.691406 50.449219 63.855469 C 50.097656 64.019531 49.769531 64.226562 49.464844 64.472656 C 49.160156 64.71875 48.894531 64.996094 48.660156 65.308594 C 48.425781 65.621094 48.234375 65.957031 48.082031 66.316406 C 47.929688 66.675781 47.828125 67.050781 47.769531 67.4375 C 47.710938 67.820312 47.699219 68.207031 47.734375 68.597656 C 47.773438 68.984375 47.855469 69.363281 47.988281 69.730469 C 48.117188 70.097656 48.289062 70.445312 48.507812 70.769531 C 48.722656 71.09375 48.976562 71.390625 49.265625 71.652344 C 49.554688 71.914062 49.871094 72.136719 50.214844 72.320312 C 50.558594 72.503906 50.917969 72.644531 51.296875 72.738281 C 51.675781 72.835938 52.0625 72.882812 52.453125 72.882812 C 52.839844 72.882812 53.226562 72.835938 53.605469 72.738281 C 53.984375 72.644531 54.34375 72.503906 54.6875 72.320312 C 55.03125 72.132812 55.347656 71.910156 55.636719 71.648438 C 55.925781 71.386719 56.175781 71.089844 56.394531 70.765625 C 56.609375 70.441406 56.78125 70.09375 56.910156 69.726562 C 57.042969 69.359375 57.125 68.980469 57.164062 68.59375 C 57.199219 68.203125 57.1875 67.816406 57.128906 67.429688 C 57.070312 67.042969 56.964844 66.671875 56.8125 66.3125 C 56.660156 65.953125 56.46875 65.617188 56.234375 65.304688 C 56 64.992188 55.730469 64.714844 55.429688 64.46875 C 55.125 64.222656 54.796875 64.015625 54.441406 63.851562 C 54.089844 63.6875 53.71875 63.570312 53.335938 63.496094 C 53.332031 63.183594 53.296875 62.875 53.230469 62.570312 C 53.164062 62.265625 53.070312 61.96875 52.945312 61.683594 C 52.824219 61.394531 52.671875 61.125 52.496094 60.867188 C 52.320312 60.609375 52.121094 60.371094 51.898438 60.152344 C 51.675781 59.933594 51.433594 59.738281 51.175781 59.566406 C 50.914062 59.394531 50.640625 59.25 50.351562 59.128906 C 50.0625 59.011719 49.765625 58.921875 49.457031 58.863281 C 49.152344 58.800781 48.84375 58.769531 48.53125 58.769531 C 48.128906 58.769531 47.742188 58.691406 47.371094 58.539062 C 47.003906 58.386719 46.675781 58.167969 46.390625 57.882812 C 46.105469 57.597656 45.886719 57.273438 45.734375 56.902344 C 45.582031 56.53125 45.503906 56.144531 45.503906 55.742188 L 45.503906 54.089844 L 43.722656 54.089844 L 43.722656 55.742188 C 43.722656 56.058594 43.753906 56.371094 43.816406 56.679688 C 43.878906 56.988281 43.972656 57.289062 44.089844 57.582031 C 44.210938 57.871094 44.359375 58.148438 44.535156 58.410156 C 44.710938 58.675781 44.910156 58.917969 45.132812 59.140625 C 45.355469 59.363281 45.601562 59.5625 45.863281 59.738281 C 46.125 59.914062 46.402344 60.0625 46.691406 60.183594 C 46.984375 60.300781 47.285156 60.394531 47.59375 60.457031 C 47.902344 60.515625 48.214844 60.546875 48.53125 60.546875 Z M 54.539062 70.238281 C 54.261719 70.515625 53.941406 70.726562 53.582031 70.878906 C 53.21875 71.027344 52.84375 71.101562 52.449219 71.101562 C 52.058594 71.101562 51.679688 71.027344 51.320312 70.878906 C 50.957031 70.726562 50.636719 70.515625 50.359375 70.238281 C 50.085938 69.960938 49.871094 69.640625 49.722656 69.277344 C 49.570312 68.917969 49.496094 68.539062 49.496094 68.148438 C 49.496094 67.757812 49.570312 67.378906 49.722656 67.015625 C 49.871094 66.65625 50.085938 66.335938 50.359375 66.058594 C 50.636719 65.78125 50.957031 65.566406 51.320312 65.417969 C 51.679688 65.269531 52.058594 65.191406 52.449219 65.191406 C 52.84375 65.191406 53.21875 65.269531 53.582031 65.417969 C 53.941406 65.566406 54.261719 65.78125 54.539062 66.058594 C 54.816406 66.335938 55.03125 66.65625 55.179688 67.015625 C 55.328125 67.378906 55.402344 67.757812 55.402344 68.148438 C 55.402344 68.539062 55.328125 68.917969 55.179688 69.277344 C 55.03125 69.640625 54.816406 69.960938 54.539062 70.238281 Z M 54.539062 70.238281 " fill-opacity="1" fill-rule="nonzero"/><path fill="#2b3990" d="M 32.3125 28.453125 L 31.734375 28.453125 C 31.304688 28.449219 30.886719 28.53125 30.488281 28.691406 C 30.089844 28.855469 29.734375 29.085938 29.429688 29.390625 C 29.121094 29.695312 28.882812 30.042969 28.714844 30.441406 C 28.546875 30.839844 28.464844 31.253906 28.460938 31.683594 L 28.460938 32.304688 L 25.953125 32.304688 C 25.707031 32.304688 25.496094 32.390625 25.324219 32.566406 C 25.148438 32.738281 25.0625 32.949219 25.0625 33.195312 C 25.0625 33.441406 25.148438 33.648438 25.324219 33.824219 C 25.496094 33.996094 25.707031 34.082031 25.953125 34.082031 L 28.460938 34.082031 L 28.460938 36.75 L 25.953125 36.75 C 25.707031 36.75 25.496094 36.839844 25.324219 37.011719 C 25.148438 37.183594 25.0625 37.394531 25.0625 37.640625 C 25.0625 37.886719 25.148438 38.09375 25.324219 38.269531 C 25.496094 38.441406 25.707031 38.53125 25.953125 38.53125 L 28.460938 38.53125 L 28.460938 41.195312 L 25.953125 41.195312 C 25.707031 41.195312 25.496094 41.285156 25.324219 41.457031 C 25.148438 41.628906 25.0625 41.839844 25.0625 42.085938 C 25.0625 42.332031 25.148438 42.542969 25.324219 42.714844 C 25.496094 42.886719 25.707031 42.976562 25.953125 42.976562 L 28.460938 42.976562 L 28.460938 43.59375 C 28.464844 44.027344 28.546875 44.441406 28.714844 44.839844 C 28.882812 45.238281 29.121094 45.585938 29.429688 45.890625 C 29.734375 46.191406 30.089844 46.425781 30.488281 46.589844 C 30.886719 46.75 31.304688 46.832031 31.734375 46.828125 L 32.3125 46.828125 L 32.3125 49.378906 C 32.3125 49.625 32.398438 49.835938 32.574219 50.007812 C 32.746094 50.179688 32.957031 50.269531 33.203125 50.269531 C 33.449219 50.269531 33.65625 50.179688 33.832031 50.007812 C 34.003906 49.835938 34.089844 49.625 34.089844 49.378906 L 34.089844 46.828125 L 36.757812 46.828125 L 36.757812 49.378906 C 36.757812 49.625 36.847656 49.835938 37.019531 50.007812 C 37.191406 50.179688 37.402344 50.269531 37.648438 50.269531 C 37.894531 50.269531 38.101562 50.179688 38.277344 50.007812 C 38.449219 49.835938 38.539062 49.625 38.539062 49.378906 L 38.539062 46.828125 L 41.203125 46.828125 L 41.203125 49.378906 C 41.203125 49.625 41.292969 49.835938 41.464844 50.007812 C 41.640625 50.179688 41.847656 50.269531 42.09375 50.269531 C 42.339844 50.269531 42.550781 50.179688 42.722656 50.007812 C 42.894531 49.835938 42.984375 49.625 42.984375 49.378906 L 42.984375 46.828125 L 43.644531 46.828125 C 44.074219 46.828125 44.484375 46.746094 44.878906 46.582031 C 45.273438 46.417969 45.617188 46.183594 45.917969 45.882812 C 46.21875 45.578125 46.449219 45.226562 46.609375 44.832031 C 46.765625 44.433594 46.84375 44.023438 46.835938 43.59375 L 46.835938 42.976562 L 49.429688 42.976562 C 49.675781 42.976562 49.882812 42.886719 50.058594 42.714844 C 50.230469 42.542969 50.320312 42.332031 50.320312 42.085938 C 50.320312 41.839844 50.230469 41.628906 50.058594 41.457031 C 49.882812 41.285156 49.675781 41.195312 49.429688 41.195312 L 46.835938 41.195312 L 46.835938 38.53125 L 49.429688 38.53125 C 49.675781 38.53125 49.882812 38.441406 50.058594 38.269531 C 50.230469 38.09375 50.320312 37.886719 50.320312 37.640625 C 50.320312 37.394531 50.230469 37.183594 50.058594 37.011719 C 49.882812 36.839844 49.675781 36.75 49.429688 36.75 L 46.835938 36.75 L 46.835938 34.082031 L 49.429688 34.082031 C 49.675781 34.082031 49.882812 33.996094 50.058594 33.824219 C 50.230469 33.648438 50.320312 33.441406 50.320312 33.195312 C 50.320312 32.949219 50.230469 32.738281 50.058594 32.566406 C 49.882812 32.390625 49.675781 32.304688 49.429688 32.304688 L 46.835938 32.304688 L 46.835938 31.683594 C 46.84375 31.257812 46.765625 30.847656 46.609375 30.449219 C 46.449219 30.054688 46.21875 29.703125 45.917969 29.398438 C 45.617188 29.09375 45.273438 28.859375 44.878906 28.695312 C 44.484375 28.53125 44.074219 28.453125 43.644531 28.453125 L 42.984375 28.453125 L 42.984375 25.902344 C 42.984375 25.65625 42.894531 25.445312 42.722656 25.273438 C 42.550781 25.097656 42.339844 25.011719 42.09375 25.011719 C 41.847656 25.011719 41.640625 25.097656 41.464844 25.273438 C 41.292969 25.445312 41.203125 25.65625 41.203125 25.902344 L 41.203125 28.453125 L 38.539062 28.453125 L 38.539062 25.902344 C 38.539062 25.65625 38.449219 25.445312 38.277344 25.273438 C 38.101562 25.097656 37.894531 25.011719 37.648438 25.011719 C 37.402344 25.011719 37.191406 25.097656 37.019531 25.273438 C 36.847656 25.445312 36.757812 25.65625 36.757812 25.902344 L 36.757812 28.453125 L 34.089844 28.453125 L 34.089844 25.902344 C 34.089844 25.65625 34.003906 25.445312 33.832031 25.273438 C 33.65625 25.097656 33.449219 25.011719 33.203125 25.011719 C 32.957031 25.011719 32.746094 25.097656 32.574219 25.273438 C 32.398438 25.445312 32.3125 25.65625 32.3125 25.902344 Z M 45.058594 43.566406 C 45.058594 43.765625 45.019531 43.953125 44.945312 44.136719 C 44.871094 44.316406 44.761719 44.476562 44.625 44.617188 C 44.484375 44.753906 44.324219 44.863281 44.144531 44.9375 C 43.960938 45.011719 43.773438 45.050781 43.574219 45.050781 L 31.71875 45.050781 C 31.523438 45.050781 31.335938 45.011719 31.152344 44.9375 C 30.972656 44.863281 30.8125 44.753906 30.671875 44.617188 C 30.535156 44.476562 30.425781 44.316406 30.351562 44.136719 C 30.277344 43.953125 30.238281 43.765625 30.238281 43.566406 L 30.238281 31.710938 C 30.238281 31.515625 30.277344 31.328125 30.351562 31.144531 C 30.425781 30.964844 30.535156 30.804688 30.671875 30.664062 C 30.8125 30.527344 30.972656 30.417969 31.152344 30.34375 C 31.335938 30.269531 31.523438 30.230469 31.71875 30.230469 L 43.574219 30.230469 C 43.773438 30.230469 43.960938 30.269531 44.144531 30.34375 C 44.324219 30.417969 44.484375 30.527344 44.625 30.664062 C 44.761719 30.804688 44.871094 30.964844 44.945312 31.144531 C 45.019531 31.328125 45.058594 31.515625 45.058594 31.710938 Z M 45.058594 43.566406 " fill-opacity="1" fill-rule="nonzero"/><path fill="#2b3990" d="M 44.019531 32.15625 C 44.019531 31.910156 43.933594 31.703125 43.761719 31.527344 C 43.585938 31.355469 43.375 31.269531 43.132812 31.269531 L 32.164062 31.269531 C 31.917969 31.269531 31.710938 31.355469 31.535156 31.527344 C 31.363281 31.703125 31.277344 31.910156 31.277344 32.15625 L 31.277344 43.125 C 31.277344 43.367188 31.363281 43.578125 31.535156 43.753906 C 31.710938 43.925781 31.917969 44.011719 32.164062 44.011719 L 43.132812 44.011719 C 43.375 44.011719 43.585938 43.925781 43.761719 43.753906 C 43.933594 43.578125 44.019531 43.367188 44.019531 43.125 Z M 33.054688 33.046875 L 42.242188 33.046875 L 42.242188 42.234375 L 33.054688 42.234375 Z M 33.054688 33.046875 " fill-opacity="1" fill-rule="nonzero"/><path fill="#2b3990" d="M 41.351562 34.824219 C 41.351562 34.578125 41.265625 34.371094 41.09375 34.195312 C 40.917969 34.023438 40.710938 33.933594 40.464844 33.933594 L 34.980469 33.933594 C 34.734375 33.933594 34.527344 34.023438 34.351562 34.195312 C 34.179688 34.371094 34.089844 34.578125 34.089844 34.824219 L 34.089844 40.308594 C 34.089844 40.554688 34.179688 40.761719 34.351562 40.9375 C 34.527344 41.109375 34.734375 41.195312 34.980469 41.195312 L 40.464844 41.195312 C 40.710938 41.195312 40.917969 41.109375 41.09375 40.9375 C 41.265625 40.761719 41.351562 40.554688 41.351562 40.308594 Z M 39.574219 39.566406 L 35.871094 39.566406 L 35.871094 35.714844 L 39.574219 35.714844 Z M 39.574219 39.566406 " fill-opacity="1" fill-rule="nonzero"/><path fill="#2b3990" d="M 35.816406 56.367188 C 36.445312 56.429688 37.074219 56.460938 37.699219 56.460938 C 38.105469 56.460938 38.507812 56.449219 38.914062 56.421875 C 39.316406 56.394531 39.71875 56.355469 40.121094 56.304688 C 40.523438 56.25 40.921875 56.1875 41.320312 56.109375 C 41.71875 56.03125 42.113281 55.9375 42.503906 55.835938 C 42.894531 55.730469 43.285156 55.617188 43.667969 55.488281 C 44.050781 55.359375 44.429688 55.21875 44.808594 55.066406 C 45.183594 54.914062 45.550781 54.746094 45.917969 54.570312 C 46.28125 54.394531 46.640625 54.207031 46.992188 54.003906 C 47.34375 53.804688 47.6875 53.59375 48.027344 53.371094 C 48.367188 53.152344 48.699219 52.917969 49.023438 52.675781 C 49.34375 52.429688 49.660156 52.175781 49.96875 51.914062 C 50.277344 51.648438 50.574219 51.375 50.863281 51.09375 C 51.152344 50.808594 51.433594 50.519531 51.707031 50.21875 C 51.976562 49.914062 52.238281 49.605469 52.488281 49.289062 C 52.738281 48.96875 52.980469 48.644531 53.210938 48.3125 C 53.441406 47.976562 53.660156 47.636719 53.867188 47.289062 C 54.074219 46.941406 54.273438 46.589844 54.457031 46.226562 C 54.644531 45.867188 54.816406 45.503906 54.976562 45.132812 C 55.140625 44.757812 55.289062 44.382812 55.425781 44.003906 C 55.566406 43.621094 55.691406 43.234375 55.800781 42.847656 C 55.914062 42.457031 56.015625 42.066406 56.101562 41.671875 C 56.191406 41.273438 56.265625 40.875 56.328125 40.476562 C 56.386719 40.074219 56.4375 39.675781 56.472656 39.269531 C 56.507812 38.867188 56.53125 38.460938 56.542969 38.058594 C 56.550781 37.652344 56.546875 37.246094 56.53125 36.84375 C 56.515625 36.4375 56.488281 36.035156 56.445312 35.632812 C 56.402344 35.230469 56.347656 34.828125 56.277344 34.429688 C 56.210938 34.027344 56.128906 33.632812 56.035156 33.238281 C 55.941406 32.84375 55.835938 32.453125 55.71875 32.066406 C 55.597656 31.679688 55.46875 31.296875 55.324219 30.917969 C 55.179688 30.539062 55.023438 30.164062 54.855469 29.796875 C 54.691406 29.425781 54.511719 29.0625 54.320312 28.707031 C 54.128906 28.347656 53.925781 28 53.710938 27.65625 C 53.5 27.308594 53.273438 26.972656 53.039062 26.644531 C 52.804688 26.3125 52.558594 25.992188 52.300781 25.679688 C 52.046875 25.363281 51.78125 25.058594 51.503906 24.761719 C 51.230469 24.464844 50.945312 24.175781 50.648438 23.898438 C 50.355469 23.621094 50.050781 23.351562 49.742188 23.09375 C 49.429688 22.835938 49.109375 22.585938 48.78125 22.347656 C 48.453125 22.109375 48.121094 21.882812 47.777344 21.664062 C 47.433594 21.449219 47.085938 21.242188 46.730469 21.046875 C 46.375 20.855469 46.015625 20.671875 45.648438 20.5 C 45.28125 20.328125 44.90625 20.171875 44.53125 20.023438 C 44.152344 19.875 43.769531 19.742188 43.382812 19.621094 C 43 19.496094 42.609375 19.386719 42.214844 19.289062 C 41.820312 19.191406 41.425781 19.109375 41.027344 19.035156 C 40.628906 18.964844 40.226562 18.90625 39.824219 18.859375 C 39.421875 18.8125 39.019531 18.78125 38.613281 18.761719 C 38.210938 18.742188 37.804688 18.734375 37.402344 18.738281 C 36.996094 18.746094 36.589844 18.765625 36.1875 18.796875 C 35.785156 18.828125 35.382812 18.875 34.980469 18.933594 C 34.578125 18.992188 34.179688 19.0625 33.785156 19.144531 C 33.386719 19.230469 32.996094 19.328125 32.605469 19.433594 C 32.214844 19.542969 31.828125 19.667969 31.445312 19.800781 C 31.0625 19.933594 30.6875 20.082031 30.3125 20.238281 C 29.941406 20.398438 29.574219 20.566406 29.210938 20.75 C 28.847656 20.929688 28.492188 21.125 28.144531 21.328125 C 27.792969 21.535156 27.453125 21.75 27.117188 21.976562 C 26.78125 22.203125 26.453125 22.441406 26.132812 22.691406 C 25.8125 22.9375 25.5 23.195312 25.199219 23.464844 C 24.894531 23.734375 24.597656 24.011719 24.3125 24.296875 C 24.027344 24.585938 23.75 24.882812 23.484375 25.1875 C 23.21875 25.492188 22.960938 25.804688 22.714844 26.125 C 22.46875 26.449219 22.234375 26.777344 22.007812 27.113281 C 21.78125 27.449219 21.570312 27.792969 21.367188 28.144531 C 21.164062 28.496094 20.972656 28.851562 20.789062 29.214844 C 20.609375 29.578125 20.441406 29.945312 20.285156 30.320312 C 20.128906 30.691406 19.984375 31.070312 19.855469 31.453125 C 19.722656 31.835938 19.601562 32.222656 19.496094 32.613281 C 19.386719 33.003906 19.292969 33.398438 19.210938 33.796875 C 19.128906 34.191406 19.0625 34.589844 19.003906 34.992188 C 18.949219 35.394531 18.90625 35.796875 18.875 36.199219 C 18.847656 36.605469 18.828125 37.007812 18.824219 37.414062 C 18.820312 37.820312 18.832031 38.222656 18.851562 38.628906 C 18.875 39.03125 18.910156 39.4375 18.957031 39.839844 C 19.007812 40.242188 19.066406 40.640625 19.140625 41.039062 C 19.214844 41.4375 19.300781 41.832031 19.402344 42.226562 C 19.5 42.617188 19.613281 43.007812 19.734375 43.394531 C 19.859375 43.777344 19.996094 44.160156 20.144531 44.535156 C 20.296875 44.914062 20.457031 45.285156 20.628906 45.652344 C 20.800781 46.015625 20.988281 46.378906 21.183594 46.730469 C 21.378906 47.085938 21.585938 47.433594 21.804688 47.773438 C 22.023438 48.117188 22.253906 48.449219 22.492188 48.777344 C 22.734375 49.101562 22.984375 49.421875 23.242188 49.730469 C 23.503906 50.042969 23.773438 50.34375 24.054688 50.636719 C 24.335938 50.929688 24.625 51.210938 24.921875 51.484375 C 25.21875 51.761719 25.527344 52.023438 25.84375 52.277344 C 26.15625 52.53125 26.480469 52.777344 26.8125 53.011719 C 27.140625 53.242188 27.480469 53.464844 27.824219 53.679688 C 28.171875 53.890625 28.523438 54.089844 28.882812 54.28125 C 29.238281 54.46875 29.601562 54.644531 29.972656 54.8125 C 30.34375 54.976562 30.71875 55.132812 31.097656 55.273438 C 31.476562 55.414062 31.859375 55.542969 32.25 55.660156 C 32.636719 55.777344 33.027344 55.882812 33.421875 55.972656 C 33.816406 56.0625 34.214844 56.144531 34.613281 56.210938 C 35.011719 56.273438 35.414062 56.328125 35.816406 56.367188 Z M 20.707031 35.96875 C 20.808594 34.925781 21.007812 33.902344 21.296875 32.894531 C 21.589844 31.890625 21.96875 30.917969 22.441406 29.984375 C 22.910156 29.046875 23.464844 28.164062 24.097656 27.332031 C 24.730469 26.496094 25.433594 25.726562 26.210938 25.023438 C 26.984375 24.320312 27.820312 23.691406 28.710938 23.140625 C 29.601562 22.59375 30.535156 22.128906 31.511719 21.75 C 32.488281 21.371094 33.488281 21.085938 34.519531 20.890625 C 35.546875 20.699219 36.585938 20.601562 37.632812 20.597656 C 38.199219 20.597656 38.765625 20.625 39.335938 20.683594 C 39.894531 20.738281 40.445312 20.820312 40.992188 20.929688 C 41.539062 21.035156 42.078125 21.171875 42.613281 21.335938 C 43.148438 21.496094 43.671875 21.683594 44.1875 21.898438 C 44.703125 22.113281 45.207031 22.351562 45.699219 22.613281 C 46.191406 22.875 46.671875 23.164062 47.132812 23.472656 C 47.597656 23.785156 48.046875 24.117188 48.476562 24.46875 C 48.910156 24.824219 49.320312 25.199219 49.714844 25.59375 C 50.109375 25.988281 50.484375 26.398438 50.839844 26.832031 C 51.191406 27.261719 51.523438 27.710938 51.835938 28.175781 C 52.144531 28.640625 52.433594 29.117188 52.695312 29.609375 C 52.957031 30.101562 53.195312 30.605469 53.410156 31.121094 C 53.621094 31.636719 53.8125 32.160156 53.972656 32.695312 C 54.132812 33.230469 54.269531 33.769531 54.378906 34.316406 C 54.488281 34.867188 54.570312 35.417969 54.625 35.972656 C 54.679688 36.527344 54.707031 37.085938 54.707031 37.644531 C 54.707031 38.199219 54.679688 38.757812 54.625 39.3125 C 54.570312 39.867188 54.488281 40.417969 54.378906 40.96875 C 54.269531 41.515625 54.132812 42.054688 53.972656 42.589844 C 53.808594 43.125 53.621094 43.648438 53.40625 44.164062 C 53.195312 44.679688 52.957031 45.183594 52.691406 45.675781 C 52.429688 46.167969 52.144531 46.644531 51.832031 47.109375 C 51.523438 47.574219 51.191406 48.019531 50.835938 48.453125 C 50.484375 48.882812 50.109375 49.296875 49.714844 49.691406 C 49.320312 50.085938 48.90625 50.460938 48.472656 50.8125 C 48.042969 51.167969 47.59375 51.5 47.132812 51.808594 C 46.667969 52.121094 46.1875 52.40625 45.695312 52.671875 C 45.203125 52.933594 44.699219 53.171875 44.183594 53.386719 C 43.667969 53.597656 43.144531 53.785156 42.609375 53.949219 C 42.074219 54.109375 41.535156 54.246094 40.988281 54.355469 C 40.441406 54.464844 39.890625 54.542969 39.332031 54.597656 C 38.777344 54.652344 38.222656 54.679688 37.664062 54.679688 C 37.105469 54.679688 36.546875 54.652344 35.992188 54.597656 C 35.4375 54.542969 34.886719 54.460938 34.339844 54.351562 C 33.792969 54.246094 33.25 54.109375 32.71875 53.945312 C 32.183594 53.785156 31.65625 53.597656 31.140625 53.382812 C 30.625 53.167969 30.121094 52.929688 29.628906 52.667969 C 29.140625 52.40625 28.660156 52.117188 28.195312 51.808594 C 27.734375 51.5 27.285156 51.167969 26.851562 50.8125 C 26.421875 50.457031 26.007812 50.082031 25.613281 49.6875 C 25.21875 49.292969 24.84375 48.882812 24.492188 48.449219 C 24.136719 48.019531 23.804688 47.570312 23.496094 47.105469 C 23.1875 46.640625 22.898438 46.164062 22.636719 45.671875 C 22.375 45.179688 22.136719 44.675781 21.921875 44.160156 C 21.707031 43.644531 21.519531 43.121094 21.359375 42.585938 C 21.195312 42.050781 21.0625 41.511719 20.953125 40.964844 C 20.84375 40.414062 20.761719 39.863281 20.707031 39.308594 C 20.652344 38.753906 20.625 38.195312 20.625 37.640625 C 20.625 37.082031 20.652344 36.523438 20.707031 35.96875 Z M 20.707031 35.96875 " fill-opacity="1" fill-rule="nonzero"/><path fill="#2b3990" d="M 34.535156 23.847656 C 34.597656 23.847656 34.65625 23.839844 34.714844 23.828125 C 34.953125 23.78125 35.195312 23.738281 35.4375 23.703125 C 35.679688 23.667969 35.875 23.550781 36.023438 23.351562 C 36.167969 23.15625 36.222656 22.933594 36.1875 22.691406 C 36.148438 22.449219 36.035156 22.253906 35.835938 22.109375 C 35.640625 21.960938 35.417969 21.90625 35.175781 21.945312 C 34.90625 21.984375 34.628906 22.03125 34.359375 22.085938 C 34.136719 22.132812 33.957031 22.246094 33.820312 22.429688 C 33.6875 22.613281 33.628906 22.820312 33.652344 23.046875 C 33.675781 23.273438 33.769531 23.464844 33.941406 23.617188 C 34.109375 23.769531 34.308594 23.847656 34.535156 23.847656 Z M 34.535156 23.847656 " fill-opacity="1" fill-rule="nonzero"/><path fill="#2b3990" d="M 24.75 29.675781 C 24.949219 29.820312 25.171875 29.871094 25.414062 29.832031 C 25.65625 29.792969 25.847656 29.675781 25.992188 29.476562 C 27.542969 27.316406 29.539062 25.71875 31.984375 24.675781 C 32.210938 24.582031 32.371094 24.417969 32.460938 24.191406 C 32.554688 23.964844 32.550781 23.734375 32.453125 23.511719 C 32.359375 23.285156 32.195312 23.125 31.96875 23.035156 C 31.742188 22.941406 31.515625 22.945312 31.289062 23.039062 C 28.539062 24.210938 26.292969 26.011719 24.546875 28.433594 C 24.40625 28.632812 24.351562 28.855469 24.390625 29.097656 C 24.433594 29.339844 24.550781 29.53125 24.75 29.675781 Z M 24.75 29.675781 " fill-opacity="1" fill-rule="nonzero"/></svg>