<svg xmlns="http://www.w3.org/2000/svg" xmlns:xlink="http://www.w3.org/1999/xlink" width="1364" zoomAndPan="magnify" viewBox="0 0 1023 492.749982" height="657" preserveAspectRatio="xMidYMid meet" version="1.0"><defs><clipPath id="9061977ec6"><path d="M 49.507812 50.691406 L 791 50.691406 L 791 350 L 49.507812 350 Z M 49.507812 50.691406 " clip-rule="nonzero"/></clipPath><clipPath id="8b954e0c63"><path d="M 232 142 L 973.789062 142 L 973.789062 441.992188 L 232 441.992188 Z M 232 142 " clip-rule="nonzero"/></clipPath></defs><g clip-path="url(#9061977ec6)"><path fill="#004aad" d="M 101.8125 254.53125 L 212.40625 254.53125 L 251.125 193.089844 C 360.75 193.089844 470.375 193.089844 579.996094 193.089844 L 648.289062 84.726562 L 651.679688 79.339844 L 749.679688 79.339844 C 752.703125 87.324219 760.417969 93 769.464844 93 C 781.148438 93 790.617188 83.527344 790.617188 71.84375 C 790.617188 60.164062 781.148438 50.691406 769.464844 50.691406 C 760.566406 50.691406 752.957031 56.179688 749.832031 63.957031 L 643.191406 63.957031 L 571.507812 177.707031 C 461.882812 177.707031 352.261719 177.707031 242.636719 177.707031 L 203.914062 239.148438 L 101.507812 239.148438 C 98.335938 231.472656 90.773438 226.074219 81.953125 226.074219 C 70.269531 226.074219 60.796875 235.542969 60.796875 247.226562 C 60.796875 258.910156 70.269531 268.382812 81.953125 268.382812 C 91.066406 268.382812 98.835938 262.617188 101.808594 254.535156 Z M 738.320312 145.816406 L 627.726562 145.816406 L 589.003906 207.257812 C 479.378906 207.257812 369.757812 207.257812 260.132812 207.257812 L 191.84375 315.621094 L 188.449219 321.003906 L 90.453125 321.003906 C 87.425781 313.023438 79.710938 307.347656 70.667969 307.347656 C 58.984375 307.347656 49.511719 316.820312 49.511719 328.503906 C 49.511719 340.183594 58.984375 349.65625 70.667969 349.65625 C 79.5625 349.65625 87.171875 344.167969 90.300781 336.390625 L 196.9375 336.390625 L 268.621094 222.640625 C 378.246094 222.640625 487.871094 222.640625 597.496094 222.640625 L 636.214844 161.199219 L 738.621094 161.199219 C 741.796875 168.875 749.355469 174.273438 758.179688 174.273438 C 769.863281 174.273438 779.332031 164.804688 779.332031 153.121094 C 779.332031 141.4375 769.863281 131.964844 758.179688 131.964844 C 749.066406 131.964844 741.296875 137.730469 738.320312 145.8125 Z M 738.320312 145.816406 " fill-opacity="1" fill-rule="evenodd"/></g><g clip-path="url(#8b954e0c63)"><path fill="#004aad" d="M 921.199219 237.960938 L 810.605469 237.960938 L 771.886719 299.402344 C 662.261719 299.402344 552.636719 299.402344 443.011719 299.402344 L 374.722656 407.765625 L 371.328125 413.148438 L 273.332031 413.148438 C 270.308594 405.167969 262.589844 399.492188 253.546875 399.492188 C 241.863281 399.492188 232.394531 408.964844 232.394531 420.648438 C 232.394531 432.332031 241.863281 441.800781 253.546875 441.800781 C 262.441406 441.800781 270.054688 436.3125 273.179688 428.535156 L 379.820312 428.535156 L 451.503906 314.785156 C 561.125 314.785156 670.75 314.785156 780.375 314.785156 L 819.097656 253.34375 L 921.503906 253.34375 C 924.675781 261.019531 932.238281 266.417969 941.058594 266.417969 C 952.742188 266.417969 962.214844 256.949219 962.214844 245.265625 C 962.214844 233.582031 952.742188 224.109375 941.058594 224.109375 C 931.945312 224.109375 924.175781 229.875 921.203125 237.957031 Z M 284.691406 346.679688 L 395.285156 346.679688 L 434.003906 285.234375 C 543.628906 285.234375 653.253906 285.234375 762.878906 285.234375 L 831.167969 176.871094 L 834.5625 171.488281 L 932.558594 171.488281 C 935.585938 179.46875 943.300781 185.144531 952.34375 185.144531 C 964.027344 185.144531 973.496094 175.671875 973.496094 163.988281 C 973.496094 152.308594 964.027344 142.835938 952.34375 142.835938 C 943.449219 142.835938 935.835938 148.324219 932.710938 156.101562 L 826.070312 156.101562 L 754.386719 269.851562 C 644.761719 269.851562 535.136719 269.851562 425.511719 269.851562 L 386.792969 331.292969 L 284.386719 331.292969 C 281.214844 323.617188 273.652344 318.21875 264.832031 318.21875 C 253.148438 318.21875 243.675781 327.6875 243.675781 339.371094 C 243.675781 351.054688 253.148438 360.527344 264.832031 360.527344 C 273.945312 360.527344 281.714844 354.761719 284.6875 346.679688 Z M 284.691406 346.679688 " fill-opacity="1" fill-rule="evenodd"/></g><path fill="#004aad" d="M 294.101562 163.789062 L 311.609375 163.789062 L 346.734375 110.117188 L 329.226562 110.117188 Z M 318.121094 163.789062 L 337.292969 163.789062 L 372.15625 110.519531 L 352.984375 110.519531 Z M 343.804688 163.789062 L 562.148438 163.789062 L 597.011719 110.519531 L 378.667969 110.519531 Z M 343.804688 163.789062 " fill-opacity="1" fill-rule="evenodd"/><path fill="#004aad" d="M 732.476562 325.734375 L 714.96875 325.734375 L 679.84375 379.40625 L 697.351562 379.40625 Z M 708.457031 325.734375 L 689.285156 325.734375 L 654.421875 379.003906 L 673.59375 379.003906 Z M 682.773438 325.734375 L 464.433594 325.734375 L 429.570312 379.003906 L 647.914062 379.003906 Z M 682.773438 325.734375 " fill-opacity="1" fill-rule="evenodd"/></svg>