<svg xmlns="http://www.w3.org/2000/svg" xmlns:xlink="http://www.w3.org/1999/xlink" width="100" zoomAndPan="magnify" viewBox="0 0 75 74.999997" height="100" preserveAspectRatio="xMidYMid meet" version="1.0"><defs><clipPath id="8b81d4f41d"><path d="M 0 1.296875 L 75 1.296875 L 75 74 L 0 74 Z M 0 1.296875 " clip-rule="nonzero"/></clipPath></defs><path fill="#004aad" d="M 5.179688 6.464844 L 7.765625 6.464844 L 7.765625 9.050781 L 5.179688 9.050781 Z M 5.179688 6.464844 " fill-opacity="1" fill-rule="nonzero"/><path fill="#004aad" d="M 10.351562 6.464844 L 12.9375 6.464844 L 12.9375 9.050781 L 10.351562 9.050781 Z M 10.351562 6.464844 " fill-opacity="1" fill-rule="nonzero"/><path fill="#004aad" d="M 15.523438 6.464844 L 18.109375 6.464844 L 18.109375 9.050781 L 15.523438 9.050781 Z M 15.523438 6.464844 " fill-opacity="1" fill-rule="nonzero"/><g clip-path="url(#8b81d4f41d)"><path fill="#004aad" d="M 69.820312 1.296875 L 5.179688 1.296875 C 4.839844 1.296875 4.503906 1.328125 4.171875 1.394531 C 3.839844 1.460938 3.515625 1.5625 3.203125 1.691406 C 2.886719 1.820312 2.589844 1.980469 2.308594 2.167969 C 2.027344 2.359375 1.765625 2.570312 1.523438 2.8125 C 1.285156 3.050781 1.070312 3.3125 0.882812 3.59375 C 0.691406 3.878906 0.535156 4.175781 0.402344 4.488281 C 0.273438 4.800781 0.175781 5.125 0.109375 5.457031 C 0.0429688 5.792969 0.0078125 6.128906 0.0078125 6.464844 L 0.0078125 58.179688 C 0.0078125 58.519531 0.0429688 58.855469 0.109375 59.1875 C 0.175781 59.519531 0.273438 59.84375 0.402344 60.15625 C 0.535156 60.472656 0.691406 60.769531 0.882812 61.050781 C 1.070312 61.332031 1.285156 61.59375 1.523438 61.835938 C 1.765625 62.074219 2.027344 62.289062 2.308594 62.476562 C 2.589844 62.667969 2.886719 62.824219 3.203125 62.957031 C 3.515625 63.085938 3.839844 63.183594 4.171875 63.25 C 4.503906 63.316406 4.839844 63.351562 5.179688 63.351562 L 27.976562 63.351562 L 27.269531 71.109375 L 23.277344 71.109375 L 23.277344 73.695312 L 51.722656 73.695312 L 51.722656 71.109375 L 47.730469 71.109375 L 47.023438 63.351562 L 69.820312 63.351562 C 70.160156 63.351562 70.496094 63.316406 70.828125 63.25 C 71.160156 63.183594 71.484375 63.085938 71.796875 62.957031 C 72.113281 62.824219 72.410156 62.667969 72.691406 62.476562 C 72.972656 62.289062 73.234375 62.074219 73.476562 61.835938 C 73.714844 61.59375 73.929688 61.332031 74.117188 61.050781 C 74.308594 60.769531 74.464844 60.472656 74.597656 60.15625 C 74.726562 59.84375 74.824219 59.519531 74.890625 59.1875 C 74.957031 58.855469 74.992188 58.519531 74.992188 58.179688 L 74.992188 6.464844 C 74.992188 6.128906 74.957031 5.792969 74.890625 5.457031 C 74.824219 5.125 74.726562 4.800781 74.597656 4.488281 C 74.464844 4.175781 74.308594 3.878906 74.117188 3.59375 C 73.929688 3.3125 73.714844 3.050781 73.476562 2.8125 C 73.234375 2.570312 72.972656 2.359375 72.691406 2.167969 C 72.410156 1.980469 72.113281 1.820312 71.796875 1.691406 C 71.484375 1.5625 71.160156 1.460938 70.828125 1.394531 C 70.496094 1.328125 70.160156 1.296875 69.820312 1.296875 Z M 5.179688 3.882812 L 69.820312 3.882812 C 70.164062 3.882812 70.492188 3.949219 70.808594 4.078125 C 71.125 4.210938 71.40625 4.398438 71.648438 4.640625 C 71.890625 4.882812 72.078125 5.160156 72.207031 5.476562 C 72.339844 5.792969 72.40625 6.125 72.40625 6.464844 L 72.40625 11.636719 L 2.59375 11.636719 L 2.59375 6.464844 C 2.59375 6.125 2.660156 5.792969 2.792969 5.476562 C 2.921875 5.160156 3.109375 4.882812 3.351562 4.640625 C 3.59375 4.398438 3.875 4.210938 4.191406 4.078125 C 4.507812 3.949219 4.835938 3.882812 5.179688 3.882812 Z M 72.40625 14.222656 L 72.40625 50.421875 L 2.59375 50.421875 L 2.59375 14.222656 Z M 45.132812 71.109375 L 29.867188 71.109375 L 30.570312 63.351562 L 44.429688 63.351562 Z M 69.820312 60.765625 L 5.179688 60.765625 C 4.835938 60.765625 4.507812 60.699219 4.191406 60.566406 C 3.875 60.4375 3.59375 60.25 3.351562 60.007812 C 3.109375 59.765625 2.921875 59.484375 2.792969 59.167969 C 2.660156 58.851562 2.59375 58.523438 2.59375 58.179688 L 2.59375 53.007812 L 72.40625 53.007812 L 72.40625 58.179688 C 72.40625 58.523438 72.339844 58.851562 72.207031 59.167969 C 72.078125 59.484375 71.890625 59.765625 71.648438 60.007812 C 71.40625 60.25 71.125 60.4375 70.808594 60.566406 C 70.492188 60.699219 70.164062 60.765625 69.820312 60.765625 Z M 69.820312 60.765625 " fill-opacity="1" fill-rule="nonzero"/></g><path fill="#004aad" d="M 36.207031 55.59375 L 38.792969 55.59375 L 38.792969 58.179688 L 36.207031 58.179688 Z M 36.207031 55.59375 " fill-opacity="1" fill-rule="nonzero"/><path fill="#004aad" d="M 6.472656 28.445312 L 9.058594 28.445312 L 9.058594 31.03125 L 6.472656 31.03125 Z M 6.472656 28.445312 " fill-opacity="1" fill-rule="nonzero"/><path fill="#004aad" d="M 11.644531 28.445312 L 31.035156 28.445312 L 31.035156 31.03125 L 11.644531 31.03125 Z M 11.644531 28.445312 " fill-opacity="1" fill-rule="nonzero"/><path fill="#004aad" d="M 6.472656 33.617188 L 9.058594 33.617188 L 9.058594 36.203125 L 6.472656 36.203125 Z M 6.472656 33.617188 " fill-opacity="1" fill-rule="nonzero"/><path fill="#004aad" d="M 11.644531 33.617188 L 45.257812 33.617188 L 45.257812 36.203125 L 11.644531 36.203125 Z M 11.644531 33.617188 " fill-opacity="1" fill-rule="nonzero"/><path fill="#004aad" d="M 6.472656 38.789062 L 9.058594 38.789062 L 9.058594 41.375 L 6.472656 41.375 Z M 6.472656 38.789062 " fill-opacity="1" fill-rule="nonzero"/><path fill="#004aad" d="M 11.644531 38.789062 L 36.207031 38.789062 L 36.207031 41.375 L 11.644531 41.375 Z M 11.644531 38.789062 " fill-opacity="1" fill-rule="nonzero"/><path fill="#004aad" d="M 6.472656 43.957031 L 9.058594 43.957031 L 9.058594 46.542969 L 6.472656 46.542969 Z M 6.472656 43.957031 " fill-opacity="1" fill-rule="nonzero"/><path fill="#004aad" d="M 11.644531 43.957031 L 49.136719 43.957031 L 49.136719 46.542969 L 11.644531 46.542969 Z M 11.644531 43.957031 " fill-opacity="1" fill-rule="nonzero"/><path fill="#004aad" d="M 6.851562 22.894531 L 9.4375 25.480469 L 11.265625 23.652344 L 9.59375 21.980469 L 11.265625 20.308594 L 9.4375 18.480469 L 6.851562 21.066406 C 6.730469 21.1875 6.636719 21.328125 6.570312 21.484375 C 6.503906 21.644531 6.472656 21.808594 6.472656 21.980469 C 6.472656 22.152344 6.503906 22.316406 6.570312 22.476562 C 6.636719 22.632812 6.730469 22.773438 6.851562 22.894531 Z M 6.851562 22.894531 " fill-opacity="1" fill-rule="nonzero"/><path fill="#004aad" d="M 19.777344 23.652344 L 21.605469 25.480469 L 24.191406 22.894531 C 24.3125 22.773438 24.40625 22.632812 24.472656 22.476562 C 24.539062 22.316406 24.570312 22.152344 24.570312 21.980469 C 24.570312 21.808594 24.539062 21.644531 24.472656 21.484375 C 24.40625 21.328125 24.3125 21.1875 24.191406 21.066406 L 21.605469 18.480469 L 19.777344 20.308594 L 21.449219 21.980469 Z M 19.777344 23.652344 " fill-opacity="1" fill-rule="nonzero"/><path fill="#004aad" d="M 13.003906 25.449219 L 15.589844 17.695312 L 18.042969 18.511719 L 15.457031 26.269531 Z M 13.003906 25.449219 " fill-opacity="1" fill-rule="nonzero"/><path fill="#004aad" d="M 47.84375 33.617188 L 55.597656 33.617188 L 55.597656 36.203125 L 47.84375 36.203125 Z M 47.84375 33.617188 " fill-opacity="1" fill-rule="nonzero"/><path fill="#004aad" d="M 51.722656 43.957031 L 54.308594 43.957031 L 54.308594 46.542969 L 51.722656 46.542969 Z M 51.722656 43.957031 " fill-opacity="1" fill-rule="nonzero"/><path fill="#004aad" d="M 56.890625 43.957031 L 59.476562 43.957031 L 59.476562 46.542969 L 56.890625 46.542969 Z M 56.890625 43.957031 " fill-opacity="1" fill-rule="nonzero"/><path fill="#004aad" d="M 33.621094 28.445312 L 36.207031 28.445312 L 36.207031 31.03125 L 33.621094 31.03125 Z M 33.621094 28.445312 " fill-opacity="1" fill-rule="nonzero"/></svg>