<svg xmlns="http://www.w3.org/2000/svg" xmlns:xlink="http://www.w3.org/1999/xlink" width="100" zoomAndPan="magnify" viewBox="0 0 75 74.999997" height="100" preserveAspectRatio="xMidYMid meet" version="1.0"><defs><clipPath id="ea8e88528e"><path d="M 0 10.21875 L 75 10.21875 L 75 64.96875 L 0 64.96875 Z M 0 10.21875 " clip-rule="nonzero"/></clipPath></defs><g clip-path="url(#ea8e88528e)"><path fill="#004aad" d="M 63.734375 10.167969 C 61.328125 10.167969 58.941406 10.636719 57.226562 11.457031 C 55.507812 12.28125 54.449219 13.464844 54.453125 14.714844 C 54.453125 14.832031 54.457031 14.953125 54.476562 15.0625 C 54.46875 15.496094 54.464844 18.15625 54.464844 22.003906 L 54.464844 31.582031 C 54.464844 35.378906 54.46875 37.945312 54.476562 38.4375 C 54.457031 38.5625 54.453125 38.683594 54.453125 38.808594 C 54.449219 40.253906 55.492188 41.660156 57.214844 42.636719 C 58.933594 43.613281 61.328125 44.175781 63.734375 44.175781 C 66.140625 44.175781 68.53125 43.613281 70.253906 42.636719 C 71.976562 41.660156 73.019531 40.253906 73.015625 38.808594 C 73.015625 38.695312 73.003906 38.585938 72.988281 38.472656 L 72.988281 38.449219 C 72.996094 37.96875 73.003906 35.386719 73.003906 31.582031 L 73.003906 22.003906 C 73.003906 18.128906 72.996094 15.414062 72.988281 15.015625 C 73.003906 14.917969 73.015625 14.8125 73.015625 14.714844 C 73.019531 13.464844 71.957031 12.277344 70.238281 11.457031 C 68.523438 10.636719 66.136719 10.167969 63.734375 10.167969 Z M 11.992188 16.167969 C 8.796875 16.167969 6.246094 18.71875 6.246094 21.917969 L 6.246094 56.523438 L 2.804688 56.523438 C 2.78125 56.523438 2.757812 56.523438 2.730469 56.523438 L 2.722656 56.523438 C 1.15625 56.585938 0.09375 58.144531 0.617188 59.628906 L 1.839844 63.105469 C 2.167969 64.035156 3.046875 64.660156 4.035156 64.664062 L 70.800781 64.664062 C 71.785156 64.660156 72.664062 64.035156 72.996094 63.105469 L 74.21875 59.628906 C 74.738281 58.144531 73.675781 56.582031 72.101562 56.523438 C 72.074219 56.523438 72.050781 56.523438 72.023438 56.523438 L 68.582031 56.523438 L 68.582031 45.882812 C 67.386719 46.226562 66.128906 46.433594 64.835938 46.503906 L 64.835938 56.523438 L 47.808594 56.523438 C 47.804688 56.523438 47.796875 56.523438 47.78125 56.523438 C 47.351562 56.523438 46.960938 56.800781 46.824219 57.210938 L 46.492188 58.144531 C 46.328125 58.613281 45.886719 58.925781 45.394531 58.929688 L 29.429688 58.929688 C 28.9375 58.925781 28.496094 58.613281 28.335938 58.144531 L 28.003906 57.210938 C 27.867188 56.800781 27.472656 56.523438 27.039062 56.523438 C 27.035156 56.523438 27.03125 56.523438 27.015625 56.523438 L 9.992188 56.523438 L 9.992188 21.917969 C 9.992188 21.378906 10.183594 20.851562 10.554688 20.476562 C 10.925781 20.105469 11.453125 19.917969 11.992188 19.917969 L 52.03125 19.917969 C 52.03125 18.292969 52.035156 16.839844 52.039062 16.171875 L 11.992188 16.171875 Z M 70.859375 17.628906 C 70.855469 18.789062 70.859375 19.578125 70.859375 22 L 70.859375 31.582031 C 70.859375 33.679688 70.855469 34.269531 70.859375 35.375 C 70.753906 35.300781 70.648438 35.222656 70.539062 35.152344 C 70.480469 34.550781 70.359375 33.914062 70.113281 33.253906 C 69.558594 31.738281 68.507812 30.292969 67.808594 29.402344 C 67.113281 28.507812 66.710938 28.140625 66.507812 27.890625 C 66.460938 27.828125 66.4375 27.789062 66.421875 27.765625 C 66.425781 27.757812 66.429688 27.757812 66.457031 27.703125 C 66.519531 27.589844 66.800781 27.246094 67.152344 26.835938 C 67.507812 26.421875 67.949219 25.914062 68.355469 25.386719 C 69.175781 24.316406 69.859375 23.09375 70.203125 21.742188 C 70.546875 20.390625 70.507812 19.066406 70.5 17.828125 C 70.621094 17.761719 70.742188 17.695312 70.859375 17.628906 Z M 56.609375 17.628906 C 56.714844 17.691406 56.820312 17.753906 56.929688 17.8125 C 56.929688 17.820312 56.929688 17.820312 56.929688 17.828125 C 56.917969 19.066406 56.878906 20.390625 57.226562 21.742188 C 57.570312 23.09375 58.253906 24.316406 59.074219 25.386719 C 59.480469 25.914062 59.921875 26.425781 60.273438 26.835938 C 60.628906 27.25 60.910156 27.589844 60.96875 27.703125 C 61 27.757812 61.003906 27.757812 61.003906 27.765625 C 60.992188 27.792969 60.96875 27.832031 60.917969 27.890625 C 60.714844 28.140625 60.316406 28.511719 59.617188 29.402344 C 58.921875 30.292969 57.871094 31.738281 57.3125 33.253906 C 57.070312 33.925781 56.949219 34.566406 56.890625 35.175781 C 56.792969 35.242188 56.703125 35.3125 56.609375 35.375 C 56.613281 34.273438 56.617188 33.679688 56.617188 31.582031 L 56.617188 22.003906 C 56.617188 19.585938 56.613281 18.789062 56.609375 17.628906 Z M 59.082031 18.632812 C 60.492188 19.023438 62.105469 19.253906 63.734375 19.25 C 65.347656 19.253906 66.941406 19.03125 68.34375 18.644531 C 68.339844 19.574219 68.3125 20.457031 68.121094 21.222656 C 68.113281 21.246094 68.105469 21.289062 68.09375 21.324219 C 66.59375 21.992188 64.96875 22.3125 63.359375 22.230469 C 61.960938 22.15625 60.585938 21.785156 59.304688 21.148438 C 59.125 20.398438 59.085938 19.535156 59.082031 18.632812 Z M 25.980469 22.863281 C 25.882812 22.863281 25.789062 22.90625 25.722656 22.976562 C 24.902344 23.851562 24.191406 24.828125 23.605469 25.875 C 23.21875 26.566406 22.902344 27.292969 22.632812 28.039062 L 21.726562 26.847656 C 21.628906 26.71875 21.457031 26.671875 21.308594 26.734375 C 21.273438 26.75 21.234375 26.765625 21.199219 26.777344 C 20.441406 27.085938 19.6875 27.410156 18.933594 27.734375 C 18.648438 27.863281 18.65625 28.269531 18.941406 28.390625 C 19.753906 28.730469 20.511719 29.203125 21.175781 29.78125 C 21.679688 30.226562 22.132812 30.734375 22.515625 31.285156 C 22.667969 31.507812 22.996094 31.488281 23.117188 31.253906 C 23.980469 29.757812 24.710938 28.53125 25.671875 27.277344 C 26.617188 26.042969 27.671875 24.882812 28.808594 23.816406 C 29.027344 23.609375 28.910156 23.246094 28.613281 23.207031 L 26.027344 22.867188 C 26.015625 22.863281 26 22.863281 25.988281 22.863281 Z M 19.929688 25.328125 C 19.289062 25.328125 18.773438 25.847656 18.773438 26.488281 L 18.773438 26.769531 C 19.453125 26.472656 20.136719 26.171875 20.828125 25.890625 C 20.855469 25.878906 20.902344 25.867188 20.949219 25.847656 C 21.46875 25.636719 22.035156 25.785156 22.410156 26.203125 C 22.535156 25.9375 22.621094 25.667969 22.765625 25.40625 C 22.777344 25.378906 22.800781 25.355469 22.8125 25.328125 Z M 29.058594 26.171875 C 28.8125 26.171875 28.609375 26.371094 28.609375 26.621094 L 28.609375 28.039062 C 28.609375 28.289062 28.808594 28.488281 29.058594 28.488281 L 46.296875 28.488281 C 46.542969 28.488281 46.746094 28.289062 46.746094 28.039062 L 46.746094 26.621094 C 46.746094 26.371094 46.546875 26.171875 46.296875 26.171875 Z M 26.601562 27.660156 C 26.550781 27.726562 26.488281 27.789062 26.433594 27.859375 C 25.523438 29.046875 24.820312 30.234375 23.96875 31.707031 C 23.523438 32.546875 22.261719 32.625 21.71875 31.839844 C 21.378906 31.34375 20.984375 30.878906 20.546875 30.496094 C 20.015625 30.03125 19.414062 29.660156 18.769531 29.371094 L 18.769531 31.496094 C 18.769531 32.136719 19.289062 32.652344 19.925781 32.652344 L 25.441406 32.652344 C 26.082031 32.652344 26.597656 32.132812 26.597656 31.496094 L 26.597656 27.660156 Z M 62.902344 28.746094 C 62.929688 28.96875 62.945312 29.191406 62.953125 29.402344 C 62.964844 29.75 62.96875 29.929688 62.976562 30.21875 L 63.101562 35.027344 C 62.839844 35.117188 62.574219 35.203125 62.34375 35.253906 C 61.539062 35.417969 60.859375 35.269531 60.203125 35.476562 C 59.675781 35.640625 59.316406 36.023438 59.011719 36.402344 C 59 35.566406 59.023438 34.792969 59.320312 33.988281 C 59.714844 32.917969 60.683594 31.539062 61.316406 30.730469 C 61.953125 29.914062 62.234375 29.675781 62.582031 29.242188 C 62.675781 29.121094 62.792969 28.953125 62.902344 28.746094 Z M 64.539062 28.785156 C 64.640625 28.972656 64.757812 29.128906 64.847656 29.238281 C 65.191406 29.667969 65.472656 29.910156 66.109375 30.726562 C 66.746094 31.535156 67.714844 32.914062 68.105469 33.984375 C 68.476562 34.988281 68.472656 35.933594 68.425781 37.023438 C 67.914062 36.613281 67.375 35.945312 66.890625 35.410156 C 66.632812 35.125 66.382812 34.871094 66.074219 34.691406 C 65.765625 34.515625 65.394531 34.441406 64.984375 34.484375 C 64.785156 34.503906 64.574219 34.570312 64.363281 34.628906 L 64.464844 30.378906 L 64.464844 30.367188 C 64.480469 29.996094 64.488281 29.800781 64.5 29.402344 C 64.507812 29.203125 64.519531 28.992188 64.539062 28.785156 Z M 29.109375 29.617188 C 28.832031 29.617188 28.613281 29.835938 28.613281 30.109375 L 28.613281 31.4375 C 28.613281 31.710938 28.832031 31.929688 29.109375 31.929688 L 47.390625 31.929688 C 47.664062 31.929688 47.882812 31.710938 47.882812 31.4375 L 47.882812 30.109375 C 47.882812 29.835938 47.664062 29.617188 47.390625 29.617188 Z M 19.925781 35.761719 C 19.285156 35.761719 18.769531 36.277344 18.769531 36.917969 L 18.769531 41.921875 C 18.769531 42.566406 19.285156 43.082031 19.925781 43.082031 L 25.441406 43.082031 C 26.082031 43.082031 26.597656 42.5625 26.597656 41.921875 L 26.597656 36.917969 C 26.597656 36.277344 26.082031 35.761719 25.441406 35.761719 Z M 29.058594 36.605469 C 28.8125 36.605469 28.609375 36.804688 28.609375 37.058594 L 28.609375 38.472656 C 28.609375 38.722656 28.808594 38.921875 29.058594 38.921875 L 46.296875 38.921875 C 46.542969 38.921875 46.746094 38.722656 46.746094 38.472656 L 46.746094 37.058594 C 46.746094 36.808594 46.546875 36.605469 46.296875 36.605469 Z M 29.015625 40.433594 C 28.792969 40.433594 28.613281 40.609375 28.613281 40.832031 L 28.613281 42.34375 C 28.613281 42.566406 28.792969 42.742188 29.015625 42.742188 L 48.988281 42.742188 C 49.214844 42.742188 49.394531 42.566406 49.394531 42.34375 L 49.394531 40.832031 C 49.394531 40.609375 49.214844 40.433594 48.988281 40.433594 Z M 19.925781 46.335938 C 19.285156 46.335938 18.769531 46.855469 18.769531 47.496094 L 18.769531 52.5 C 18.769531 53.140625 19.285156 53.65625 19.925781 53.65625 L 25.441406 53.65625 C 26.082031 53.65625 26.597656 53.140625 26.597656 52.5 L 26.597656 47.496094 C 26.597656 46.851562 26.082031 46.335938 25.441406 46.335938 Z M 29.058594 47.277344 C 28.8125 47.277344 28.609375 47.476562 28.609375 47.726562 L 28.609375 49.144531 C 28.609375 49.390625 28.808594 49.59375 29.058594 49.59375 L 46.296875 49.59375 C 46.542969 49.59375 46.746094 49.394531 46.746094 49.144531 L 46.746094 47.726562 C 46.746094 47.476562 46.546875 47.277344 46.296875 47.277344 Z M 29.109375 50.714844 C 28.832031 50.714844 28.613281 50.9375 28.613281 51.210938 L 28.613281 52.535156 C 28.613281 52.808594 28.832031 53.03125 29.109375 53.03125 L 47.390625 53.03125 C 47.664062 53.03125 47.882812 52.808594 47.882812 52.535156 L 47.882812 51.210938 C 47.882812 50.9375 47.664062 50.714844 47.390625 50.714844 Z M 29.109375 50.714844 " fill-opacity="1" fill-rule="nonzero"/></g></svg>