<svg xmlns="http://www.w3.org/2000/svg" xmlns:xlink="http://www.w3.org/1999/xlink" width="100" zoomAndPan="magnify" viewBox="0 0 75 74.999997" height="100" preserveAspectRatio="xMidYMid meet" version="1.0"><path fill="#004aad" d="M 73.8125 36.3125 L 69.449219 36.3125 C 68.835938 19.625 55.375 6.164062 38.6875 5.550781 L 38.6875 1.1875 C 38.6875 0.523438 38.148438 0 37.5 0 C 36.835938 0 36.3125 0.539062 36.3125 1.1875 L 36.3125 5.550781 C 19.625 6.164062 6.164062 19.625 5.550781 36.3125 L 1.1875 36.3125 C 0.523438 36.3125 0 36.851562 0 37.5 C 0 38.164062 0.539062 38.6875 1.1875 38.6875 L 5.550781 38.6875 C 6.164062 55.375 19.625 68.835938 36.3125 69.449219 L 36.3125 73.8125 C 36.3125 74.476562 36.851562 75 37.5 75 C 38.164062 75 38.6875 74.460938 38.6875 73.8125 L 38.6875 69.449219 C 55.375 68.835938 68.835938 55.375 69.449219 38.6875 L 73.8125 38.6875 C 74.476562 38.6875 75 38.148438 75 37.5 C 75 36.835938 74.460938 36.3125 73.8125 36.3125 Z M 38.6875 8.976562 C 53.488281 9.585938 65.414062 21.511719 66.023438 36.3125 L 60.976562 36.3125 C 60.375 24.300781 50.710938 14.636719 38.699219 14.039062 L 38.699219 8.976562 Z M 36.3125 8.976562 L 36.3125 14.023438 C 24.300781 14.625 14.636719 24.289062 14.039062 36.300781 L 8.976562 36.300781 C 9.585938 21.511719 21.511719 9.585938 36.3125 8.976562 Z M 36.3125 66.023438 C 21.511719 65.414062 9.585938 53.488281 8.976562 38.6875 L 14.039062 38.6875 C 14.636719 50.699219 24.300781 60.363281 36.3125 60.960938 Z M 37.5 49.125 C 36.835938 49.125 36.3125 49.664062 36.3125 50.3125 L 36.3125 56.0625 C 27 55.476562 19.523438 48 18.9375 38.6875 L 24.6875 38.6875 C 25.351562 38.6875 25.875 38.148438 25.875 37.5 C 25.875 36.835938 25.335938 36.3125 24.6875 36.3125 L 18.9375 36.3125 C 19.523438 27 27 19.523438 36.3125 18.9375 L 36.3125 24.6875 C 36.3125 25.351562 36.851562 25.875 37.5 25.875 C 38.164062 25.875 38.6875 25.335938 38.6875 24.6875 L 38.6875 18.9375 C 48 19.523438 55.460938 27 56.0625 36.3125 L 50.3125 36.3125 C 49.648438 36.3125 49.125 36.851562 49.125 37.5 C 49.125 38.164062 49.664062 38.6875 50.3125 38.6875 L 56.0625 38.6875 C 55.476562 48 48 55.476562 38.6875 56.0625 L 38.6875 50.3125 C 38.6875 49.664062 38.164062 49.125 37.5 49.125 Z M 38.6875 66.023438 L 38.6875 60.960938 C 50.699219 60.363281 60.363281 50.699219 60.960938 38.6875 L 66.011719 38.6875 C 65.414062 53.488281 53.488281 65.414062 38.6875 66.023438 Z M 43.976562 37.5 C 43.976562 33.925781 41.0625 31.023438 37.5 31.023438 C 33.925781 31.023438 31.023438 33.9375 31.023438 37.5 C 31.023438 41.074219 33.9375 43.976562 37.5 43.976562 C 41.074219 43.976562 43.976562 41.074219 43.976562 37.5 Z M 37.5 41.039062 C 35.550781 41.039062 33.960938 39.449219 33.960938 37.5 C 33.960938 35.550781 35.550781 33.960938 37.5 33.960938 C 39.449219 33.960938 41.039062 35.550781 41.039062 37.5 C 41.039062 39.449219 39.449219 41.039062 37.5 41.039062 Z M 37.5 41.039062 " fill-opacity="1" fill-rule="nonzero"/></svg>