<svg xmlns="http://www.w3.org/2000/svg" xmlns:xlink="http://www.w3.org/1999/xlink" width="100" zoomAndPan="magnify" viewBox="0 0 75 74.999997" height="100" preserveAspectRatio="xMidYMid meet" version="1.0"><defs><clipPath id="8d5f68a7f9"><path d="M 0 36.738281 L 75 36.738281 L 75 71.578125 L 0 71.578125 Z M 0 36.738281 " clip-rule="nonzero"/></clipPath><clipPath id="3b5d0706ed"><path d="M 17 3.328125 L 39 3.328125 L 39 25 L 17 25 Z M 17 3.328125 " clip-rule="nonzero"/></clipPath></defs><path fill="#004aad" d="M 12.390625 26.546875 C 14.839844 26.546875 16.832031 28.539062 16.832031 30.988281 C 16.832031 33.4375 14.839844 35.433594 12.390625 35.433594 C 9.9375 35.433594 7.945312 33.4375 7.945312 30.988281 C 7.945312 28.539062 9.9375 26.546875 12.390625 26.546875 Z M 12.390625 37.042969 C 15.726562 37.042969 18.441406 34.328125 18.441406 30.988281 C 18.441406 27.652344 15.726562 24.9375 12.390625 24.9375 C 9.050781 24.9375 6.335938 27.652344 6.335938 30.988281 C 6.335938 34.328125 9.050781 37.042969 12.390625 37.042969 " fill-opacity="1" fill-rule="nonzero"/><path fill="#004aad" d="M 62.554688 26.546875 C 65.007812 26.546875 67 28.539062 67 30.988281 C 67 33.4375 65.007812 35.433594 62.554688 35.433594 C 60.105469 35.433594 58.113281 33.4375 58.113281 30.988281 C 58.113281 28.539062 60.105469 26.546875 62.554688 26.546875 Z M 62.554688 37.042969 C 65.894531 37.042969 68.609375 34.328125 68.609375 30.988281 C 68.609375 27.652344 65.894531 24.9375 62.554688 24.9375 C 59.21875 24.9375 56.503906 27.652344 56.503906 30.988281 C 56.503906 34.328125 59.21875 37.042969 62.554688 37.042969 " fill-opacity="1" fill-rule="nonzero"/><g clip-path="url(#8d5f68a7f9)"><path fill="#004aad" d="M 57.9375 47.015625 L 59.671875 46.472656 L 59.671875 53.324219 L 56.59375 53.324219 L 56.59375 50.648438 L 57.164062 50.648438 C 57.609375 50.648438 57.96875 50.289062 57.96875 49.84375 L 57.96875 47.246094 C 57.96875 47.164062 57.957031 47.085938 57.9375 47.015625 Z M 64.457031 57.800781 C 64.378906 57.800781 64.226562 57.800781 64.226562 57.800781 L 56.59375 57.8125 L 56.59375 54.933594 L 61.121094 54.933594 C 61.566406 54.933594 61.925781 54.574219 61.925781 54.128906 C 61.925781 53.738281 61.648438 53.414062 61.28125 53.339844 L 61.28125 45.972656 L 62.65625 45.542969 C 63.078125 45.410156 63.316406 44.957031 63.183594 44.535156 C 63.050781 44.109375 62.601562 43.871094 62.175781 44.003906 L 55.125 46.203125 C 54.367188 46.4375 53.5625 46.015625 53.328125 45.261719 C 53.214844 44.898438 53.25 44.507812 53.429688 44.171875 C 53.605469 43.832031 53.90625 43.582031 54.269531 43.46875 L 60.402344 41.554688 C 60.65625 41.476562 60.839844 41.285156 60.921875 41.050781 C 60.980469 41.003906 61.035156 40.941406 61.078125 40.875 C 61.824219 39.722656 63.085938 39.035156 64.460938 39.035156 C 66.679688 39.035156 68.484375 40.839844 68.484375 43.058594 L 68.484375 53.742188 C 68.484375 55.960938 66.675781 57.800781 64.457031 57.800781 Z M 56.359375 49.039062 L 18.585938 49.039062 L 18.585938 48.050781 L 56.359375 48.050781 Z M 54.984375 70.035156 L 19.960938 70.035156 L 19.960938 50.667969 L 54.984375 50.667969 Z M 18.351562 53.324219 L 15.277344 53.324219 L 15.277344 46.472656 L 17.007812 47.015625 C 16.988281 47.085938 16.976562 47.164062 16.976562 47.246094 L 16.976562 49.84375 C 16.976562 50.289062 17.335938 50.648438 17.78125 50.648438 L 18.351562 50.648438 Z M 18.351562 57.8125 L 10.71875 57.800781 C 10.71875 57.800781 10.566406 57.800781 10.488281 57.800781 C 8.269531 57.800781 6.460938 55.960938 6.460938 53.742188 L 6.460938 43.058594 C 6.460938 40.839844 8.265625 39.035156 10.484375 39.035156 C 11.859375 39.035156 13.121094 39.722656 13.867188 40.875 C 13.910156 40.941406 13.964844 41.003906 14.023438 41.050781 C 14.105469 41.285156 14.289062 41.476562 14.542969 41.554688 L 20.675781 43.46875 C 21.039062 43.582031 21.339844 43.832031 21.515625 44.171875 C 21.695312 44.507812 21.730469 44.898438 21.617188 45.261719 C 21.382812 46.015625 20.574219 46.4375 19.820312 46.203125 L 12.769531 44.003906 C 12.34375 43.871094 11.894531 44.109375 11.761719 44.535156 C 11.628906 44.957031 11.867188 45.410156 12.289062 45.542969 L 13.664062 45.972656 L 13.664062 53.339844 C 13.296875 53.414062 13.019531 53.738281 13.019531 54.128906 C 13.019531 54.574219 13.378906 54.933594 13.824219 54.933594 L 18.351562 54.933594 Z M 31.109375 42.777344 C 31.109375 40.34375 33.089844 38.367188 35.519531 38.367188 L 39.421875 38.367188 C 41.855469 38.367188 43.835938 40.34375 43.835938 42.777344 L 43.835938 46.441406 L 41.957031 46.441406 L 41.957031 43.808594 C 41.957031 43.363281 41.59375 43.003906 41.148438 43.003906 C 40.703125 43.003906 40.34375 43.363281 40.34375 43.808594 L 40.34375 46.441406 L 34.828125 46.441406 L 34.828125 43.808594 C 34.828125 43.363281 34.46875 43.003906 34.023438 43.003906 C 33.578125 43.003906 33.21875 43.363281 33.21875 43.808594 L 33.21875 46.441406 L 31.109375 46.441406 Z M 74.988281 70.71875 L 72.882812 58.5625 L 73.960938 43.535156 C 73.992188 43.09375 73.65625 42.707031 73.214844 42.675781 C 72.769531 42.644531 72.382812 42.976562 72.351562 43.421875 L 71.320312 57.800781 L 68.363281 57.804688 C 69.429688 56.777344 70.09375 55.335938 70.09375 53.742188 L 70.09375 43.058594 C 70.09375 39.949219 67.566406 37.421875 64.460938 37.421875 C 62.539062 37.421875 60.769531 38.386719 59.726562 40 C 59.703125 40.03125 59.6875 40.0625 59.671875 40.097656 L 53.789062 41.929688 C 53.015625 42.171875 52.378906 42.703125 52 43.421875 C 51.625 44.140625 51.546875 44.964844 51.789062 45.742188 C 51.867188 45.992188 51.976562 46.226562 52.109375 46.441406 L 45.449219 46.441406 L 45.449219 42.777344 C 45.449219 39.457031 42.746094 36.753906 39.421875 36.753906 L 35.519531 36.753906 C 32.199219 36.753906 29.496094 39.457031 29.496094 42.777344 L 29.496094 46.441406 L 22.835938 46.441406 C 22.96875 46.226562 23.074219 45.992188 23.152344 45.742188 C 23.394531 44.964844 23.320312 44.140625 22.945312 43.421875 C 22.566406 42.703125 21.929688 42.171875 21.152344 41.929688 L 15.273438 40.097656 C 15.257812 40.0625 15.242188 40.03125 15.21875 40 C 14.175781 38.386719 12.40625 37.421875 10.484375 37.421875 C 7.378906 37.421875 4.851562 39.949219 4.851562 43.058594 L 4.851562 53.742188 C 4.851562 55.410156 5.582031 56.914062 6.738281 57.945312 L 3.558594 57.980469 L 2.648438 43.425781 C 2.617188 42.984375 2.238281 42.644531 1.792969 42.675781 C 1.347656 42.703125 1.011719 43.085938 1.039062 43.527344 L 1.992188 58.753906 L 0.0117188 70.722656 C -0.0625 71.164062 0.234375 71.578125 0.671875 71.652344 C 0.71875 71.65625 0.761719 71.660156 0.804688 71.660156 C 1.191406 71.660156 1.535156 71.382812 1.601562 70.988281 L 3.488281 59.589844 L 13.84375 59.457031 L 15.394531 70.964844 C 15.449219 71.367188 15.792969 71.660156 16.191406 71.660156 C 16.226562 71.660156 16.261719 71.660156 16.300781 71.652344 C 16.738281 71.59375 17.050781 71.191406 16.988281 70.75 L 15.464844 59.4375 L 16.203125 59.425781 C 16.226562 59.425781 16.25 59.421875 16.273438 59.421875 L 18.351562 59.425781 L 18.351562 70.839844 C 18.351562 71.285156 18.710938 71.644531 19.15625 71.644531 L 55.789062 71.644531 C 56.234375 71.644531 56.59375 71.285156 56.59375 70.839844 L 56.59375 59.425781 L 58.671875 59.421875 C 58.699219 59.425781 58.726562 59.425781 58.753906 59.425781 L 59.480469 59.425781 L 57.953125 70.730469 C 57.894531 71.171875 58.203125 71.578125 58.644531 71.636719 C 58.683594 71.644531 58.71875 71.644531 58.753906 71.644531 C 59.152344 71.644531 59.496094 71.351562 59.550781 70.945312 L 61.105469 59.421875 L 71.394531 59.410156 L 73.402344 70.992188 C 73.46875 71.386719 73.808594 71.660156 74.191406 71.660156 C 74.238281 71.660156 74.285156 71.65625 74.332031 71.648438 C 74.769531 71.574219 75.0625 71.15625 74.988281 70.71875 " fill-opacity="1" fill-rule="nonzero"/></g><path fill="#004aad" d="M 41.984375 30.339844 C 41.984375 32.828125 39.960938 34.851562 37.472656 34.851562 C 34.984375 34.851562 32.960938 32.828125 32.960938 30.339844 C 32.960938 27.851562 34.984375 25.824219 37.472656 25.824219 C 39.960938 25.824219 41.984375 27.851562 41.984375 30.339844 Z M 31.347656 30.339844 C 31.347656 33.714844 34.097656 36.460938 37.472656 36.460938 C 40.851562 36.460938 43.597656 33.714844 43.597656 30.339844 C 43.597656 26.960938 40.851562 24.214844 37.472656 24.214844 C 34.097656 24.214844 31.347656 26.960938 31.347656 30.339844 " fill-opacity="1" fill-rule="nonzero"/><g clip-path="url(#3b5d0706ed)"><path fill="#004aad" d="M 19.785156 7.785156 L 35.953125 5.050781 C 36.222656 5.003906 36.484375 5.074219 36.695312 5.253906 C 36.90625 5.429688 37.023438 5.675781 37.023438 5.949219 L 37.101562 16.679688 C 37.105469 17.175781 36.703125 17.589844 36.207031 17.605469 L 28.035156 17.816406 C 27.894531 17.816406 27.753906 17.859375 27.636719 17.933594 L 21.855469 21.460938 L 22.617188 19.019531 C 22.691406 18.769531 22.644531 18.5 22.488281 18.292969 C 22.335938 18.09375 22.097656 17.972656 21.847656 17.972656 C 21.839844 17.972656 21.832031 17.972656 21.828125 17.976562 L 20.503906 18.007812 C 20.007812 18.023438 19.59375 17.644531 19.5625 17.148438 L 19.023438 8.753906 C 18.992188 8.28125 19.320312 7.867188 19.785156 7.785156 Z M 17.957031 17.253906 C 18.042969 18.59375 19.144531 19.621094 20.480469 19.621094 C 20.5 19.621094 20.523438 19.621094 20.546875 19.617188 L 20.746094 19.613281 L 19.683594 23.023438 C 19.585938 23.34375 19.695312 23.691406 19.957031 23.898438 C 20.105469 24.011719 20.277344 24.070312 20.453125 24.070312 C 20.597656 24.070312 20.746094 24.03125 20.875 23.949219 L 28.289062 19.417969 L 36.246094 19.214844 C 36.914062 19.195312 37.535156 18.921875 38 18.445312 C 38.464844 17.964844 38.71875 17.332031 38.710938 16.667969 L 38.636719 5.9375 C 38.628906 5.195312 38.300781 4.496094 37.730469 4.019531 C 37.160156 3.539062 36.414062 3.339844 35.683594 3.460938 L 19.515625 6.199219 C 18.234375 6.414062 17.332031 7.558594 17.414062 8.855469 L 17.957031 17.253906 " fill-opacity="1" fill-rule="nonzero"/></g><path fill="#004aad" d="M 41.015625 8.089844 L 54.773438 10.417969 C 55.238281 10.496094 55.566406 10.914062 55.535156 11.382812 L 54.996094 19.78125 C 54.960938 20.273438 54.550781 20.652344 54.054688 20.640625 L 52.730469 20.605469 C 52.496094 20.601562 52.273438 20.695312 52.113281 20.867188 C 51.957031 21.042969 51.882812 21.273438 51.910156 21.507812 L 52.222656 24.101562 L 46.949219 20.582031 C 46.824219 20.496094 46.675781 20.449219 46.523438 20.445312 L 38.351562 20.234375 C 37.90625 20.222656 37.539062 20.574219 37.527344 21.019531 C 37.515625 21.464844 37.867188 21.835938 38.308594 21.847656 L 46.25 22.050781 L 52.785156 26.410156 C 52.917969 26.5 53.074219 26.546875 53.230469 26.546875 C 53.375 26.546875 53.523438 26.507812 53.652344 26.425781 C 53.917969 26.261719 54.066406 25.957031 54.03125 25.644531 L 53.621094 22.238281 L 54.011719 22.25 C 54.035156 22.25 54.058594 22.25 54.078125 22.25 C 55.414062 22.25 56.515625 21.222656 56.601562 19.882812 L 57.144531 11.488281 C 57.226562 10.191406 56.324219 9.046875 55.039062 8.832031 L 41.285156 6.5 C 40.847656 6.425781 40.429688 6.722656 40.355469 7.160156 C 40.28125 7.597656 40.578125 8.015625 41.015625 8.089844 " fill-opacity="1" fill-rule="nonzero"/><path fill="#004aad" d="M 23.480469 13.757812 C 24.164062 13.757812 24.71875 13.203125 24.71875 12.519531 C 24.71875 11.839844 24.164062 11.285156 23.480469 11.285156 C 22.800781 11.285156 22.242188 11.839844 22.242188 12.519531 C 22.242188 13.203125 22.800781 13.757812 23.480469 13.757812 " fill-opacity="1" fill-rule="nonzero"/><path fill="#004aad" d="M 28.0625 13.328125 C 28.742188 13.328125 29.296875 12.773438 29.296875 12.089844 C 29.296875 11.40625 28.742188 10.851562 28.0625 10.851562 C 27.378906 10.851562 26.824219 11.40625 26.824219 12.089844 C 26.824219 12.773438 27.378906 13.328125 28.0625 13.328125 " fill-opacity="1" fill-rule="nonzero"/><path fill="#004aad" d="M 32.925781 12.894531 C 33.609375 12.894531 34.164062 12.339844 34.164062 11.660156 C 34.164062 10.976562 33.609375 10.421875 32.925781 10.421875 C 32.246094 10.421875 31.691406 10.976562 31.691406 11.660156 C 31.691406 12.339844 32.246094 12.894531 32.925781 12.894531 " fill-opacity="1" fill-rule="nonzero"/></svg>