<svg xmlns="http://www.w3.org/2000/svg" xmlns:xlink="http://www.w3.org/1999/xlink" width="1700" zoomAndPan="magnify" viewBox="0 0 1275 688.499979" height="918" preserveAspectRatio="xMidYMid meet" version="1.0"><defs><filter x="0%" y="0%" width="100%" height="100%" id="10ae340f55"><feColorMatrix values="0 0 0 0 1 0 0 0 0 1 0 0 0 0 1 0 0 0 1 0" color-interpolation-filters="sRGB"/></filter><g/><clipPath id="ad685bb3cf"><path d="M 73.65625 68.800781 L 443 68.800781 L 443 610.65625 L 73.65625 610.65625 Z M 73.65625 68.800781 " clip-rule="nonzero"/></clipPath><mask id="80f4f3f11d"><g filter="url(#10ae340f55)"><rect x="-127.5" width="1530" fill="#000000" y="-68.849998" height="826.199975" fill-opacity="0.57"/></g></mask><clipPath id="403556ad79"><path d="M 10 32 L 74 32 L 74 122 L 10 122 Z M 10 32 " clip-rule="nonzero"/></clipPath><clipPath id="2bc3faa9b0"><path d="M 15.039062 0.800781 L 196.28125 18.613281 L 182.429688 159.582031 L 1.183594 141.769531 Z M 15.039062 0.800781 " clip-rule="nonzero"/></clipPath><clipPath id="579b4f5a8b"><path d="M 15.039062 0.800781 L 196.28125 18.613281 L 182.429688 159.582031 L 1.183594 141.769531 Z M 15.039062 0.800781 " clip-rule="nonzero"/></clipPath><clipPath id="0f485fb89b"><path d="M 8 30 L 76 30 L 76 123 L 8 123 Z M 8 30 " clip-rule="nonzero"/></clipPath><clipPath id="420d52c419"><path d="M 15.039062 0.800781 L 196.28125 18.613281 L 182.429688 159.582031 L 1.183594 141.769531 Z M 15.039062 0.800781 " clip-rule="nonzero"/></clipPath><clipPath id="fbbdcef21d"><path d="M 15.039062 0.800781 L 196.28125 18.613281 L 182.429688 159.582031 L 1.183594 141.769531 Z M 15.039062 0.800781 " clip-rule="nonzero"/></clipPath><clipPath id="9cf59ba66e"><path d="M 123 38 L 188 38 L 188 128 L 123 128 Z M 123 38 " clip-rule="nonzero"/></clipPath><clipPath id="79920a2903"><path d="M 15.039062 0.800781 L 196.28125 18.613281 L 182.429688 159.582031 L 1.183594 141.769531 Z M 15.039062 0.800781 " clip-rule="nonzero"/></clipPath><clipPath id="260d9759f1"><path d="M 15.039062 0.800781 L 196.28125 18.613281 L 182.429688 159.582031 L 1.183594 141.769531 Z M 15.039062 0.800781 " clip-rule="nonzero"/></clipPath><clipPath id="32b03ff90a"><path d="M 121 37 L 190 37 L 190 130 L 121 130 Z M 121 37 " clip-rule="nonzero"/></clipPath><clipPath id="32e701a1f4"><path d="M 15.039062 0.800781 L 196.28125 18.613281 L 182.429688 159.582031 L 1.183594 141.769531 Z M 15.039062 0.800781 " clip-rule="nonzero"/></clipPath><clipPath id="85a202fcf9"><path d="M 15.039062 0.800781 L 196.28125 18.613281 L 182.429688 159.582031 L 1.183594 141.769531 Z M 15.039062 0.800781 " clip-rule="nonzero"/></clipPath><clipPath id="d2b61f38fb"><path d="M 62 13 L 134 13 L 134 146 L 62 146 Z M 62 13 " clip-rule="nonzero"/></clipPath><clipPath id="42b009effe"><path d="M 15.039062 0.800781 L 196.28125 18.613281 L 182.429688 159.582031 L 1.183594 141.769531 Z M 15.039062 0.800781 " clip-rule="nonzero"/></clipPath><clipPath id="9da0eb5ac4"><path d="M 15.039062 0.800781 L 196.28125 18.613281 L 182.429688 159.582031 L 1.183594 141.769531 Z M 15.039062 0.800781 " clip-rule="nonzero"/></clipPath><clipPath id="cd0c13f2d5"><path d="M 60 12 L 136 12 L 136 148 L 60 148 Z M 60 12 " clip-rule="nonzero"/></clipPath><clipPath id="5848f92294"><path d="M 15.039062 0.800781 L 196.28125 18.613281 L 182.429688 159.582031 L 1.183594 141.769531 Z M 15.039062 0.800781 " clip-rule="nonzero"/></clipPath><clipPath id="18aed6efc2"><path d="M 15.039062 0.800781 L 196.28125 18.613281 L 182.429688 159.582031 L 1.183594 141.769531 Z M 15.039062 0.800781 " clip-rule="nonzero"/></clipPath><clipPath id="7b036a1009"><rect x="0" width="197" y="0" height="160"/></clipPath></defs><g clip-path="url(#ad685bb3cf)"><path fill="#004aad" d="M 309.597656 68.867188 L 379.175781 68.867188 C 387.121094 68.867188 393.566406 75.289062 393.601562 83.230469 C 393.601562 83.277344 393.601562 83.320312 393.605469 83.359375 L 396.894531 130.4375 C 396.96875 131.457031 397.679688 132.308594 398.664062 132.566406 C 413.664062 136.488281 428.011719 141.988281 441.539062 148.898438 C 441.550781 148.898438 441.554688 148.902344 441.5625 148.910156 C 442.851562 149.578125 443.226562 151.253906 442.347656 152.40625 L 409.398438 195.683594 C 408.738281 196.546875 407.574219 196.859375 406.578125 196.425781 C 400.957031 193.972656 395.15625 191.851562 389.214844 190.066406 C 381.605469 187.789062 373.75 186.078125 365.703125 184.976562 C 360.878906 184.320312 355.992188 183.882812 351.039062 183.671875 C 348.835938 183.578125 346.613281 183.53125 344.382812 183.53125 C 340.105469 183.53125 335.867188 183.707031 331.671875 184.042969 C 285.976562 187.726562 245.84375 211.09375 219.753906 245.65625 C 200.027344 271.789062 188.332031 304.320312 188.332031 339.582031 C 188.332031 425.769531 258.199219 495.632812 344.382812 495.632812 C 366.496094 495.632812 387.523438 491.035156 406.582031 482.742188 C 407.578125 482.3125 408.738281 482.621094 409.398438 483.484375 L 412.492188 487.546875 L 442.328125 526.734375 C 443.214844 527.898438 442.835938 529.589844 441.539062 530.265625 C 441.382812 530.347656 441.222656 530.429688 441.066406 530.511719 C 440.855469 530.621094 440.644531 530.726562 440.433594 530.832031 C 433.648438 534.246094 426.65625 537.3125 419.484375 539.996094 C 412.699219 542.539062 405.757812 544.746094 398.664062 546.597656 C 397.679688 546.855469 396.96875 547.710938 396.894531 548.726562 L 393.605469 595.804688 C 393.601562 595.84375 393.601562 595.886719 393.601562 595.933594 C 393.566406 603.867188 387.121094 610.296875 379.175781 610.296875 L 309.597656 610.296875 C 301.648438 610.296875 295.203125 603.867188 295.171875 595.933594 C 295.171875 595.886719 295.164062 595.84375 295.164062 595.804688 L 291.875 548.726562 C 291.804688 547.710938 291.09375 546.855469 290.101562 546.597656 C 271.035156 541.609375 253 534.066406 236.394531 524.332031 C 235.515625 523.820312 234.410156 523.921875 233.640625 524.585938 L 198.007812 555.566406 C 197.980469 555.59375 197.949219 555.617188 197.917969 555.652344 C 192.28125 561.242188 183.179688 561.222656 177.5625 555.605469 L 128.363281 506.40625 C 122.742188 500.789062 122.726562 491.679688 128.320312 486.046875 C 128.347656 486.019531 128.375 485.988281 128.402344 485.953125 L 159.378906 450.324219 C 160.046875 449.5625 160.144531 448.449219 159.628906 447.566406 C 149.902344 430.960938 142.351562 412.933594 137.367188 393.863281 C 137.109375 392.878906 136.257812 392.160156 135.242188 392.09375 L 88.160156 388.804688 C 88.121094 388.800781 88.078125 388.800781 88.039062 388.800781 C 80.09375 388.765625 73.667969 382.320312 73.667969 374.375 L 73.667969 304.789062 C 73.667969 296.84375 80.09375 290.398438 88.039062 290.363281 C 88.078125 290.363281 88.121094 290.363281 88.160156 290.359375 L 135.242188 287.070312 C 136.257812 287.003906 137.109375 286.285156 137.367188 285.300781 C 142.351562 266.230469 149.902344 248.203125 159.628906 231.589844 C 160.144531 230.714844 160.046875 229.609375 159.378906 228.839844 L 154.15625 222.828125 L 128.402344 193.210938 C 128.375 193.175781 128.347656 193.144531 128.320312 193.117188 C 122.726562 187.484375 122.742188 178.375 128.363281 172.757812 L 177.5625 123.558594 C 183.179688 117.941406 192.28125 117.921875 197.917969 123.511719 C 197.949219 123.546875 197.980469 123.570312 198.007812 123.597656 L 233.640625 154.578125 C 234.410156 155.242188 235.515625 155.34375 236.394531 154.832031 C 250.742188 146.425781 266.148438 139.644531 282.375 134.742188 C 284.933594 133.96875 287.507812 133.242188 290.101562 132.566406 C 291.09375 132.308594 291.804688 131.453125 291.875 130.4375 L 292.363281 123.464844 L 292.769531 117.636719 L 293.988281 100.191406 L 295.164062 83.359375 C 295.164062 83.320312 295.171875 83.277344 295.171875 83.230469 C 295.203125 75.289062 301.648438 68.867188 309.597656 68.867188 " fill-opacity="1" fill-rule="nonzero"/></g><g fill="#ec00ca" fill-opacity="1"><g transform="translate(323.065524, 423.734117)"><g><path d="M 11.5625 0 L 34.691406 0 L 34.691406 -161.894531 L 11.5625 -161.894531 Z M 11.5625 0 "/></g></g></g><g fill="#ec00ca" fill-opacity="1"><g transform="translate(369.319984, 423.734117)"><g/></g></g><g fill="#ec00ca" fill-opacity="1"><g transform="translate(441.59256, 423.734117)"><g><path d="M 11.5625 0 L 34.691406 0 L 34.691406 -69.382812 L 104.074219 -69.382812 L 104.074219 -92.511719 L 34.691406 -92.511719 L 34.691406 -138.765625 L 104.074219 -138.765625 L 104.074219 -161.894531 L 11.5625 -161.894531 Z M 104.074219 -92.511719 L 127.203125 -92.511719 L 127.203125 -138.765625 L 104.074219 -138.765625 Z M 104.074219 -92.511719 "/></g></g></g><g fill="#ec00ca" fill-opacity="1"><g transform="translate(580.355944, 423.734117)"><g/></g></g><g fill="#ec00ca" fill-opacity="1"><g transform="translate(652.62852, 423.734117)"><g><path d="M 11.5625 0 L 34.691406 0 L 34.691406 -69.382812 L 104.074219 -69.382812 L 104.074219 0 L 127.203125 0 L 127.203125 -161.894531 L 104.074219 -161.894531 L 104.074219 -92.511719 L 34.691406 -92.511719 L 34.691406 -161.894531 L 11.5625 -161.894531 Z M 11.5625 0 "/></g></g></g><g fill="#ec00ca" fill-opacity="1"><g transform="translate(791.391904, 423.734117)"><g/></g></g><g fill="#ec00ca" fill-opacity="1"><g transform="translate(863.66448, 423.734117)"><g><path d="M 11.5625 0 L 127.203125 0 L 127.203125 -23.128906 L 34.691406 -23.128906 L 34.691406 -69.382812 L 104.074219 -69.382812 L 104.074219 -92.511719 L 34.691406 -92.511719 L 34.691406 -138.765625 L 127.203125 -138.765625 L 127.203125 -161.894531 L 11.5625 -161.894531 Z M 11.5625 0 "/></g></g></g><g fill="#ec00ca" fill-opacity="1"><g transform="translate(1002.427863, 423.734117)"><g/></g></g><g fill="#ec00ca" fill-opacity="1"><g transform="translate(1074.70044, 423.734117)"><g><path d="M 11.5625 0 L 34.691406 0 L 34.691406 -69.382812 L 57.820312 -69.382812 L 57.820312 -46.253906 L 80.949219 -46.253906 L 80.949219 -69.382812 L 104.074219 -69.382812 L 104.074219 -92.511719 L 34.691406 -92.511719 L 34.691406 -138.765625 L 104.074219 -138.765625 L 104.074219 -161.894531 L 11.5625 -161.894531 Z M 80.949219 -23.128906 L 104.074219 -23.128906 L 104.074219 -46.253906 L 80.949219 -46.253906 Z M 104.074219 0 L 127.203125 0 L 127.203125 -23.128906 L 104.074219 -23.128906 Z M 104.074219 -92.511719 L 127.203125 -92.511719 L 127.203125 -138.765625 L 104.074219 -138.765625 Z M 104.074219 -92.511719 "/></g></g></g><g mask="url(#80f4f3f11d)"><g transform="matrix(1, 0, 0, 1, 1021, 68)"><g clip-path="url(#7b036a1009)"><g clip-path="url(#403556ad79)"><g clip-path="url(#2bc3faa9b0)"><g clip-path="url(#579b4f5a8b)"><path fill="#004aad" d="M 60.90625 121.054688 C 59.90625 120.957031 58.953125 120.523438 58.226562 119.820312 L 11.492188 74.992188 C 10.488281 74.027344 9.988281 72.683594 10.125 71.300781 C 10.261719 69.917969 11.011719 68.695312 12.183594 67.9375 L 66.753906 33.070312 C 67.601562 32.523438 68.621094 32.285156 69.621094 32.382812 C 71.003906 32.519531 72.234375 33.261719 72.976562 34.441406 C 73.625 35.453125 73.84375 36.664062 73.582031 37.832031 C 73.328125 39.011719 72.621094 40.015625 71.609375 40.664062 L 21.875 72.453125 L 64.46875 113.3125 C 65.335938 114.152344 65.835938 115.273438 65.855469 116.472656 C 65.882812 117.679688 65.433594 118.816406 64.597656 119.691406 C 63.644531 120.691406 62.289062 121.191406 60.90625 121.054688 " fill-opacity="1" fill-rule="nonzero"/></g></g></g><g clip-path="url(#0f485fb89b)"><g clip-path="url(#420d52c419)"><g clip-path="url(#fbbdcef21d)"><path fill="#004aad" d="M 69.808594 30.472656 C 68.378906 30.332031 66.933594 30.675781 65.722656 31.449219 L 11.152344 66.324219 C 9.476562 67.402344 8.410156 69.140625 8.214844 71.113281 C 8.023438 73.082031 8.734375 75.003906 10.164062 76.378906 L 56.902344 121.210938 C 57.933594 122.199219 59.289062 122.824219 60.71875 122.964844 C 62.699219 123.160156 64.621094 122.445312 65.988281 121.015625 C 67.179688 119.78125 67.8125 118.15625 67.78125 116.4375 C 67.742188 114.722656 67.042969 113.117188 65.800781 111.929688 L 24.960938 72.757812 L 72.644531 42.285156 C 74.09375 41.355469 75.089844 39.925781 75.464844 38.25 C 75.828125 36.570312 75.527344 34.851562 74.597656 33.402344 C 73.535156 31.734375 71.78125 30.664062 69.808594 30.472656 Z M 69.433594 34.292969 C 70.199219 34.367188 70.921875 34.777344 71.363281 35.46875 C 72.136719 36.679688 71.78125 38.28125 70.578125 39.050781 L 18.78125 72.152344 L 63.144531 114.703125 C 64.171875 115.691406 64.210938 117.328125 63.214844 118.359375 C 62.648438 118.957031 61.859375 119.21875 61.09375 119.144531 C 60.535156 119.089844 59.996094 118.859375 59.558594 118.4375 L 12.820312 73.609375 C 12.25 73.058594 11.957031 72.273438 12.035156 71.488281 C 12.113281 70.691406 12.550781 69.988281 13.21875 69.558594 L 67.789062 34.6875 C 68.292969 34.359375 68.875 34.238281 69.433594 34.292969 " fill-opacity="1" fill-rule="nonzero"/></g></g></g><g clip-path="url(#9cf59ba66e)"><g clip-path="url(#79920a2903)"><g clip-path="url(#260d9759f1)"><path fill="#004aad" d="M 127.742188 127.625 C 126.359375 127.488281 125.136719 126.734375 124.378906 125.566406 C 123.042969 123.472656 123.65625 120.679688 125.753906 119.335938 L 175.496094 87.550781 L 132.894531 46.6875 C 131.097656 44.964844 131.039062 42.105469 132.757812 40.316406 C 133.726562 39.308594 135.074219 38.8125 136.457031 38.949219 C 137.457031 39.046875 138.410156 39.480469 139.132812 40.183594 L 185.875 85.007812 C 186.875 85.976562 187.367188 87.320312 187.234375 88.707031 C 187.097656 90.089844 186.351562 91.3125 185.175781 92.058594 L 130.609375 126.933594 C 129.761719 127.484375 128.742188 127.722656 127.742188 127.625 " fill-opacity="1" fill-rule="nonzero"/></g></g></g><g clip-path="url(#32b03ff90a)"><g clip-path="url(#32e701a1f4)"><g clip-path="url(#85a202fcf9)"><path fill="#004aad" d="M 136.644531 37.039062 C 134.671875 36.84375 132.75 37.550781 131.375 38.984375 C 128.917969 41.542969 129.003906 45.617188 131.5625 48.074219 L 172.402344 87.246094 L 124.71875 117.722656 C 121.730469 119.625 120.851562 123.613281 122.765625 126.59375 C 123.835938 128.265625 125.582031 129.339844 127.554688 129.535156 C 128.980469 129.675781 130.429688 129.324219 131.636719 128.554688 L 186.210938 93.679688 C 187.882812 92.613281 188.949219 90.863281 189.144531 88.894531 C 189.335938 86.921875 188.628906 85.007812 187.207031 83.625 L 140.46875 38.796875 C 139.429688 37.800781 138.070312 37.179688 136.644531 37.039062 Z M 136.269531 40.859375 C 136.824219 40.914062 137.375 41.144531 137.804688 41.566406 L 184.542969 86.394531 C 185.113281 86.945312 185.402344 87.722656 185.324219 88.515625 C 185.246094 89.304688 184.8125 90.019531 184.144531 90.445312 L 129.574219 125.320312 C 129.070312 125.648438 128.488281 125.769531 127.929688 125.714844 C 127.164062 125.636719 126.441406 125.226562 126 124.527344 C 125.230469 123.328125 125.582031 121.726562 126.785156 120.957031 L 178.582031 87.855469 L 134.21875 45.304688 C 133.1875 44.316406 133.15625 42.675781 134.148438 41.640625 C 134.714844 41.046875 135.511719 40.785156 136.269531 40.859375 " fill-opacity="1" fill-rule="nonzero"/></g></g></g><g clip-path="url(#d2b61f38fb)"><g clip-path="url(#42b009effe)"><g clip-path="url(#9da0eb5ac4)"><path fill="#004aad" d="M 66.789062 145.914062 C 66.230469 145.859375 65.699219 145.699219 65.199219 145.449219 C 64.125 144.902344 63.324219 143.976562 62.949219 142.835938 C 62.566406 141.6875 62.664062 140.472656 63.203125 139.398438 L 125.234375 16.460938 C 126.066406 14.8125 127.859375 13.824219 129.695312 14.003906 C 130.253906 14.058594 130.792969 14.222656 131.292969 14.46875 C 133.503906 15.589844 134.402344 18.308594 133.28125 20.53125 L 71.257812 143.460938 C 70.425781 145.105469 68.621094 146.09375 66.789062 145.914062 " fill-opacity="1" fill-rule="nonzero"/></g></g></g><g clip-path="url(#cd0c13f2d5)"><g clip-path="url(#5848f92294)"><g clip-path="url(#18aed6efc2)"><path fill="#004aad" d="M 129.882812 12.09375 C 127.261719 11.835938 124.699219 13.25 123.519531 15.597656 L 61.488281 138.527344 C 60.722656 140.0625 60.589844 141.800781 61.121094 143.4375 C 61.664062 145.0625 62.800781 146.394531 64.335938 147.164062 C 65.050781 147.527344 65.804688 147.746094 66.601562 147.824219 C 69.222656 148.082031 71.785156 146.675781 72.972656 144.324219 L 134.996094 21.390625 C 136.59375 18.222656 135.316406 14.347656 132.148438 12.757812 C 131.441406 12.394531 130.675781 12.171875 129.882812 12.09375 Z M 129.507812 15.914062 C 129.820312 15.945312 130.128906 16.039062 130.421875 16.183594 C 131.703125 16.824219 132.210938 18.378906 131.570312 19.660156 L 69.539062 142.589844 C 69.046875 143.574219 68.007812 144.105469 66.976562 144.003906 C 66.664062 143.972656 66.355469 143.890625 66.0625 143.738281 C 64.78125 143.09375 64.273438 141.53125 64.921875 140.261719 L 126.945312 17.328125 C 127.441406 16.34375 128.476562 15.8125 129.507812 15.914062 " fill-opacity="1" fill-rule="nonzero"/></g></g></g></g></g></g></svg>