<svg xmlns="http://www.w3.org/2000/svg" xmlns:xlink="http://www.w3.org/1999/xlink" width="1700" zoomAndPan="magnify" viewBox="0 0 1275 688.499979" height="918" preserveAspectRatio="xMidYMid meet" version="1.0"><defs><g/></defs><g fill="#000000" fill-opacity="0.4"><g transform="translate(126.953164, 471.61688)"><g><path d="M 2.78125 -112.152344 L -10.023438 -129.621094 C -16.53125 -127.378906 -22.578125 -123.570312 -27.941406 -118.59375 C -79.878906 -70.429688 -7.742188 7.578125 44.304688 -40.683594 C 49.667969 -45.660156 55.234375 -53.21875 58.167969 -59.527344 L 41.398438 -73.519531 C 39.894531 -69.328125 36.429688 -62.523438 29.773438 -56.351562 C -0.59375 -28.191406 -43.980469 -74.976562 -13.613281 -103.140625 C -6.957031 -109.308594 -1.511719 -110.96875 2.78125 -112.152344 Z M 2.78125 -112.152344 "/></g></g></g><g fill="#000000" fill-opacity="0.4"><g transform="translate(189.892331, 414.380359)"><g><path d="M 25.804688 -19.984375 L -38.269531 -102.714844 L -54.816406 -89.898438 L 9.257812 -7.167969 Z M 25.804688 -19.984375 "/></g></g></g><g fill="#000000" fill-opacity="0.4"><g transform="translate(222.058899, 388.075561)"><g><path d="M 27.472656 -17.613281 L 5.910156 -51.25 L 22.910156 -62.148438 C 57.039062 -84.03125 22.324219 -138.441406 -11.925781 -116.480469 L -46.542969 -94.285156 L 9.855469 -6.320312 Z M -5.070312 -68.375 L -17.710938 -88.085938 L -2.1875 -98.039062 C 9.640625 -105.621094 22.28125 -85.910156 10.453125 -78.328125 Z M -5.070312 -68.375 "/></g></g></g><g fill="#000000" fill-opacity="0.4"><g transform="translate(292.622349, 342.219345)"><g><path d="M 76.566406 -36.640625 L 31.398438 -131.03125 L 12.519531 -121.996094 L 30.589844 -84.242188 L 2.335938 -70.722656 L -15.730469 -108.476562 L -34.609375 -99.445312 L 10.5625 -5.054688 L 29.4375 -14.085938 L 11.371094 -51.84375 L 39.621094 -65.363281 L 57.691406 -27.605469 Z M 76.566406 -36.640625 "/></g></g></g><g fill="#000000" fill-opacity="0.4"><g transform="translate(376.60202, 302.515957)"><g><path d="M 62.257812 -21.480469 L 55.429688 -41.261719 L 24.027344 -30.429688 L 17.199219 -50.210938 L 43.210938 -59.183594 L 36.382812 -78.96875 L 10.375 -69.996094 L 3.550781 -89.777344 L 33.292969 -100.042969 L 26.46875 -119.824219 L -23.0625 -102.738281 L 11.066406 -3.820312 Z M 62.257812 -21.480469 "/></g></g></g><g fill="#000000" fill-opacity="0.4"><g transform="translate(442.685624, 279.043654)"><g><path d="M 62.230469 -14.101562 L 85.355469 -19.339844 L 52.121094 -56.078125 C 80.121094 -71.574219 64.941406 -122.007812 28.546875 -113.761719 L -11.707031 -104.640625 L 11.417969 -2.585938 L 31.828125 -7.210938 L 23 -46.179688 L 32.847656 -48.410156 Z M 18.503906 -66.019531 L 13.332031 -88.855469 L 31.316406 -92.929688 C 45.160156 -96.066406 50.335938 -73.230469 36.488281 -70.09375 Z M 18.503906 -66.019531 "/></g></g></g><g fill="#000000" fill-opacity="0.4"><g transform="translate(526.825984, 260.410799)"><g><path d="M -1.527344 -59.949219 L 0.773438 -40.621094 L 53.671875 -46.910156 L 51.375 -66.238281 Z M -1.527344 -59.949219 "/></g></g></g><g fill="#000000" fill-opacity="0.4"><g transform="translate(588.956124, 251.766529)"><g><path d="M 42.367188 -104.847656 L 11.195312 -104.695312 L 11.707031 -0.0585938 L 42.878906 -0.210938 C 112.542969 -0.550781 112.03125 -105.191406 42.367188 -104.847656 Z M 42.46875 -83.921875 C 83.15625 -84.121094 83.460938 -21.335938 42.777344 -21.136719 L 32.535156 -21.085938 L 32.226562 -83.871094 Z M 42.46875 -83.921875 "/></g></g></g><g fill="#000000" fill-opacity="0.4"><g transform="translate(687.995659, 251.911177)"><g><path d="M 65.433594 7.453125 L 67.804688 -13.339844 L 34.796875 -17.101562 L 37.164062 -37.894531 L 64.5 -34.78125 L 66.871094 -55.574219 L 39.53125 -58.6875 L 41.902344 -79.480469 L 73.164062 -75.917969 L 75.53125 -96.714844 L 23.476562 -102.644531 L 11.632812 1.324219 Z M 65.433594 7.453125 "/></g></g></g><g fill="#000000" fill-opacity="0.4"><g transform="translate(757.768287, 259.269778)"><g><path d="M 94.050781 -61.160156 L 101.210938 -81.597656 C 95.683594 -85.695312 89.121094 -88.523438 81.980469 -90.132812 C 12.882812 -105.714844 -10.628906 -2.097656 58.613281 13.515625 C 65.75 15.125 75.132812 15.4375 81.992188 14.285156 L 84.042969 -7.457031 C 79.738281 -6.328125 72.164062 -5.332031 63.3125 -7.328125 C 22.910156 -16.4375 36.941406 -78.683594 77.347656 -69.574219 C 86.199219 -67.582031 90.648438 -64.027344 94.050781 -61.160156 Z M 94.050781 -61.160156 "/></g></g></g><g fill="#000000" fill-opacity="0.4"><g transform="translate(840.568077, 278.793567)"><g><path d="M 31.074219 9.972656 L 63.046875 -89.667969 L 43.117188 -96.058594 L 11.148438 3.578125 Z M 31.074219 9.972656 "/></g></g></g><g fill="#000000" fill-opacity="0.4"><g transform="translate(880.458401, 290.432127)"><g><path d="M 30.070312 12.6875 L 45.601562 -24.121094 L 64.210938 -16.269531 C 101.558594 -0.507812 126.785156 -59.914062 89.300781 -75.734375 L 51.414062 -91.722656 L 10.785156 4.550781 Z M 53.511719 -42.863281 L 62.613281 -64.4375 L 79.605469 -57.269531 C 92.550781 -51.804688 83.445312 -30.230469 70.5 -35.695312 Z M 53.511719 -42.863281 "/></g></g></g><g fill="#000000" fill-opacity="0.4"><g transform="translate(958.192051, 322.673044)"><g><path d="M 73.53125 42.40625 L 125.808594 -48.238281 L 107.679688 -58.695312 L 86.769531 -22.4375 L 59.636719 -38.082031 L 80.546875 -74.34375 L 62.417969 -84.796875 L 10.140625 5.847656 L 28.273438 16.304688 L 49.183594 -19.953125 L 76.3125 -4.308594 L 55.402344 31.949219 Z M 73.53125 42.40625 "/></g></g></g><g fill="#000000" fill-opacity="0.4"><g transform="translate(1038.443083, 369.456657)"><g><path d="M 52.933594 39.183594 L 65.382812 22.363281 L 38.683594 2.597656 L 51.132812 -14.222656 L 73.25 2.144531 L 85.699219 -14.675781 L 63.585938 -31.046875 L 76.039062 -47.867188 L 101.328125 -29.144531 L 113.78125 -45.964844 L 71.667969 -77.140625 L 9.410156 6.964844 Z M 52.933594 39.183594 "/></g></g></g><g fill="#000000" fill-opacity="0.4"><g transform="translate(1095.18614, 410.66546)"><g><path d="M 46.835938 43.335938 L 64.238281 59.4375 L 75.726562 11.25 C 104.347656 25.570312 137.347656 -15.476562 109.953125 -40.824219 L 79.660156 -68.851562 L 8.59375 7.953125 L 23.953125 22.164062 L 51.089844 -7.160156 L 58.5 -0.300781 Z M 64.90625 -22.089844 L 80.808594 -39.277344 L 94.34375 -26.753906 C 104.761719 -17.113281 88.859375 0.0742188 78.441406 -9.566406 Z M 64.90625 -22.089844 "/></g></g></g><g fill="#f2e6dc" fill-opacity="1"><g transform="translate(120.484901, 465.148639)"><g><path d="M 2.78125 -112.152344 L -10.023438 -129.621094 C -16.53125 -127.378906 -22.578125 -123.570312 -27.941406 -118.59375 C -79.878906 -70.429688 -7.742188 7.578125 44.304688 -40.683594 C 49.667969 -45.660156 55.234375 -53.21875 58.167969 -59.527344 L 41.398438 -73.519531 C 39.894531 -69.328125 36.429688 -62.523438 29.773438 -56.351562 C -0.59375 -28.191406 -43.980469 -74.976562 -13.613281 -103.140625 C -6.957031 -109.308594 -1.511719 -110.96875 2.78125 -112.152344 Z M 2.78125 -112.152344 "/></g></g></g><g fill="#f2e6dc" fill-opacity="1"><g transform="translate(183.424068, 407.912118)"><g><path d="M 25.804688 -19.984375 L -38.269531 -102.714844 L -54.816406 -89.898438 L 9.257812 -7.167969 Z M 25.804688 -19.984375 "/></g></g></g><g fill="#f2e6dc" fill-opacity="1"><g transform="translate(215.590629, 381.60732)"><g><path d="M 27.472656 -17.613281 L 5.910156 -51.25 L 22.910156 -62.148438 C 57.039062 -84.03125 22.324219 -138.441406 -11.925781 -116.480469 L -46.542969 -94.285156 L 9.855469 -6.320312 Z M -5.070312 -68.375 L -17.710938 -88.085938 L -2.1875 -98.039062 C 9.640625 -105.621094 22.28125 -85.910156 10.453125 -78.328125 Z M -5.070312 -68.375 "/></g></g></g><g fill="#f2e6dc" fill-opacity="1"><g transform="translate(286.15409, 335.751103)"><g><path d="M 76.566406 -36.640625 L 31.398438 -131.03125 L 12.519531 -121.996094 L 30.589844 -84.242188 L 2.335938 -70.722656 L -15.730469 -108.476562 L -34.609375 -99.445312 L 10.5625 -5.054688 L 29.4375 -14.085938 L 11.371094 -51.84375 L 39.621094 -65.363281 L 57.691406 -27.605469 Z M 76.566406 -36.640625 "/></g></g></g><g fill="#f2e6dc" fill-opacity="1"><g transform="translate(370.133779, 296.04773)"><g><path d="M 62.257812 -21.480469 L 55.429688 -41.261719 L 24.027344 -30.429688 L 17.199219 -50.210938 L 43.210938 -59.183594 L 36.382812 -78.96875 L 10.375 -69.996094 L 3.550781 -89.777344 L 33.292969 -100.042969 L 26.46875 -119.824219 L -23.0625 -102.738281 L 11.066406 -3.820312 Z M 62.257812 -21.480469 "/></g></g></g><g fill="#f2e6dc" fill-opacity="1"><g transform="translate(436.217353, 272.575427)"><g><path d="M 62.230469 -14.101562 L 85.355469 -19.339844 L 52.121094 -56.078125 C 80.121094 -71.574219 64.941406 -122.007812 28.546875 -113.761719 L -11.707031 -104.640625 L 11.417969 -2.585938 L 31.828125 -7.210938 L 23 -46.179688 L 32.847656 -48.410156 Z M 18.503906 -66.019531 L 13.332031 -88.855469 L 31.316406 -92.929688 C 45.160156 -96.066406 50.335938 -73.230469 36.488281 -70.09375 Z M 18.503906 -66.019531 "/></g></g></g><g fill="#f2e6dc" fill-opacity="1"><g transform="translate(520.357714, 253.942572)"><g><path d="M -1.527344 -59.949219 L 0.773438 -40.621094 L 53.671875 -46.910156 L 51.375 -66.238281 Z M -1.527344 -59.949219 "/></g></g></g><g fill="#f2e6dc" fill-opacity="1"><g transform="translate(582.487853, 245.298302)"><g><path d="M 42.367188 -104.847656 L 11.195312 -104.695312 L 11.707031 -0.0585938 L 42.878906 -0.210938 C 112.542969 -0.550781 112.03125 -105.191406 42.367188 -104.847656 Z M 42.46875 -83.921875 C 83.15625 -84.121094 83.460938 -21.335938 42.777344 -21.136719 L 32.535156 -21.085938 L 32.226562 -83.871094 Z M 42.46875 -83.921875 "/></g></g></g><g fill="#f2e6dc" fill-opacity="1"><g transform="translate(681.527389, 245.44295)"><g><path d="M 65.433594 7.453125 L 67.804688 -13.339844 L 34.796875 -17.101562 L 37.164062 -37.894531 L 64.5 -34.78125 L 66.871094 -55.574219 L 39.53125 -58.6875 L 41.902344 -79.480469 L 73.164062 -75.917969 L 75.53125 -96.714844 L 23.476562 -102.644531 L 11.632812 1.324219 Z M 65.433594 7.453125 "/></g></g></g><g fill="#f2e6dc" fill-opacity="1"><g transform="translate(751.300017, 252.801551)"><g><path d="M 94.050781 -61.160156 L 101.210938 -81.597656 C 95.683594 -85.695312 89.121094 -88.523438 81.980469 -90.132812 C 12.882812 -105.714844 -10.628906 -2.097656 58.613281 13.515625 C 65.75 15.125 75.132812 15.4375 81.992188 14.285156 L 84.042969 -7.457031 C 79.738281 -6.328125 72.164062 -5.332031 63.3125 -7.328125 C 22.910156 -16.4375 36.941406 -78.683594 77.347656 -69.574219 C 86.199219 -67.582031 90.648438 -64.027344 94.050781 -61.160156 Z M 94.050781 -61.160156 "/></g></g></g><g fill="#f2e6dc" fill-opacity="1"><g transform="translate(834.099807, 272.32534)"><g><path d="M 31.074219 9.972656 L 63.046875 -89.667969 L 43.117188 -96.058594 L 11.148438 3.578125 Z M 31.074219 9.972656 "/></g></g></g><g fill="#f2e6dc" fill-opacity="1"><g transform="translate(873.990179, 283.9639)"><g><path d="M 30.070312 12.6875 L 45.601562 -24.121094 L 64.210938 -16.269531 C 101.558594 -0.507812 126.785156 -59.914062 89.300781 -75.734375 L 51.414062 -91.722656 L 10.785156 4.550781 Z M 53.511719 -42.863281 L 62.613281 -64.4375 L 79.605469 -57.269531 C 92.550781 -51.804688 83.445312 -30.230469 70.5 -35.695312 Z M 53.511719 -42.863281 "/></g></g></g><g fill="#f2e6dc" fill-opacity="1"><g transform="translate(951.723901, 316.204817)"><g><path d="M 73.53125 42.40625 L 125.808594 -48.238281 L 107.679688 -58.695312 L 86.769531 -22.4375 L 59.636719 -38.082031 L 80.546875 -74.34375 L 62.417969 -84.796875 L 10.140625 5.847656 L 28.273438 16.304688 L 49.183594 -19.953125 L 76.3125 -4.308594 L 55.402344 31.949219 Z M 73.53125 42.40625 "/></g></g></g><g fill="#f2e6dc" fill-opacity="1"><g transform="translate(1031.974813, 362.988445)"><g><path d="M 52.933594 39.183594 L 65.382812 22.363281 L 38.683594 2.597656 L 51.132812 -14.222656 L 73.25 2.144531 L 85.699219 -14.675781 L 63.585938 -31.046875 L 76.039062 -47.867188 L 101.328125 -29.144531 L 113.78125 -45.964844 L 71.667969 -77.140625 L 9.410156 6.964844 Z M 52.933594 39.183594 "/></g></g></g><g fill="#f2e6dc" fill-opacity="1"><g transform="translate(1088.717869, 404.197219)"><g><path d="M 46.835938 43.335938 L 64.238281 59.4375 L 75.726562 11.25 C 104.347656 25.570312 137.347656 -15.476562 109.953125 -40.824219 L 79.660156 -68.851562 L 8.59375 7.953125 L 23.953125 22.164062 L 51.089844 -7.160156 L 58.5 -0.300781 Z M 64.90625 -22.089844 L 80.808594 -39.277344 L 94.34375 -26.753906 C 104.761719 -17.113281 88.859375 0.0742188 78.441406 -9.566406 Z M 64.90625 -22.089844 "/></g></g></g><g fill="#000000" fill-opacity="0.4"><g transform="translate(299.564348, 524.769204)"><g><path d="M 33.410156 -103.019531 L 26.367188 -122.703125 C 19.730469 -122.417969 13.085938 -120.554688 6.753906 -117.425781 C -54.554688 -87.136719 -9.25 4.882812 52.183594 -25.464844 C 58.519531 -28.59375 65.746094 -34.058594 70.195312 -39.089844 L 58.527344 -56.648438 C 55.980469 -53.1875 50.902344 -47.839844 43.046875 -43.960938 C 7.203125 -26.25 -20.082031 -81.476562 15.765625 -99.1875 C 23.617188 -103.066406 29.113281 -103.101562 33.410156 -103.019531 Z M 33.410156 -103.019531 "/></g></g></g><g fill="#000000" fill-opacity="0.4"><g transform="translate(372.05198, 488.394069)"><g><path d="M 77.382812 -26.953125 L 44.15625 -122.347656 L 25.078125 -115.703125 L 38.367188 -77.546875 L 9.816406 -67.601562 L -3.472656 -105.757812 L -22.554688 -99.113281 L 10.671875 -3.71875 L 29.753906 -10.363281 L 16.460938 -48.519531 L 45.015625 -58.464844 L 58.304688 -20.308594 Z M 77.382812 -26.953125 "/></g></g></g><g fill="#000000" fill-opacity="0.4"><g transform="translate(456.277148, 458.814003)"><g><path d="M 2.210938 -0.464844 L 24.613281 -5.15625 L 26.253906 -16.613281 L 59.027344 -23.476562 L 65.269531 -13.671875 L 87.53125 -18.332031 L 24.449219 -112.082031 L 22.375 -111.648438 Z M 29.566406 -36.648438 L 33.441406 -64.3125 L 47.820312 -40.472656 Z M 29.566406 -36.648438 "/></g></g></g><g fill="#000000" fill-opacity="0.4"><g transform="translate(543.08463, 441.071688)"><g><path d="M 1.75 -101.632812 L 11.253906 -1.0625 L 63.292969 -5.980469 L 61.394531 -26.09375 L 29.464844 -23.078125 L 21.863281 -103.53125 Z M 1.75 -101.632812 "/></g></g></g><g fill="#000000" fill-opacity="0.4"><g transform="translate(609.292244, 434.662255)"><g><path d="M 11.539062 -100.988281 L 11.300781 0.0273438 L 63.578125 0.148438 L 63.625 -20.054688 L 31.554688 -20.128906 L 31.742188 -100.941406 Z M 11.539062 -100.988281 "/></g></g></g><g fill="#000000" fill-opacity="0.4"><g transform="translate(675.777732, 434.625269)"><g><path d="M 63.257812 6.347656 L 65.277344 -13.753906 L 33.367188 -16.957031 L 35.382812 -37.058594 L 61.8125 -34.40625 L 63.828125 -54.511719 L 37.398438 -57.160156 L 39.417969 -77.265625 L 69.640625 -74.230469 L 71.65625 -94.332031 L 21.332031 -99.382812 L 11.246094 1.128906 Z M 63.257812 6.347656 "/></g></g></g><g fill="#000000" fill-opacity="0.4"><g transform="translate(742.997961, 440.305726)"><g><path d="M 42.660156 -46.832031 L 80.230469 19.96875 L 85.46875 21.132812 L 107.777344 -79.417969 L 87.914062 -83.824219 L 75.554688 -28.101562 L 38.613281 -97.078125 L 33.371094 -98.238281 L 11.035156 2.449219 L 30.757812 6.824219 Z M 42.660156 -46.832031 "/></g></g></g><g fill="#000000" fill-opacity="0.4"><g transform="translate(835.92264, 460.775138)"><g><path d="M 81.15625 23.292969 L 96.5 -18.332031 L 77.28125 -25.417969 L 66.773438 3.082031 C 64.953125 2.714844 63 2.292969 61.273438 1.660156 C 24.6875 -11.828125 43.832031 -69.066406 82.628906 -56.269531 C 92.804688 -52.820312 98.117188 -48.453125 101.246094 -45.492188 L 110.582031 -63.882812 C 109.054688 -65.050781 101.128906 -71.734375 89.714844 -75.492188 C 23.085938 -97.34375 -8.28125 -2.449219 54.289062 20.613281 C 63.300781 23.9375 72.351562 24.714844 81.15625 23.292969 Z M 81.15625 23.292969 "/></g></g></g><g fill="#000000" fill-opacity="0.4"><g transform="translate(921.452444, 492.805792)"><g><path d="M 56.726562 28.707031 L 65.847656 10.679688 L 37.234375 -3.800781 L 46.355469 -21.828125 L 70.054688 -9.835938 L 79.175781 -27.863281 L 55.476562 -39.855469 L 64.601562 -57.882812 L 91.703125 -44.164062 L 100.824219 -62.191406 L 55.695312 -85.03125 L 10.085938 5.101562 Z M 56.726562 28.707031 "/></g></g></g><g fill="#ffd1ab" fill-opacity="1"><g transform="translate(293.320138, 518.524979)"><g><path d="M 33.410156 -103.019531 L 26.367188 -122.703125 C 19.730469 -122.417969 13.085938 -120.554688 6.753906 -117.425781 C -54.554688 -87.136719 -9.25 4.882812 52.183594 -25.464844 C 58.519531 -28.59375 65.746094 -34.058594 70.195312 -39.089844 L 58.527344 -56.648438 C 55.980469 -53.1875 50.902344 -47.839844 43.046875 -43.960938 C 7.203125 -26.25 -20.082031 -81.476562 15.765625 -99.1875 C 23.617188 -103.066406 29.113281 -103.101562 33.410156 -103.019531 Z M 33.410156 -103.019531 "/></g></g></g><g fill="#ffd1ab" fill-opacity="1"><g transform="translate(365.807755, 482.149844)"><g><path d="M 77.382812 -26.953125 L 44.15625 -122.347656 L 25.078125 -115.703125 L 38.367188 -77.546875 L 9.816406 -67.601562 L -3.472656 -105.757812 L -22.554688 -99.113281 L 10.671875 -3.71875 L 29.753906 -10.363281 L 16.460938 -48.519531 L 45.015625 -58.464844 L 58.304688 -20.308594 Z M 77.382812 -26.953125 "/></g></g></g><g fill="#ffd1ab" fill-opacity="1"><g transform="translate(450.032923, 452.569778)"><g><path d="M 2.210938 -0.464844 L 24.613281 -5.15625 L 26.253906 -16.613281 L 59.027344 -23.476562 L 65.269531 -13.671875 L 87.53125 -18.332031 L 24.449219 -112.082031 L 22.375 -111.648438 Z M 29.566406 -36.648438 L 33.441406 -64.3125 L 47.820312 -40.472656 Z M 29.566406 -36.648438 "/></g></g></g><g fill="#ffd1ab" fill-opacity="1"><g transform="translate(536.840381, 434.827463)"><g><path d="M 1.75 -101.632812 L 11.253906 -1.0625 L 63.292969 -5.980469 L 61.394531 -26.09375 L 29.464844 -23.078125 L 21.863281 -103.53125 Z M 1.75 -101.632812 "/></g></g></g><g fill="#ffd1ab" fill-opacity="1"><g transform="translate(603.048043, 428.418062)"><g><path d="M 11.539062 -100.988281 L 11.300781 0.0273438 L 63.578125 0.148438 L 63.625 -20.054688 L 31.554688 -20.128906 L 31.742188 -100.941406 Z M 11.539062 -100.988281 "/></g></g></g><g fill="#ffd1ab" fill-opacity="1"><g transform="translate(669.533555, 428.381044)"><g><path d="M 63.257812 6.347656 L 65.277344 -13.753906 L 33.367188 -16.957031 L 35.382812 -37.058594 L 61.8125 -34.40625 L 63.828125 -54.511719 L 37.398438 -57.160156 L 39.417969 -77.265625 L 69.640625 -74.230469 L 71.65625 -94.332031 L 21.332031 -99.382812 L 11.246094 1.128906 Z M 63.257812 6.347656 "/></g></g></g><g fill="#ffd1ab" fill-opacity="1"><g transform="translate(736.75376, 434.061501)"><g><path d="M 42.660156 -46.832031 L 80.230469 19.96875 L 85.46875 21.132812 L 107.777344 -79.417969 L 87.914062 -83.824219 L 75.554688 -28.101562 L 38.613281 -97.078125 L 33.371094 -98.238281 L 11.035156 2.449219 L 30.757812 6.824219 Z M 42.660156 -46.832031 "/></g></g></g><g fill="#ffd1ab" fill-opacity="1"><g transform="translate(829.678391, 454.530941)"><g><path d="M 81.15625 23.292969 L 96.5 -18.332031 L 77.28125 -25.417969 L 66.773438 3.082031 C 64.953125 2.714844 63 2.292969 61.273438 1.660156 C 24.6875 -11.828125 43.832031 -69.066406 82.628906 -56.269531 C 92.804688 -52.820312 98.117188 -48.453125 101.246094 -45.492188 L 110.582031 -63.882812 C 109.054688 -65.050781 101.128906 -71.734375 89.714844 -75.492188 C 23.085938 -97.34375 -8.28125 -2.449219 54.289062 20.613281 C 63.300781 23.9375 72.351562 24.714844 81.15625 23.292969 Z M 81.15625 23.292969 "/></g></g></g><g fill="#ffd1ab" fill-opacity="1"><g transform="translate(915.208243, 486.561567)"><g><path d="M 56.726562 28.707031 L 65.847656 10.679688 L 37.234375 -3.800781 L 46.355469 -21.828125 L 70.054688 -9.835938 L 79.175781 -27.863281 L 55.476562 -39.855469 L 64.601562 -57.882812 L 91.703125 -44.164062 L 100.824219 -62.191406 L 55.695312 -85.03125 L 10.085938 5.101562 Z M 56.726562 28.707031 "/></g></g></g><g fill="#000000" fill-opacity="0.4"><g transform="translate(406.606162, 629.542453)"><g><path d="M 61.597656 0 L 84.488281 0 L 61.035156 -41.679688 C 90.703125 -50.296875 87.171875 -101.015625 51.144531 -101.015625 L 11.300781 -101.015625 L 11.300781 0 L 31.503906 0 L 31.503906 -38.570312 L 41.253906 -38.570312 Z M 31.503906 -58.207031 L 31.503906 -80.8125 L 49.308594 -80.8125 C 63.011719 -80.8125 63.011719 -58.207031 49.308594 -58.207031 Z M 31.503906 -58.207031 "/></g></g></g><g fill="#000000" fill-opacity="0.4"><g transform="translate(493.207152, 629.542453)"><g><path d="M 63.578125 0 L 63.578125 -20.203125 L 31.503906 -20.203125 L 31.503906 -40.40625 L 58.066406 -40.40625 L 58.066406 -60.609375 L 31.503906 -60.609375 L 31.503906 -80.8125 L 61.882812 -80.8125 L 61.882812 -101.015625 L 11.300781 -101.015625 L 11.300781 0 Z M 63.578125 0 "/></g></g></g><g fill="#000000" fill-opacity="0.4"><g transform="translate(564.409272, 629.542453)"><g><path d="M 6.640625 -6.5 C 20.34375 0.566406 32.917969 1.273438 38.570312 0.847656 C 57.5 -0.140625 69.085938 -12.996094 69.085938 -29.808594 C 69.085938 -45.917969 55.523438 -54.957031 39.839844 -60.75 C 34.050781 -62.730469 29.105469 -65.273438 28.539062 -70.921875 C 28.113281 -76.574219 31.363281 -81.800781 38.570312 -82.226562 C 41.679688 -82.367188 48.035156 -82.507812 59.195312 -77.988281 L 61.738281 -97.484375 C 48.742188 -102.003906 41.820312 -102.003906 36.59375 -101.722656 C 19.78125 -100.875 8.054688 -87.878906 8.054688 -70.921875 C 8.054688 -53.96875 22.179688 -45.917969 38.003906 -40.125 C 43.65625 -38.144531 48.035156 -35.601562 48.460938 -29.808594 C 49.023438 -24.300781 43.9375 -20.0625 38.003906 -19.636719 C 33.34375 -19.214844 20.769531 -19.496094 9.183594 -27.691406 Z M 6.640625 -6.5 "/></g></g></g><g fill="#000000" fill-opacity="0.4"><g transform="translate(639.143234, 629.542453)"><g><path d="M 83.78125 -35.179688 L 83.78125 -101.015625 L 63.71875 -101.015625 L 63.71875 -35.320312 C 63.71875 -14.128906 30.941406 -14.128906 30.941406 -35.320312 L 30.941406 -101.015625 L 10.738281 -101.015625 L 10.738281 -35.179688 C 10.738281 12.855469 83.78125 12.855469 83.78125 -35.179688 Z M 83.78125 -35.179688 "/></g></g></g><g fill="#000000" fill-opacity="0.4"><g transform="translate(733.938127, 629.542453)"><g><path d="M 11.300781 -101.015625 L 11.300781 0 L 63.578125 0 L 63.578125 -20.203125 L 31.503906 -20.203125 L 31.503906 -101.015625 Z M 11.300781 -101.015625 "/></g></g></g><g fill="#000000" fill-opacity="0.4"><g transform="translate(803.586212, 629.542453)"><g><path d="M 48.175781 0 L 48.175781 -80.8125 L 73.324219 -80.8125 L 73.324219 -100.875 L 2.824219 -100.875 L 2.824219 -80.8125 L 27.972656 -80.8125 L 27.972656 0 Z M 48.175781 0 "/></g></g></g><g fill="#7ed957" fill-opacity="1"><g transform="translate(400.361966, 623.298252)"><g><path d="M 61.597656 0 L 84.488281 0 L 61.035156 -41.679688 C 90.703125 -50.296875 87.171875 -101.015625 51.144531 -101.015625 L 11.300781 -101.015625 L 11.300781 0 L 31.503906 0 L 31.503906 -38.570312 L 41.253906 -38.570312 Z M 31.503906 -58.207031 L 31.503906 -80.8125 L 49.308594 -80.8125 C 63.011719 -80.8125 63.011719 -58.207031 49.308594 -58.207031 Z M 31.503906 -58.207031 "/></g></g></g><g fill="#7ed957" fill-opacity="1"><g transform="translate(486.962956, 623.298252)"><g><path d="M 63.578125 0 L 63.578125 -20.203125 L 31.503906 -20.203125 L 31.503906 -40.40625 L 58.066406 -40.40625 L 58.066406 -60.609375 L 31.503906 -60.609375 L 31.503906 -80.8125 L 61.882812 -80.8125 L 61.882812 -101.015625 L 11.300781 -101.015625 L 11.300781 0 Z M 63.578125 0 "/></g></g></g><g fill="#7ed957" fill-opacity="1"><g transform="translate(558.165075, 623.298252)"><g><path d="M 6.640625 -6.5 C 20.34375 0.566406 32.917969 1.273438 38.570312 0.847656 C 57.5 -0.140625 69.085938 -12.996094 69.085938 -29.808594 C 69.085938 -45.917969 55.523438 -54.957031 39.839844 -60.75 C 34.050781 -62.730469 29.105469 -65.273438 28.539062 -70.921875 C 28.113281 -76.574219 31.363281 -81.800781 38.570312 -82.226562 C 41.679688 -82.367188 48.035156 -82.507812 59.195312 -77.988281 L 61.738281 -97.484375 C 48.742188 -102.003906 41.820312 -102.003906 36.59375 -101.722656 C 19.78125 -100.875 8.054688 -87.878906 8.054688 -70.921875 C 8.054688 -53.96875 22.179688 -45.917969 38.003906 -40.125 C 43.65625 -38.144531 48.035156 -35.601562 48.460938 -29.808594 C 49.023438 -24.300781 43.9375 -20.0625 38.003906 -19.636719 C 33.34375 -19.214844 20.769531 -19.496094 9.183594 -27.691406 Z M 6.640625 -6.5 "/></g></g></g><g fill="#7ed957" fill-opacity="1"><g transform="translate(632.899038, 623.298252)"><g><path d="M 83.78125 -35.179688 L 83.78125 -101.015625 L 63.71875 -101.015625 L 63.71875 -35.320312 C 63.71875 -14.128906 30.941406 -14.128906 30.941406 -35.320312 L 30.941406 -101.015625 L 10.738281 -101.015625 L 10.738281 -35.179688 C 10.738281 12.855469 83.78125 12.855469 83.78125 -35.179688 Z M 83.78125 -35.179688 "/></g></g></g><g fill="#7ed957" fill-opacity="1"><g transform="translate(727.693931, 623.298252)"><g><path d="M 11.300781 -101.015625 L 11.300781 0 L 63.578125 0 L 63.578125 -20.203125 L 31.503906 -20.203125 L 31.503906 -101.015625 Z M 11.300781 -101.015625 "/></g></g></g><g fill="#7ed957" fill-opacity="1"><g transform="translate(797.342016, 623.298252)"><g><path d="M 48.175781 0 L 48.175781 -80.8125 L 73.324219 -80.8125 L 73.324219 -100.875 L 2.824219 -100.875 L 2.824219 -80.8125 L 27.972656 -80.8125 L 27.972656 0 Z M 48.175781 0 "/></g></g></g></svg>